<svg xmlns="http://www.w3.org/2000/svg" xmlns:xlink="http://www.w3.org/1999/xlink" width="806" zoomAndPan="magnify" viewBox="0 0 604.5 384.749984" height="513" preserveAspectRatio="xMidYMid meet" version="1.0"><defs><g/><clipPath id="id1"><path d="M 0 0.0351562 L 604 0.0351562 L 604 384.464844 L 0 384.464844 Z M 0 0.0351562 " clip-rule="nonzero"/></clipPath><clipPath id="id2"><path d="M 24.425781 12.800781 L 92.675781 12.800781 L 92.675781 83.300781 L 24.425781 83.300781 Z M 24.425781 12.800781 " clip-rule="nonzero"/></clipPath><clipPath id="id3"><path d="M 0 114.511719 L 40.84375 114.511719 L 40.84375 200.761719 L 0 200.761719 Z M 0 114.511719 " clip-rule="nonzero"/></clipPath><clipPath id="id4"><path d="M 76 71 L 125 71 L 125 136 L 76 136 Z M 76 71 " clip-rule="nonzero"/></clipPath><clipPath id="id5"><path d="M 76.917969 132.800781 L 105.519531 71.660156 L 136.089844 85.960938 L 107.488281 147.101562 Z M 76.917969 132.800781 " clip-rule="nonzero"/></clipPath><clipPath id="id6"><path d="M 76.917969 132.800781 L 105.519531 71.660156 L 136.089844 85.960938 L 107.488281 147.101562 Z M 76.917969 132.800781 " clip-rule="nonzero"/></clipPath><clipPath id="id7"><path d="M 76.917969 132.800781 L 105.519531 71.660156 L 136.089844 85.960938 L 107.488281 147.101562 Z M 76.917969 132.800781 " clip-rule="nonzero"/></clipPath><clipPath id="id8"><path d="M 26 354 L 88 354 L 88 384.464844 L 26 384.464844 Z M 26 354 " clip-rule="nonzero"/></clipPath><clipPath id="id9"><path d="M 24.425781 412.613281 L 57.449219 341.949219 L 89.386719 356.875 L 56.359375 427.539062 Z M 24.425781 412.613281 " clip-rule="nonzero"/></clipPath><clipPath id="id10"><path d="M 24.425781 412.613281 L 57.449219 341.949219 L 89.386719 356.875 L 56.359375 427.539062 Z M 24.425781 412.613281 " clip-rule="nonzero"/></clipPath><clipPath id="id11"><path d="M 24.425781 412.613281 L 57.449219 341.949219 L 89.386719 356.875 L 56.359375 427.539062 Z M 24.425781 412.613281 " clip-rule="nonzero"/></clipPath><clipPath id="id12"><path d="M 0 256 L 67 256 L 67 277 L 0 277 Z M 0 256 " clip-rule="nonzero"/></clipPath><clipPath id="id13"><path d="M 67.511719 275.535156 L -1.472656 277.019531 L -1.890625 257.523438 L 67.09375 256.039062 Z M 67.511719 275.535156 " clip-rule="nonzero"/></clipPath><clipPath id="id14"><path d="M 67.511719 275.535156 L -1.472656 277.019531 L -1.890625 257.523438 L 67.09375 256.039062 Z M 67.511719 275.535156 " clip-rule="nonzero"/></clipPath><clipPath id="id15"><path d="M 113.394531 19.371094 L 147.894531 19.371094 L 147.894531 47.871094 L 113.394531 47.871094 Z M 113.394531 19.371094 " clip-rule="nonzero"/></clipPath><clipPath id="id16"><path d="M 36 315 L 70 315 L 70 342 L 36 342 Z M 36 315 " clip-rule="nonzero"/></clipPath><clipPath id="id17"><path d="M 71.515625 338.933594 L 37.546875 344.976562 L 32.554688 316.917969 L 66.519531 310.871094 Z M 71.515625 338.933594 " clip-rule="nonzero"/></clipPath><clipPath id="id18"><path d="M 71.515625 338.933594 L 37.546875 344.976562 L 32.554688 316.917969 L 66.519531 310.871094 Z M 71.515625 338.933594 " clip-rule="nonzero"/></clipPath><clipPath id="id19"><path d="M 34 181 L 120 181 L 120 235 L 34 235 Z M 34 181 " clip-rule="nonzero"/></clipPath><clipPath id="id20"><path d="M 34.4375 212.90625 L 88.0625 181.296875 L 119.675781 234.921875 L 66.046875 266.53125 Z M 34.4375 212.90625 " clip-rule="nonzero"/></clipPath><clipPath id="id21"><path d="M 34.4375 212.90625 L 88.0625 181.296875 L 119.675781 234.921875 L 66.046875 266.53125 Z M 34.4375 212.90625 " clip-rule="nonzero"/></clipPath><clipPath id="id22"><path d="M 87.625 277.023438 L 130.375 277.023438 L 130.375 319.773438 L 87.625 319.773438 Z M 87.625 277.023438 " clip-rule="nonzero"/></clipPath><clipPath id="id23"><path d="M 125.171875 342.160156 L 182.171875 342.160156 L 182.171875 384.464844 L 125.171875 384.464844 Z M 125.171875 342.160156 " clip-rule="nonzero"/></clipPath><clipPath id="id24"><path d="M 474.890625 268.953125 L 538.640625 268.953125 L 538.640625 334.203125 L 474.890625 334.203125 Z M 474.890625 268.953125 " clip-rule="nonzero"/></clipPath><clipPath id="id25"><path d="M 479 173 L 556 173 L 556 235 L 479 235 Z M 479 173 " clip-rule="nonzero"/></clipPath><clipPath id="id26"><path d="M 555.046875 192.621094 L 484.984375 234.742188 L 464.117188 200.035156 L 534.175781 157.910156 Z M 555.046875 192.621094 " clip-rule="nonzero"/></clipPath><clipPath id="id27"><path d="M 555.046875 192.621094 L 484.984375 234.742188 L 464.117188 200.035156 L 534.175781 157.910156 Z M 555.046875 192.621094 " clip-rule="nonzero"/></clipPath><clipPath id="id28"><path d="M 555.046875 192.621094 L 484.984375 234.742188 L 464.117188 200.035156 L 534.175781 157.910156 Z M 555.046875 192.621094 " clip-rule="nonzero"/></clipPath><clipPath id="id29"><path d="M 515 325 L 579 325 L 579 377 L 515 377 Z M 515 325 " clip-rule="nonzero"/></clipPath><clipPath id="id30"><path d="M 515.039062 358.777344 L 574.015625 325.953125 L 590.429688 355.441406 L 531.449219 388.269531 Z M 515.039062 358.777344 " clip-rule="nonzero"/></clipPath><clipPath id="id31"><path d="M 515.039062 358.777344 L 574.015625 325.953125 L 590.429688 355.441406 L 531.449219 388.269531 Z M 515.039062 358.777344 " clip-rule="nonzero"/></clipPath><clipPath id="id32"><path d="M 515.039062 358.777344 L 574.015625 325.953125 L 590.429688 355.441406 L 531.449219 388.269531 Z M 515.039062 358.777344 " clip-rule="nonzero"/></clipPath><clipPath id="id33"><path d="M 535 0.0351562 L 596 0.0351562 L 596 44 L 535 44 Z M 535 0.0351562 " clip-rule="nonzero"/></clipPath><clipPath id="id34"><path d="M 598.050781 -15.035156 L 565.023438 55.628906 L 533.089844 40.703125 L 566.117188 -29.960938 Z M 598.050781 -15.035156 " clip-rule="nonzero"/></clipPath><clipPath id="id35"><path d="M 598.050781 -15.035156 L 565.023438 55.628906 L 533.089844 40.703125 L 566.117188 -29.960938 Z M 598.050781 -15.035156 " clip-rule="nonzero"/></clipPath><clipPath id="id36"><path d="M 598.050781 -15.035156 L 565.023438 55.628906 L 533.089844 40.703125 L 566.117188 -29.960938 Z M 598.050781 -15.035156 " clip-rule="nonzero"/></clipPath><clipPath id="id37"><path d="M 532 132 L 600 132 L 600 152 L 532 152 Z M 532 132 " clip-rule="nonzero"/></clipPath><clipPath id="id38"><path d="M 531.054688 133.347656 L 600.039062 131.867188 L 600.460938 151.363281 L 531.476562 152.84375 Z M 531.054688 133.347656 " clip-rule="nonzero"/></clipPath><clipPath id="id39"><path d="M 531.054688 133.347656 L 600.039062 131.867188 L 600.460938 151.363281 L 531.476562 152.84375 Z M 531.054688 133.347656 " clip-rule="nonzero"/></clipPath><clipPath id="id40"><path d="M 433.558594 346.308594 L 468.058594 346.308594 L 468.058594 374.808594 L 433.558594 374.808594 Z M 433.558594 346.308594 " clip-rule="nonzero"/></clipPath><clipPath id="id41"><path d="M 548 57 L 582 57 L 582 85 L 548 85 Z M 548 57 " clip-rule="nonzero"/></clipPath><clipPath id="id42"><path d="M 546.417969 60.320312 L 580.382812 54.273438 L 585.378906 82.332031 L 551.410156 88.378906 Z M 546.417969 60.320312 " clip-rule="nonzero"/></clipPath><clipPath id="id43"><path d="M 546.417969 60.320312 L 580.382812 54.273438 L 585.378906 82.332031 L 551.410156 88.378906 Z M 546.417969 60.320312 " clip-rule="nonzero"/></clipPath><clipPath id="id44"><path d="M 552 199 L 604 199 L 604 278 L 552 278 Z M 552 199 " clip-rule="nonzero"/></clipPath><clipPath id="id45"><path d="M 570.640625 277.011719 L 552.863281 217.355469 L 612.523438 199.578125 L 630.300781 259.234375 Z M 570.640625 277.011719 " clip-rule="nonzero"/></clipPath><clipPath id="id46"><path d="M 570.640625 277.011719 L 552.863281 217.355469 L 612.523438 199.578125 L 630.300781 259.234375 Z M 570.640625 277.011719 " clip-rule="nonzero"/></clipPath><clipPath id="id47"><path d="M 482.304688 71.363281 L 531.054688 71.363281 L 531.054688 120 L 482.304688 120 Z M 482.304688 71.363281 " clip-rule="nonzero"/></clipPath><clipPath id="id48"><path d="M 453.773438 0.0351562 L 510.773438 0.0351562 L 510.773438 47.878906 L 453.773438 47.878906 Z M 453.773438 0.0351562 " clip-rule="nonzero"/></clipPath><clipPath id="id49"><path d="M 191.511719 105 L 412.761719 105 L 412.761719 263.699219 L 191.511719 263.699219 Z M 191.511719 105 " clip-rule="nonzero"/></clipPath><clipPath id="id50"><path d="M 298 42.449219 L 306 42.449219 L 306 54 L 298 54 Z M 298 42.449219 " clip-rule="nonzero"/></clipPath></defs><g clip-path="url(#id1)"><path fill="rgb(100%, 100%, 100%)" d="M 0 0.0351562 L 604.5 0.0351562 L 604.5 392.285156 L 0 392.285156 Z M 0 0.0351562 " fill-opacity="1" fill-rule="nonzero"/><path fill="rgb(7.058716%, 6.669617%, 8.628845%)" d="M 0 0.0351562 L 604.5 0.0351562 L 604.5 384.785156 L 0 384.785156 Z M 0 0.0351562 " fill-opacity="1" fill-rule="nonzero"/><path fill="rgb(100%, 100%, 100%)" d="M 0 0.0351562 L 604.5 0.0351562 L 604.5 384.785156 L 0 384.785156 Z M 0 0.0351562 " fill-opacity="1" fill-rule="nonzero"/><path fill="rgb(7.058716%, 6.669617%, 8.628845%)" d="M 0 0.0351562 L 604.5 0.0351562 L 604.5 384.785156 L 0 384.785156 Z M 0 0.0351562 " fill-opacity="1" fill-rule="nonzero"/></g><g clip-path="url(#id2)"><path fill="rgb(93.328857%, 36.859131%, 25.099182%)" d="M 58.550781 12.8125 L 64.761719 20.652344 L 73.738281 16.300781 L 75.953125 26.078125 L 85.914062 26.078125 L 83.699219 35.855469 L 92.675781 40.207031 L 86.464844 48.050781 L 92.675781 55.890625 L 83.699219 60.242188 L 85.914062 70.019531 L 75.953125 70.019531 L 73.738281 79.796875 L 64.761719 75.445312 L 58.550781 83.289062 L 52.339844 75.445312 L 43.363281 79.796875 L 41.144531 70.019531 L 31.183594 70.019531 L 33.402344 60.242188 L 24.425781 55.890625 L 30.636719 48.050781 L 24.425781 40.207031 L 33.402344 35.855469 L 31.183594 26.078125 L 41.144531 26.078125 L 43.363281 16.300781 L 52.339844 20.652344 Z M 58.550781 12.8125 " fill-opacity="1" fill-rule="nonzero"/></g><g clip-path="url(#id3)"><path fill="rgb(100%, 78.819275%, 39.99939%)" d="M -1.90625 114.554688 C 21.707031 114.554688 40.84375 133.855469 40.84375 157.671875 C 40.84375 181.488281 21.707031 200.71875 -1.90625 200.71875 Z M -1.90625 114.554688 " fill-opacity="1" fill-rule="nonzero"/></g><g clip-path="url(#id4)"><g clip-path="url(#id5)"><g clip-path="url(#id6)"><g clip-path="url(#id7)"><path fill="rgb(90.979004%, 52.549744%, 51.759338%)" d="M 101.253906 80.777344 C 113.082031 86.308594 118.191406 100.40625 112.660156 112.230469 C 107.128906 124.054688 93.03125 129.164062 81.207031 123.628906 L 76.933594 132.769531 C 93.816406 140.667969 113.902344 133.390625 121.800781 116.507812 C 129.699219 99.625 122.390625 79.589844 105.507812 71.691406 Z M 101.253906 80.777344 " fill-opacity="1" fill-rule="nonzero"/></g></g></g></g><g clip-path="url(#id8)"><g clip-path="url(#id9)"><g clip-path="url(#id10)"><g clip-path="url(#id11)"><path fill="rgb(100%, 58.428955%, 27.059937%)" d="M 36.273438 413.28125 C 47.796875 398.933594 61.390625 386.53125 74.714844 373.925781 C 78.53125 370.320312 82.324219 366.683594 86.039062 362.957031 C 86.976562 362.027344 87.40625 360.285156 87.273438 359.007812 C 87.136719 357.730469 86.441406 356.226562 85.402344 355.429688 C 84.289062 354.5625 82.875 353.96875 81.433594 354.179688 C 79.996094 354.375 78.871094 354.996094 77.847656 356.023438 C 64.875 369 50.90625 381.003906 38.386719 394.46875 C 34.816406 398.296875 31.378906 402.253906 28.105469 406.308594 C 26.351562 408.488281 26.390625 412.027344 28.734375 413.847656 C 30.96875 415.601562 34.421875 415.605469 36.273438 413.28125 Z M 36.273438 413.28125 " fill-opacity="1" fill-rule="nonzero"/></g></g></g></g><g clip-path="url(#id12)"><g clip-path="url(#id13)"><g clip-path="url(#id14)"><path fill="rgb(7.839966%, 31.369019%, 61.959839%)" d="M 55.734375 259.496094 C 55.152344 259.949219 52.480469 261.808594 51.445312 262.382812 C 50.636719 262.835938 48.976562 263.410156 47.5625 263.246094 C 46.03125 263.0625 44.859375 262.046875 44.402344 261.667969 C 43.351562 260.769531 42.253906 259.933594 41.105469 259.15625 C 39.828125 258.3125 38.4375 257.710938 36.9375 257.347656 C 35.441406 256.984375 33.925781 256.886719 32.390625 257.050781 C 29.15625 257.4375 26.363281 258.894531 23.730469 260.730469 C 22.722656 261.433594 21.738281 262.167969 20.707031 262.839844 C 19.878906 263.339844 19.003906 263.738281 18.085938 264.039062 C 16.90625 264.300781 15.722656 264.308594 14.539062 264.0625 C 12.328125 263.414062 9.898438 261.527344 9.511719 261.183594 C 7.191406 259.078125 3.136719 258.921875 0.957031 261.367188 C -1.171875 263.746094 -1.347656 267.519531 1.136719 269.777344 C 4.5 272.824219 8.25 275.296875 13.011719 276.109375 C 16.066406 276.652344 19.070312 276.441406 22.015625 275.472656 C 24.394531 274.664062 26.507812 273.371094 28.535156 271.941406 C 29.390625 271.335938 30.238281 270.71875 31.101562 270.144531 C 31.523438 269.867188 32.894531 269.105469 33.816406 269.152344 C 34.742188 269.203125 36.015625 270.273438 36.351562 270.5625 C 37.367188 271.421875 38.433594 272.21875 39.546875 272.953125 C 41.9375 274.4375 44.546875 275.203125 47.375 275.25 C 53.804688 275.480469 60.210938 272.046875 64.648438 267.503906 C 66.835938 265.261719 66.871094 261.175781 64.46875 259.089844 C 61.945312 256.921875 57.449219 258.164062 55.734375 259.496094 Z M 55.734375 259.496094 " fill-opacity="1" fill-rule="nonzero"/></g></g></g><g clip-path="url(#id15)"><path fill="rgb(100%, 100%, 100%)" d="M 124.636719 19.609375 C 124.597656 19.460938 124.457031 19.371094 124.304688 19.410156 C 124.207031 19.429688 124.125 19.511719 124.101562 19.609375 C 123.625 21.394531 122.4375 24.695312 119.828125 26.710938 C 118.015625 28.109375 115.890625 29.078125 113.640625 29.53125 C 113.492188 29.5625 113.394531 29.703125 113.425781 29.851562 C 113.445312 29.957031 113.523438 30.03125 113.621094 30.058594 C 115.449219 30.566406 118.628906 31.675781 120.242188 33.558594 C 121.515625 35.046875 122.648438 38.777344 123.144531 40.597656 C 123.1875 40.742188 123.339844 40.832031 123.480469 40.785156 C 123.570312 40.761719 123.644531 40.6875 123.667969 40.597656 C 124.179688 38.746094 125.5 34.914062 127.964844 33.28125 C 130.171875 31.824219 132.621094 31.09375 134.011719 30.765625 C 134.160156 30.730469 134.242188 30.582031 134.203125 30.433594 C 134.183594 30.34375 134.113281 30.269531 134.023438 30.246094 C 132.351562 29.753906 129.242188 28.644531 127.964844 26.984375 C 125.984375 24.410156 125.039062 21.308594 124.636719 19.609375 Z M 138.503906 34.90625 C 138.480469 34.816406 138.390625 34.765625 138.300781 34.785156 C 138.238281 34.800781 138.195312 34.847656 138.179688 34.90625 C 137.886719 36 137.160156 38.015625 135.5625 39.246094 C 134.453125 40.101562 133.15625 40.6875 131.773438 40.964844 C 131.683594 40.980469 131.625 41.070312 131.648438 41.15625 C 131.664062 41.21875 131.707031 41.269531 131.769531 41.285156 C 132.886719 41.597656 134.835938 42.265625 135.816406 43.421875 C 136.597656 44.328125 137.289062 46.613281 137.59375 47.730469 C 137.617188 47.820312 137.714844 47.871094 137.796875 47.847656 C 137.855469 47.835938 137.894531 47.789062 137.917969 47.730469 C 138.230469 46.597656 139.035156 44.253906 140.542969 43.257812 C 141.890625 42.363281 143.390625 41.917969 144.238281 41.714844 C 144.328125 41.695312 144.382812 41.605469 144.359375 41.515625 C 144.34375 41.457031 144.300781 41.410156 144.246094 41.394531 C 143.21875 41.089844 141.320312 40.421875 140.542969 39.402344 C 139.328125 37.84375 138.75 35.949219 138.503906 34.90625 Z M 143.984375 22.460938 C 143.96875 22.402344 143.910156 22.363281 143.847656 22.378906 C 143.8125 22.386719 143.78125 22.414062 143.765625 22.460938 C 143.570312 23.191406 143.089844 24.523438 142.027344 25.339844 C 141.292969 25.90625 140.429688 26.300781 139.515625 26.488281 C 139.453125 26.503906 139.417969 26.554688 139.425781 26.613281 C 139.433594 26.660156 139.460938 26.6875 139.507812 26.695312 C 140.25 26.902344 141.539062 27.351562 142.199219 28.117188 C 142.714844 28.71875 143.175781 30.238281 143.375 30.976562 C 143.390625 31.035156 143.453125 31.066406 143.511719 31.050781 C 143.550781 31.042969 143.578125 31.011719 143.585938 30.976562 C 143.796875 30.222656 144.328125 28.667969 145.332031 28.003906 C 146.226562 27.410156 147.222656 27.121094 147.792969 26.984375 C 147.855469 26.972656 147.890625 26.910156 147.875 26.851562 C 147.867188 26.816406 147.839844 26.785156 147.800781 26.769531 C 147.117188 26.570312 145.859375 26.121094 145.339844 25.445312 C 144.539062 24.410156 144.148438 23.152344 143.984375 22.460938 Z M 143.984375 22.460938 " fill-opacity="1" fill-rule="nonzero"/></g><g clip-path="url(#id16)"><g clip-path="url(#id17)"><g clip-path="url(#id18)"><path fill="rgb(100%, 100%, 100%)" d="M 60.402344 340.667969 C 60.464844 340.808594 60.621094 340.871094 60.761719 340.808594 C 60.855469 340.769531 60.921875 340.671875 60.925781 340.574219 C 61.085938 338.730469 61.675781 335.277344 63.890625 332.835938 C 65.433594 331.136719 67.351562 329.8125 69.488281 328.972656 C 69.628906 328.917969 69.703125 328.761719 69.644531 328.621094 C 69.605469 328.519531 69.519531 328.460938 69.417969 328.449219 C 67.527344 328.269531 64.203125 327.734375 62.285156 326.164062 C 60.769531 324.921875 59 321.449219 58.195312 319.742188 C 58.125 319.609375 57.960938 319.546875 57.828125 319.617188 C 57.746094 319.65625 57.683594 319.742188 57.679688 319.832031 C 57.5 321.746094 56.871094 325.75 54.730469 327.789062 C 52.8125 329.613281 50.527344 330.757812 49.21875 331.324219 C 49.078125 331.386719 49.023438 331.550781 49.085938 331.6875 C 49.125 331.773438 49.203125 331.835938 49.296875 331.839844 C 51.027344 332.03125 54.285156 332.578125 55.832031 333.988281 C 58.234375 336.175781 59.707031 339.066406 60.402344 340.667969 Z M 44.070312 328.039062 C 44.109375 328.121094 44.207031 328.15625 44.292969 328.121094 C 44.347656 328.09375 44.382812 328.042969 44.390625 327.980469 C 44.484375 326.851562 44.847656 324.738281 46.207031 323.25 C 47.148438 322.214844 48.324219 321.40625 49.632812 320.894531 C 49.71875 320.863281 49.761719 320.765625 49.722656 320.679688 C 49.699219 320.625 49.644531 320.582031 49.582031 320.578125 C 48.429688 320.464844 46.390625 320.148438 45.222656 319.183594 C 44.296875 318.425781 43.214844 316.296875 42.71875 315.253906 C 42.679688 315.167969 42.574219 315.132812 42.496094 315.171875 C 42.441406 315.195312 42.410156 315.246094 42.398438 315.308594 C 42.289062 316.476562 41.910156 318.925781 40.601562 320.171875 C 39.425781 321.289062 38.027344 321.992188 37.230469 322.335938 C 37.144531 322.375 37.109375 322.472656 37.148438 322.554688 C 37.171875 322.613281 37.222656 322.648438 37.277344 322.652344 C 38.34375 322.773438 40.328125 323.101562 41.277344 323.96875 C 42.742188 325.289062 43.644531 327.054688 44.070312 328.039062 Z M 40.855469 341.25 C 40.878906 341.304688 40.945312 341.332031 41.003906 341.308594 C 41.039062 341.292969 41.0625 341.257812 41.070312 341.210938 C 41.132812 340.460938 41.371094 339.0625 42.277344 338.070312 C 42.902344 337.386719 43.679688 336.847656 44.550781 336.503906 C 44.605469 336.476562 44.632812 336.421875 44.617188 336.363281 C 44.601562 336.320312 44.566406 336.296875 44.519531 336.296875 C 43.753906 336.222656 42.40625 336.007812 41.621094 335.367188 C 41.003906 334.867188 40.289062 333.449219 39.960938 332.761719 C 39.9375 332.703125 39.871094 332.6875 39.816406 332.710938 C 39.78125 332.726562 39.753906 332.757812 39.753906 332.796875 C 39.679688 333.574219 39.425781 335.199219 38.554688 336.027344 C 37.78125 336.769531 36.847656 337.230469 36.3125 337.460938 C 36.253906 337.488281 36.226562 337.554688 36.253906 337.609375 C 36.265625 337.644531 36.300781 337.667969 36.339844 337.675781 C 37.046875 337.753906 38.367188 337.972656 38.996094 338.550781 C 39.964844 339.429688 40.570312 340.597656 40.855469 341.25 Z M 40.855469 341.25 " fill-opacity="1" fill-rule="nonzero"/></g></g></g><g clip-path="url(#id19)"><g clip-path="url(#id20)"><g clip-path="url(#id21)"><path fill="rgb(38.819885%, 81.959534%, 61.959839%)" d="M 61.25 197.101562 L 34.4375 212.90625 L 77.054688 223.914062 L 119.675781 234.921875 L 103.867188 208.109375 L 88.0625 181.296875 Z M 61.25 197.101562 " fill-opacity="1" fill-rule="nonzero"/></g></g></g><g clip-path="url(#id22)"><path fill="rgb(93.328857%, 47.44873%, 73.728943%)" d="M 130.1875 296.878906 C 130.164062 296.882812 130.140625 296.886719 130.117188 296.894531 C 129.601562 297.054688 129.035156 297.125 128.507812 297.234375 C 127.375 297.476562 126.246094 297.714844 125.113281 297.957031 C 122.503906 298.511719 119.890625 299.066406 117.28125 299.621094 C 119.921875 301.261719 122.566406 302.902344 125.207031 304.542969 C 126.398438 305.28125 127.589844 306.019531 128.78125 306.761719 C 128.875 306.820312 128.925781 306.953125 128.859375 307.050781 C 127.726562 308.71875 126.59375 310.382812 125.460938 312.050781 C 125.398438 312.140625 125.273438 312.191406 125.171875 312.125 C 125.152344 312.113281 125.132812 312.097656 125.113281 312.085938 C 124.632812 311.832031 124.183594 311.484375 123.730469 311.1875 C 122.761719 310.558594 121.792969 309.929688 120.824219 309.300781 C 118.652344 307.890625 116.480469 306.476562 114.308594 305.066406 C 115.171875 308 116.035156 310.929688 116.898438 313.863281 C 117.292969 315.207031 117.691406 316.554688 118.085938 317.898438 C 118.121094 318.007812 118.050781 318.132812 117.941406 318.160156 C 115.984375 318.648438 114.03125 319.136719 112.078125 319.625 C 111.964844 319.65625 111.847656 319.589844 111.816406 319.480469 C 111.8125 319.457031 111.804688 319.433594 111.796875 319.410156 C 111.617188 318.898438 111.507812 318.34375 111.367188 317.820312 C 111.0625 316.707031 110.757812 315.589844 110.453125 314.476562 C 109.726562 311.808594 109 309.140625 108.273438 306.472656 C 106.769531 309.226562 105.269531 311.984375 103.765625 314.742188 C 103.097656 315.972656 102.425781 317.203125 101.753906 318.4375 C 101.699219 318.535156 101.558594 318.570312 101.464844 318.511719 C 99.734375 317.476562 98.007812 316.441406 96.28125 315.402344 C 96.183594 315.34375 96.148438 315.214844 96.207031 315.113281 C 96.21875 315.09375 96.230469 315.074219 96.242188 315.050781 C 96.476562 314.5625 96.789062 314.09375 97.058594 313.621094 C 97.632812 312.621094 98.207031 311.617188 98.78125 310.613281 C 100.3125 307.933594 101.84375 305.253906 103.375 302.574219 C 103.207031 302.609375 103.035156 302.648438 102.867188 302.683594 C 99.582031 303.378906 96.296875 304.078125 93.015625 304.777344 C 91.640625 305.066406 90.265625 305.359375 88.894531 305.652344 C 88.871094 305.65625 88.851562 305.652344 88.832031 305.652344 C 88.742188 305.660156 88.65625 305.617188 88.632812 305.503906 C 88.296875 303.8125 87.964844 302.117188 87.628906 300.425781 C 87.609375 300.316406 87.660156 300.191406 87.777344 300.164062 C 87.800781 300.160156 87.824219 300.15625 87.847656 300.148438 C 88.363281 299.980469 88.921875 299.898438 89.449219 299.773438 C 90.582031 299.507812 91.714844 299.246094 92.851562 298.980469 C 95.8125 298.285156 98.773438 297.59375 101.734375 296.898438 C 98.925781 295.074219 96.113281 293.25 93.304688 291.421875 C 92.125 290.65625 90.949219 289.894531 89.769531 289.128906 C 89.75 289.113281 89.734375 289.097656 89.71875 289.078125 C 89.660156 289.019531 89.632812 288.933594 89.695312 288.839844 C 90.652344 287.40625 91.613281 285.972656 92.574219 284.539062 C 92.636719 284.445312 92.761719 284.398438 92.863281 284.464844 C 92.882812 284.476562 92.902344 284.488281 92.925781 284.5 C 93.40625 284.746094 93.863281 285.082031 94.324219 285.367188 C 95.3125 285.980469 96.300781 286.597656 97.289062 287.210938 C 99.589844 288.640625 101.894531 290.066406 104.195312 291.496094 C 103.40625 288.601562 102.617188 285.707031 101.828125 282.8125 C 101.460938 281.457031 101.089844 280.101562 100.722656 278.746094 C 100.707031 278.695312 100.714844 278.652344 100.730469 278.613281 C 100.75 278.554688 100.792969 278.507812 100.867188 278.488281 C 102.539062 278.058594 104.210938 277.628906 105.882812 277.199219 C 105.992188 277.167969 106.109375 277.234375 106.140625 277.347656 C 106.148438 277.367188 106.152344 277.390625 106.160156 277.414062 C 106.351562 277.925781 106.472656 278.472656 106.625 278.992188 C 106.957031 280.109375 107.285156 281.226562 107.613281 282.34375 C 108.445312 285.164062 109.273438 287.984375 110.105469 290.804688 C 111.761719 287.910156 113.414062 285.019531 115.070312 282.125 C 115.765625 280.90625 116.464844 279.6875 117.160156 278.464844 C 117.191406 278.414062 117.234375 278.386719 117.277344 278.375 C 117.28125 278.371094 117.285156 278.371094 117.289062 278.371094 C 117.296875 278.367188 117.300781 278.367188 117.308594 278.367188 C 117.351562 278.359375 117.402344 278.359375 117.449219 278.390625 C 118.9375 279.269531 120.421875 280.144531 121.90625 281.023438 C 122.007812 281.082031 122.039062 281.210938 121.984375 281.3125 C 121.972656 281.335938 121.957031 281.355469 121.949219 281.375 C 121.722656 281.871094 121.421875 282.34375 121.160156 282.820312 C 120.605469 283.84375 120.046875 284.863281 119.488281 285.886719 C 118.0625 288.507812 116.632812 291.128906 115.207031 293.75 C 118.417969 292.996094 121.632812 292.246094 124.84375 291.492188 C 126.210938 291.175781 127.578125 290.855469 128.941406 290.535156 C 129.046875 290.511719 129.179688 290.566406 129.203125 290.683594 C 129.582031 292.660156 129.957031 294.640625 130.335938 296.617188 C 130.355469 296.726562 130.304688 296.855469 130.1875 296.878906 Z M 130.1875 296.878906 " fill-opacity="1" fill-rule="nonzero"/></g><g clip-path="url(#id23)"><path fill="rgb(100%, 100%, 100%)" d="M 182.035156 360.421875 C 176.738281 359.324219 171.304688 358.648438 165.886719 358.929688 C 164.433594 359.003906 162.984375 359.152344 161.546875 359.378906 C 158.753906 354.425781 154.714844 350.238281 149.855469 347.277344 C 145.242188 344.46875 139.96875 342.789062 134.585938 342.390625 C 131.488281 342.160156 128.367188 342.363281 125.324219 342.96875 C 125.230469 342.988281 125.179688 343.09375 125.203125 343.179688 C 125.566406 344.496094 125.929688 345.8125 126.292969 347.128906 C 126.316406 347.222656 126.410156 347.265625 126.5 347.246094 C 130.941406 346.363281 135.566406 346.550781 139.9375 347.730469 C 144.277344 348.90625 148.363281 351.0625 151.71875 354.066406 C 153.785156 355.914062 155.550781 358.074219 157.015625 360.429688 C 153.824219 361.417969 150.8125 362.929688 148.199219 365.023438 C 145.566406 367.132812 143.363281 369.78125 141.679688 372.703125 C 140.039062 375.546875 138.882812 378.675781 138.304688 381.910156 C 137.722656 385.179688 137.671875 388.636719 138.601562 391.851562 C 139.011719 393.261719 139.601562 394.652344 140.527344 395.804688 C 141.316406 396.785156 142.335938 397.566406 143.480469 398.089844 C 145.765625 399.132812 148.40625 399.167969 150.820312 398.601562 C 156.785156 397.195312 161.328125 392.195312 163.640625 386.714844 C 166.417969 380.128906 166.464844 372.632812 164.34375 365.855469 C 164.101562 365.082031 163.824219 364.316406 163.527344 363.558594 C 168.023438 363.058594 172.578125 363.320312 177.039062 364.007812 C 178.316406 364.203125 179.589844 364.4375 180.855469 364.699219 C 180.945312 364.714844 181.039062 364.671875 181.066406 364.578125 C 181.429688 363.261719 181.792969 361.945312 182.15625 360.628906 C 182.175781 360.546875 182.125 360.4375 182.035156 360.421875 Z M 160.980469 380.445312 C 160.140625 384.460938 158.347656 388.347656 155.328125 391.191406 C 154.039062 392.40625 152.496094 393.390625 150.847656 394.027344 C 149.242188 394.648438 147.375 394.992188 145.726562 394.332031 C 143.90625 393.605469 143.070312 391.847656 142.710938 390.027344 C 142.296875 387.929688 142.285156 385.703125 142.550781 383.585938 C 143.09375 379.246094 144.976562 375.046875 147.761719 371.675781 C 150.386719 368.5 153.839844 366.101562 157.746094 364.78125 C 158.1875 364.632812 158.632812 364.5 159.082031 364.378906 C 160.765625 368.277344 161.652344 372.539062 161.445312 376.789062 C 161.382812 378.019531 161.230469 379.238281 160.980469 380.445312 Z M 160.980469 380.445312 " fill-opacity="1" fill-rule="nonzero"/></g><g clip-path="url(#id24)"><path fill="rgb(93.328857%, 36.859131%, 25.099182%)" d="M 506.765625 334.195312 L 500.964844 326.9375 L 492.582031 330.964844 L 490.507812 321.914062 L 481.203125 321.914062 L 483.273438 312.863281 L 474.890625 308.835938 L 480.691406 301.578125 L 474.890625 294.320312 L 483.273438 290.292969 L 481.203125 281.242188 L 490.507812 281.242188 L 492.582031 272.195312 L 500.964844 276.222656 L 506.765625 268.964844 L 512.566406 276.222656 L 520.953125 272.195312 L 523.023438 281.242188 L 532.328125 281.242188 L 530.257812 290.292969 L 538.640625 294.320312 L 532.839844 301.578125 L 538.640625 308.835938 L 530.257812 312.863281 L 532.328125 321.914062 L 523.023438 321.914062 L 520.953125 330.964844 L 512.566406 326.9375 Z M 506.765625 334.195312 " fill-opacity="1" fill-rule="nonzero"/></g><g clip-path="url(#id25)"><g clip-path="url(#id26)"><g clip-path="url(#id27)"><g clip-path="url(#id28)"><path fill="rgb(100%, 78.819275%, 39.99939%)" d="M 485.019531 234.722656 C 473.492188 215.550781 479.828125 190.585938 499.175781 178.953125 C 518.523438 167.320312 543.484375 173.46875 555.011719 192.640625 Z M 485.019531 234.722656 " fill-opacity="1" fill-rule="nonzero"/></g></g></g></g><g clip-path="url(#id29)"><g clip-path="url(#id30)"><g clip-path="url(#id31)"><g clip-path="url(#id32)"><path fill="rgb(90.979004%, 52.549744%, 51.759338%)" d="M 565.222656 330.847656 C 571.570312 342.253906 567.464844 356.675781 556.058594 363.023438 C 544.652344 369.371094 530.230469 365.261719 523.882812 353.855469 L 515.066406 358.761719 C 524.132812 375.050781 544.679688 380.90625 560.964844 371.84375 C 577.253906 362.777344 583.054688 342.257812 573.988281 325.96875 Z M 565.222656 330.847656 " fill-opacity="1" fill-rule="nonzero"/></g></g></g></g><g clip-path="url(#id33)"><g clip-path="url(#id34)"><g clip-path="url(#id35)"><g clip-path="url(#id36)"><path fill="rgb(100%, 58.428955%, 27.059937%)" d="M 586.199219 -15.703125 C 574.679688 -1.355469 561.082031 11.046875 547.761719 23.652344 C 543.945312 27.257812 540.152344 30.894531 536.4375 34.621094 C 535.496094 35.550781 535.066406 37.292969 535.203125 38.570312 C 535.339844 39.847656 536.03125 41.351562 537.074219 42.148438 C 538.1875 43.015625 539.601562 43.609375 541.042969 43.398438 C 542.480469 43.203125 543.605469 42.582031 544.628906 41.554688 C 557.601562 28.578125 571.570312 16.574219 584.089844 3.109375 C 587.660156 -0.71875 591.097656 -4.675781 594.371094 -8.730469 C 596.121094 -10.910156 596.082031 -14.449219 593.742188 -16.269531 C 591.507812 -18.023438 588.054688 -18.027344 586.199219 -15.703125 Z M 586.199219 -15.703125 " fill-opacity="1" fill-rule="nonzero"/></g></g></g></g><g clip-path="url(#id37)"><g clip-path="url(#id38)"><g clip-path="url(#id39)"><path fill="rgb(7.839966%, 31.369019%, 61.959839%)" d="M 542.835938 149.386719 C 543.417969 148.9375 546.089844 147.078125 547.121094 146.503906 C 547.933594 146.050781 549.59375 145.472656 551.007812 145.640625 C 552.539062 145.824219 553.710938 146.839844 554.167969 147.214844 C 555.21875 148.113281 556.316406 148.953125 557.460938 149.730469 C 558.742188 150.574219 560.132812 151.175781 561.628906 151.539062 C 563.128906 151.898438 564.644531 152 566.175781 151.835938 C 569.414062 151.449219 572.207031 149.992188 574.839844 148.15625 C 575.847656 147.453125 576.832031 146.71875 577.863281 146.042969 C 578.691406 145.546875 579.566406 145.144531 580.484375 144.847656 C 581.664062 144.585938 582.847656 144.578125 584.027344 144.820312 C 586.242188 145.46875 588.671875 147.355469 589.054688 147.703125 C 591.378906 149.808594 595.433594 149.964844 597.613281 147.519531 C 599.742188 145.140625 599.917969 141.367188 597.433594 139.105469 C 594.070312 136.0625 590.320312 133.585938 585.558594 132.773438 C 582.5 132.234375 579.5 132.445312 576.554688 133.410156 C 574.175781 134.21875 572.0625 135.511719 570.035156 136.945312 C 569.179688 137.546875 568.332031 138.164062 567.46875 138.742188 C 567.042969 139.015625 565.675781 139.78125 564.753906 139.730469 C 563.828125 139.683594 562.554688 138.613281 562.214844 138.324219 C 561.203125 137.460938 560.136719 136.664062 559.023438 135.933594 C 556.632812 134.449219 554.023438 133.683594 551.195312 133.632812 C 544.765625 133.40625 538.359375 136.835938 533.921875 141.382812 C 531.734375 143.625 531.699219 147.710938 534.101562 149.796875 C 536.625 151.960938 541.121094 150.71875 542.835938 149.386719 Z M 542.835938 149.386719 " fill-opacity="1" fill-rule="nonzero"/></g></g></g><g clip-path="url(#id40)"><path fill="rgb(100%, 100%, 100%)" d="M 456.816406 374.570312 C 456.855469 374.71875 456.996094 374.808594 457.148438 374.773438 C 457.246094 374.75 457.328125 374.667969 457.351562 374.570312 C 457.828125 372.785156 459.015625 369.488281 461.625 367.46875 C 463.4375 366.070312 465.5625 365.101562 467.8125 364.648438 C 467.960938 364.621094 468.058594 364.476562 468.027344 364.328125 C 468.007812 364.226562 467.929688 364.152344 467.832031 364.121094 C 466.003906 363.613281 462.824219 362.503906 461.210938 360.621094 C 459.9375 359.132812 458.804688 355.40625 458.308594 353.582031 C 458.265625 353.441406 458.113281 353.351562 457.972656 353.394531 C 457.882812 353.417969 457.808594 353.492188 457.785156 353.582031 C 457.273438 355.433594 455.953125 359.269531 453.488281 360.898438 C 451.28125 362.355469 448.832031 363.085938 447.441406 363.414062 C 447.292969 363.449219 447.210938 363.601562 447.25 363.75 C 447.269531 363.835938 447.339844 363.914062 447.429688 363.933594 C 449.101562 364.425781 452.210938 365.535156 453.488281 367.195312 C 455.46875 369.769531 456.414062 372.875 456.816406 374.570312 Z M 442.953125 359.273438 C 442.972656 359.363281 443.0625 359.417969 443.152344 359.394531 C 443.214844 359.378906 443.257812 359.335938 443.273438 359.273438 C 443.566406 358.179688 444.292969 356.164062 445.890625 354.9375 C 447 354.078125 448.296875 353.492188 449.679688 353.214844 C 449.769531 353.203125 449.828125 353.113281 449.804688 353.023438 C 449.789062 352.964844 449.746094 352.910156 449.6875 352.894531 C 448.566406 352.582031 446.617188 351.914062 445.636719 350.761719 C 444.855469 349.851562 444.167969 347.566406 443.859375 346.449219 C 443.835938 346.359375 443.738281 346.308594 443.65625 346.332031 C 443.597656 346.347656 443.558594 346.390625 443.535156 346.449219 C 443.222656 347.582031 442.417969 349.925781 440.910156 350.925781 C 439.5625 351.816406 438.0625 352.261719 437.214844 352.464844 C 437.125 352.488281 437.070312 352.578125 437.09375 352.664062 C 437.109375 352.726562 437.15625 352.769531 437.207031 352.785156 C 438.234375 353.089844 440.132812 353.757812 440.910156 354.78125 C 442.125 356.335938 442.703125 358.234375 442.953125 359.273438 Z M 437.46875 371.71875 C 437.484375 371.78125 437.542969 371.816406 437.605469 371.800781 C 437.640625 371.792969 437.671875 371.765625 437.6875 371.71875 C 437.882812 370.992188 438.363281 369.660156 439.425781 368.839844 C 440.160156 368.273438 441.023438 367.878906 441.9375 367.695312 C 442 367.679688 442.035156 367.625 442.027344 367.566406 C 442.019531 367.523438 441.992188 367.492188 441.945312 367.484375 C 441.203125 367.277344 439.914062 366.828125 439.253906 366.0625 C 438.738281 365.460938 438.277344 363.941406 438.078125 363.207031 C 438.0625 363.144531 438 363.117188 437.941406 363.128906 C 437.90625 363.136719 437.875 363.167969 437.867188 363.207031 C 437.65625 363.957031 437.125 365.511719 436.121094 366.175781 C 435.226562 366.769531 434.230469 367.0625 433.660156 367.195312 C 433.601562 367.210938 433.5625 367.269531 433.578125 367.328125 C 433.585938 367.367188 433.613281 367.394531 433.652344 367.410156 C 434.335938 367.613281 435.59375 368.058594 436.113281 368.734375 C 436.914062 369.769531 437.304688 371.027344 437.46875 371.71875 Z M 437.46875 371.71875 " fill-opacity="1" fill-rule="nonzero"/></g><g clip-path="url(#id41)"><g clip-path="url(#id42)"><g clip-path="url(#id43)"><path fill="rgb(100%, 100%, 100%)" d="M 557.527344 58.582031 C 557.464844 58.441406 557.308594 58.378906 557.167969 58.441406 C 557.078125 58.480469 557.007812 58.578125 557.003906 58.675781 C 556.84375 60.519531 556.253906 63.972656 554.039062 66.417969 C 552.5 68.113281 550.578125 69.4375 548.441406 70.277344 C 548.300781 70.332031 548.230469 70.488281 548.285156 70.632812 C 548.324219 70.730469 548.414062 70.789062 548.511719 70.800781 C 550.402344 70.980469 553.726562 71.515625 555.644531 73.085938 C 557.160156 74.328125 558.929688 77.800781 559.738281 79.511719 C 559.804688 79.640625 559.96875 79.703125 560.101562 79.632812 C 560.1875 79.597656 560.246094 79.507812 560.253906 79.417969 C 560.429688 77.503906 561.058594 73.5 563.203125 71.460938 C 565.117188 69.640625 567.402344 68.492188 568.710938 67.925781 C 568.851562 67.863281 568.910156 67.703125 568.84375 67.5625 C 568.808594 67.476562 568.726562 67.417969 568.636719 67.410156 C 566.902344 67.21875 563.644531 66.671875 562.097656 65.261719 C 559.699219 63.074219 558.222656 60.183594 557.527344 58.582031 Z M 573.859375 71.210938 C 573.820312 71.128906 573.722656 71.09375 573.640625 71.132812 C 573.582031 71.15625 573.546875 71.207031 573.542969 71.269531 C 573.445312 72.398438 573.082031 74.511719 571.726562 76 C 570.785156 77.039062 569.609375 77.84375 568.296875 78.355469 C 568.210938 78.386719 568.167969 78.484375 568.207031 78.570312 C 568.230469 78.625 568.285156 78.667969 568.347656 78.671875 C 569.503906 78.785156 571.539062 79.101562 572.707031 80.066406 C 573.636719 80.824219 574.714844 82.953125 575.214844 84 C 575.25 84.082031 575.355469 84.117188 575.433594 84.078125 C 575.492188 84.054688 575.519531 84.003906 575.53125 83.941406 C 575.644531 82.773438 576.023438 80.324219 577.332031 79.078125 C 578.503906 77.960938 579.902344 77.257812 580.703125 76.914062 C 580.785156 76.875 580.820312 76.777344 580.785156 76.695312 C 580.757812 76.636719 580.707031 76.601562 580.652344 76.597656 C 579.585938 76.476562 577.601562 76.148438 576.65625 75.28125 C 575.1875 73.960938 574.285156 72.195312 573.859375 71.210938 Z M 577.078125 58 C 577.050781 57.945312 576.984375 57.917969 576.929688 57.941406 C 576.894531 57.957031 576.871094 57.992188 576.863281 58.039062 C 576.796875 58.789062 576.558594 60.1875 575.652344 61.179688 C 575.03125 61.863281 574.25 62.402344 573.382812 62.746094 C 573.324219 62.773438 573.296875 62.832031 573.316406 62.886719 C 573.332031 62.929688 573.367188 62.953125 573.410156 62.953125 C 574.179688 63.027344 575.527344 63.242188 576.308594 63.882812 C 576.925781 64.386719 577.640625 65.800781 577.96875 66.488281 C 577.996094 66.546875 578.058594 66.5625 578.117188 66.539062 C 578.152344 66.523438 578.175781 66.492188 578.175781 66.453125 C 578.253906 65.675781 578.503906 64.050781 579.378906 63.222656 C 580.152344 62.480469 581.082031 62.019531 581.621094 61.789062 C 581.675781 61.761719 581.703125 61.699219 581.679688 61.640625 C 581.664062 61.605469 581.628906 61.582031 581.589844 61.574219 C 580.882812 61.496094 579.5625 61.277344 578.9375 60.699219 C 577.964844 59.824219 577.359375 58.652344 577.078125 58 Z M 577.078125 58 " fill-opacity="1" fill-rule="nonzero"/></g></g></g><g clip-path="url(#id44)"><g clip-path="url(#id45)"><g clip-path="url(#id46)"><path fill="rgb(38.819885%, 81.959534%, 61.959839%)" d="M 561.753906 247.183594 L 570.640625 277.011719 L 591.582031 238.296875 L 612.523438 199.578125 L 582.695312 208.464844 L 552.863281 217.355469 Z M 561.753906 247.183594 " fill-opacity="1" fill-rule="nonzero"/></g></g></g><g clip-path="url(#id47)"><path fill="rgb(93.328857%, 47.44873%, 73.728943%)" d="M 482.515625 97.46875 C 482.542969 97.464844 482.570312 97.460938 482.597656 97.453125 C 483.1875 97.269531 483.832031 97.191406 484.433594 97.0625 C 485.722656 96.789062 487.011719 96.515625 488.300781 96.242188 C 491.277344 95.609375 494.257812 94.976562 497.234375 94.34375 C 494.222656 92.472656 491.210938 90.601562 488.195312 88.734375 C 486.835938 87.890625 485.476562 87.046875 484.117188 86.199219 C 484.015625 86.136719 483.957031 85.980469 484.03125 85.871094 C 485.324219 83.972656 486.613281 82.070312 487.90625 80.171875 C 487.976562 80.066406 488.121094 80.011719 488.234375 80.085938 C 488.257812 80.101562 488.28125 80.117188 488.304688 80.128906 C 488.851562 80.417969 489.363281 80.816406 489.878906 81.152344 C 490.984375 81.871094 492.089844 82.589844 493.195312 83.304688 C 495.671875 84.914062 498.148438 86.523438 500.625 88.132812 C 499.640625 84.789062 498.65625 81.445312 497.671875 78.101562 C 497.21875 76.570312 496.765625 75.035156 496.316406 73.5 C 496.277344 73.375 496.359375 73.234375 496.484375 73.203125 C 498.710938 72.644531 500.941406 72.085938 503.167969 71.53125 C 503.296875 71.5 503.429688 71.570312 503.464844 71.699219 C 503.472656 71.726562 503.476562 71.753906 503.488281 71.777344 C 503.695312 72.363281 503.816406 72.992188 503.980469 73.589844 C 504.328125 74.859375 504.671875 76.132812 505.019531 77.402344 C 505.847656 80.445312 506.679688 83.488281 507.507812 86.53125 C 509.21875 83.390625 510.933594 80.246094 512.644531 77.101562 C 513.410156 75.699219 514.175781 74.292969 514.941406 72.886719 C 515.003906 72.773438 515.164062 72.734375 515.273438 72.800781 C 517.242188 73.984375 519.210938 75.164062 521.183594 76.347656 C 521.292969 76.414062 521.332031 76.5625 521.269531 76.675781 C 521.253906 76.699219 521.238281 76.722656 521.226562 76.746094 C 520.960938 77.304688 520.601562 77.839844 520.296875 78.375 C 519.640625 79.519531 518.988281 80.664062 518.332031 81.808594 C 516.585938 84.863281 514.839844 87.921875 513.089844 90.976562 C 513.285156 90.933594 513.476562 90.894531 513.671875 90.851562 C 517.417969 90.058594 521.160156 89.261719 524.90625 88.464844 C 526.472656 88.132812 528.039062 87.800781 529.605469 87.46875 C 529.632812 87.460938 529.65625 87.464844 529.675781 87.464844 C 529.777344 87.457031 529.878906 87.503906 529.902344 87.636719 C 530.285156 89.566406 530.667969 91.496094 531.046875 93.425781 C 531.074219 93.550781 531.011719 93.691406 530.878906 93.722656 C 530.851562 93.730469 530.824219 93.734375 530.800781 93.742188 C 530.214844 93.933594 529.574219 94.027344 528.972656 94.167969 C 527.679688 94.472656 526.386719 94.773438 525.09375 95.074219 C 521.71875 95.867188 518.339844 96.65625 514.964844 97.445312 C 518.167969 99.527344 521.375 101.609375 524.578125 103.691406 C 525.921875 104.566406 527.265625 105.4375 528.609375 106.308594 C 528.632812 106.324219 528.648438 106.34375 528.664062 106.363281 C 528.734375 106.433594 528.765625 106.53125 528.695312 106.640625 C 527.597656 108.273438 526.503906 109.910156 525.410156 111.542969 C 525.335938 111.648438 525.195312 111.699219 525.078125 111.628906 C 525.054688 111.613281 525.03125 111.597656 525.007812 111.585938 C 524.457031 111.304688 523.941406 110.921875 523.414062 110.597656 C 522.289062 109.898438 521.160156 109.195312 520.03125 108.496094 C 517.40625 106.867188 514.78125 105.238281 512.160156 103.609375 C 513.058594 106.910156 513.957031 110.210938 514.855469 113.511719 C 515.277344 115.058594 515.699219 116.601562 516.117188 118.148438 C 516.136719 118.207031 516.125 118.257812 516.105469 118.300781 C 516.085938 118.363281 516.039062 118.421875 515.949219 118.445312 C 514.046875 118.933594 512.140625 119.425781 510.234375 119.914062 C 510.105469 119.945312 509.976562 119.871094 509.9375 119.746094 C 509.929688 119.71875 509.921875 119.691406 509.914062 119.667969 C 509.699219 119.085938 509.558594 118.460938 509.382812 117.867188 C 509.007812 116.59375 508.632812 115.320312 508.257812 114.046875 C 507.3125 110.832031 506.363281 107.613281 505.417969 104.398438 C 503.53125 107.695312 501.644531 110.996094 499.757812 114.296875 C 498.960938 115.6875 498.167969 117.078125 497.371094 118.46875 C 497.335938 118.527344 497.289062 118.558594 497.238281 118.574219 C 497.234375 118.574219 497.230469 118.578125 497.226562 118.578125 C 497.21875 118.578125 497.210938 118.578125 497.203125 118.582031 C 497.152344 118.589844 497.097656 118.585938 497.042969 118.554688 C 495.347656 117.554688 493.652344 116.550781 491.960938 115.550781 C 491.84375 115.484375 491.8125 115.335938 491.875 115.222656 C 491.886719 115.195312 491.902344 115.171875 491.914062 115.148438 C 492.171875 114.585938 492.511719 114.046875 492.808594 113.503906 C 493.445312 112.335938 494.082031 111.171875 494.714844 110.003906 C 496.34375 107.015625 497.972656 104.027344 499.601562 101.039062 C 495.9375 101.898438 492.273438 102.753906 488.609375 103.613281 C 487.050781 103.976562 485.496094 104.339844 483.9375 104.707031 C 483.816406 104.734375 483.664062 104.667969 483.640625 104.535156 C 483.210938 102.28125 482.777344 100.023438 482.347656 97.765625 C 482.324219 97.644531 482.382812 97.5 482.515625 97.46875 Z M 482.515625 97.46875 " fill-opacity="1" fill-rule="nonzero"/></g><g clip-path="url(#id48)"><path fill="rgb(100%, 100%, 100%)" d="M 453.910156 29.621094 C 459.207031 30.714844 464.640625 31.390625 470.054688 31.113281 C 471.507812 31.039062 472.957031 30.886719 474.394531 30.660156 C 477.191406 35.617188 481.226562 39.800781 486.089844 42.761719 C 490.699219 45.570312 495.972656 47.25 501.355469 47.648438 C 504.453125 47.878906 507.574219 47.679688 510.621094 47.070312 C 510.710938 47.050781 510.761719 46.945312 510.738281 46.859375 C 510.378906 45.542969 510.015625 44.226562 509.652344 42.914062 C 509.625 42.820312 509.53125 42.773438 509.441406 42.792969 C 505 43.679688 500.375 43.492188 496.007812 42.308594 C 491.664062 41.132812 487.582031 38.976562 484.226562 35.972656 C 482.160156 34.125 480.390625 31.964844 478.929688 29.613281 C 482.117188 28.621094 485.128906 27.109375 487.742188 25.015625 C 490.375 22.90625 492.582031 20.257812 494.265625 17.339844 C 495.90625 14.492188 497.0625 11.367188 497.636719 8.132812 C 498.222656 4.859375 498.273438 1.402344 497.339844 -1.8125 C 496.929688 -3.222656 496.34375 -4.609375 495.417969 -5.761719 C 494.628906 -6.742188 493.609375 -7.527344 492.464844 -8.046875 C 490.175781 -9.089844 487.539062 -9.128906 485.121094 -8.558594 C 479.15625 -7.15625 474.617188 -2.15625 472.304688 3.324219 C 469.523438 9.910156 469.480469 17.40625 471.601562 24.183594 C 471.84375 24.960938 472.117188 25.726562 472.414062 26.480469 C 467.921875 26.980469 463.363281 26.71875 458.902344 26.035156 C 457.625 25.835938 456.355469 25.605469 455.085938 25.34375 C 454.996094 25.324219 454.902344 25.367188 454.878906 25.460938 C 454.515625 26.777344 454.152344 28.09375 453.789062 29.410156 C 453.765625 29.496094 453.816406 29.601562 453.910156 29.621094 Z M 474.960938 9.597656 C 475.804688 5.582031 477.597656 1.691406 480.617188 -1.152344 C 481.90625 -2.363281 483.445312 -3.347656 485.097656 -3.988281 C 486.703125 -4.609375 488.570312 -4.953125 490.21875 -4.292969 C 492.039062 -3.566406 492.871094 -1.808594 493.230469 0.0117188 C 493.644531 2.109375 493.660156 4.335938 493.394531 6.453125 C 492.847656 10.796875 490.96875 14.996094 488.183594 18.363281 C 485.554688 21.539062 482.105469 23.9375 478.195312 25.257812 C 477.757812 25.40625 477.3125 25.539062 476.863281 25.664062 C 475.179688 21.765625 474.289062 17.503906 474.5 13.25 C 474.558594 12.023438 474.714844 10.800781 474.960938 9.597656 Z M 474.960938 9.597656 " fill-opacity="1" fill-rule="nonzero"/></g><g clip-path="url(#id49)"><path fill="rgb(91.369629%, 9.799194%, 52.938843%)" d="M 401.636719 127.261719 L 305.761719 127.261719 C 305.035156 127.265625 304.316406 127.335938 303.605469 127.480469 C 302.894531 127.621094 302.203125 127.832031 301.53125 128.113281 C 300.863281 128.390625 300.226562 128.734375 299.625 129.136719 C 299.019531 129.539062 298.460938 130 297.949219 130.511719 C 297.433594 131.023438 296.976562 131.582031 296.574219 132.1875 C 296.167969 132.789062 295.828125 133.425781 295.550781 134.097656 C 295.269531 134.765625 295.058594 135.457031 294.917969 136.167969 C 294.773438 136.878906 294.699219 137.597656 294.699219 138.324219 L 294.699219 208.386719 C 294.699219 209.113281 294.773438 209.832031 294.917969 210.542969 C 295.058594 211.253906 295.269531 211.945312 295.550781 212.617188 C 295.828125 213.285156 296.167969 213.921875 296.574219 214.523438 C 296.976562 215.128906 297.433594 215.6875 297.949219 216.199219 C 298.460938 216.714844 299.019531 217.171875 299.625 217.574219 C 300.226562 217.980469 300.863281 218.320312 301.53125 218.597656 C 302.203125 218.878906 302.894531 219.089844 303.605469 219.230469 C 304.316406 219.375 305.035156 219.449219 305.761719 219.449219 L 340.792969 219.449219 L 340.792969 223.984375 C 339.863281 224.28125 338.964844 224.644531 338.09375 225.082031 C 337.222656 225.519531 336.390625 226.019531 335.601562 226.589844 C 334.808594 227.15625 334.066406 227.78125 333.375 228.46875 C 332.679688 229.152344 332.046875 229.890625 331.46875 230.675781 C 330.894531 231.460938 330.382812 232.285156 329.9375 233.152344 C 329.492188 234.019531 329.117188 234.914062 328.8125 235.839844 C 328.507812 236.765625 328.277344 237.707031 328.121094 238.671875 C 327.96875 239.632812 327.890625 240.601562 327.886719 241.574219 C 327.882812 240.847656 327.8125 240.128906 327.667969 239.417969 C 327.523438 238.707031 327.3125 238.015625 327.035156 237.347656 C 326.757812 236.675781 326.414062 236.039062 326.011719 235.4375 C 325.609375 234.832031 325.148438 234.273438 324.636719 233.761719 C 324.125 233.25 323.566406 232.789062 322.960938 232.386719 C 322.359375 231.984375 321.722656 231.640625 321.050781 231.363281 C 320.382812 231.082031 319.691406 230.871094 318.980469 230.730469 C 318.269531 230.585938 317.550781 230.515625 316.824219 230.511719 L 297.722656 230.511719 C 290.972656 213.164062 241.527344 230.847656 233.375 233.941406 C 233.121094 234.03125 232.859375 234.09375 232.59375 234.128906 C 232.324219 234.164062 232.058594 234.167969 231.789062 234.148438 C 231.519531 234.125 231.257812 234.074219 231 233.996094 C 230.738281 233.914062 230.492188 233.808594 230.257812 233.679688 C 230.023438 233.546875 229.804688 233.390625 229.601562 233.210938 C 229.398438 233.035156 229.21875 232.835938 229.058594 232.617188 C 228.898438 232.402344 228.761719 232.167969 228.652344 231.921875 C 228.542969 231.675781 228.460938 231.421875 228.402344 231.15625 C 228.347656 230.894531 228.320312 230.628906 228.324219 230.355469 C 228.324219 230.085938 228.355469 229.820312 228.414062 229.558594 C 228.46875 229.292969 228.554688 229.039062 228.667969 228.792969 C 228.78125 228.550781 228.917969 228.320312 229.082031 228.101562 C 229.242188 227.886719 229.425781 227.691406 229.628906 227.515625 C 229.835938 227.339844 230.054688 227.1875 230.292969 227.054688 C 230.527344 226.925781 230.777344 226.824219 231.035156 226.746094 C 231.292969 226.671875 231.558594 226.625 231.828125 226.601562 C 231.507812 222.125 230.464844 217.824219 228.691406 213.695312 C 228.492188 213.261719 228.382812 212.804688 228.359375 212.324219 C 228.335938 211.847656 228.40625 211.378906 228.566406 210.929688 C 228.722656 210.476562 228.960938 210.070312 229.28125 209.710938 C 229.597656 209.351562 229.972656 209.066406 230.402344 208.851562 C 230.828125 208.640625 231.285156 208.515625 231.761719 208.476562 C 232.238281 208.441406 232.707031 208.496094 233.164062 208.640625 C 233.621094 208.789062 234.03125 209.015625 234.402344 209.320312 C 234.769531 209.628906 235.066406 209.992188 235.292969 210.414062 C 237.265625 214.761719 238.507812 219.3125 239.019531 224.058594 C 245.175781 221.90625 273.890625 213.273438 290.347656 216.609375 C 286.992188 195.074219 277.074219 182.316406 261.511719 179.367188 L 261.511719 175.785156 C 297.59375 159.558594 286.847656 105.765625 246.761719 105.136719 C 206.667969 105.769531 195.933594 159.566406 232.011719 175.785156 L 232.011719 179.917969 C 206.78125 185.523438 196.878906 212.09375 201.921875 241.609375 C 201.214844 241.65625 200.519531 241.769531 199.832031 241.949219 C 199.148438 242.128906 198.484375 242.371094 197.847656 242.675781 C 197.207031 242.984375 196.601562 243.347656 196.035156 243.769531 C 195.464844 244.191406 194.941406 244.667969 194.464844 245.1875 C 193.988281 245.710938 193.5625 246.277344 193.195312 246.882812 C 192.824219 247.484375 192.515625 248.121094 192.269531 248.785156 C 192.019531 249.449219 191.839844 250.128906 191.722656 250.828125 C 191.605469 251.527344 191.558594 252.230469 191.578125 252.941406 C 191.59375 253.648438 191.683594 254.347656 191.835938 255.039062 C 191.988281 255.730469 192.207031 256.402344 192.488281 257.050781 C 192.773438 257.703125 193.113281 258.320312 193.515625 258.902344 C 193.917969 259.488281 194.371094 260.027344 194.875 260.523438 C 195.378906 261.023438 195.925781 261.464844 196.519531 261.859375 C 197.109375 262.25 197.730469 262.582031 198.386719 262.851562 C 199.039062 263.125 199.714844 263.332031 200.40625 263.476562 C 201.101562 263.617188 201.804688 263.691406 202.511719 263.699219 L 401.636719 263.699219 C 402.359375 263.691406 403.074219 263.617188 403.78125 263.46875 C 404.484375 263.320312 405.171875 263.109375 405.835938 262.828125 C 406.503906 262.546875 407.132812 262.203125 407.730469 261.796875 C 408.328125 261.394531 408.882812 260.933594 409.390625 260.421875 C 409.898438 259.910156 410.351562 259.351562 410.75 258.75 C 411.148438 258.148438 411.484375 257.511719 411.761719 256.847656 C 412.035156 256.179688 412.242188 255.492188 412.382812 254.78125 C 412.523438 254.074219 412.59375 253.359375 412.59375 252.636719 C 412.59375 251.914062 412.523438 251.199219 412.382812 250.492188 C 412.242188 249.785156 412.035156 249.09375 411.761719 248.429688 C 411.484375 247.761719 411.148438 247.125 410.75 246.523438 C 410.351562 245.921875 409.898438 245.363281 409.390625 244.851562 C 408.882812 244.339844 408.328125 243.878906 407.730469 243.476562 C 407.132812 243.070312 406.5 242.726562 405.835938 242.445312 C 405.171875 242.164062 404.484375 241.953125 403.777344 241.804688 C 403.074219 241.660156 402.359375 241.582031 401.636719 241.574219 L 379.511719 241.574219 C 379.507812 240.601562 379.429688 239.632812 379.273438 238.671875 C 379.121094 237.707031 378.890625 236.765625 378.585938 235.839844 C 378.28125 234.914062 377.90625 234.019531 377.460938 233.152344 C 377.015625 232.285156 376.503906 231.460938 375.925781 230.675781 C 375.351562 229.890625 374.71875 229.152344 374.023438 228.46875 C 373.332031 227.78125 372.589844 227.15625 371.796875 226.589844 C 371.007812 226.019531 370.175781 225.519531 369.304688 225.082031 C 368.433594 224.644531 367.535156 224.28125 366.605469 223.984375 L 366.605469 219.449219 L 401.636719 219.449219 C 402.363281 219.449219 403.082031 219.375 403.792969 219.230469 C 404.503906 219.089844 405.195312 218.878906 405.863281 218.597656 C 406.535156 218.320312 407.171875 217.980469 407.773438 217.574219 C 408.378906 217.171875 408.9375 216.714844 409.449219 216.199219 C 409.960938 215.6875 410.421875 215.128906 410.824219 214.523438 C 411.226562 213.921875 411.570312 213.285156 411.847656 212.617188 C 412.125 211.945312 412.335938 211.253906 412.480469 210.542969 C 412.625 209.832031 412.695312 209.113281 412.699219 208.386719 L 412.699219 138.324219 C 412.695312 137.597656 412.625 136.878906 412.480469 136.167969 C 412.335938 135.457031 412.128906 134.765625 411.847656 134.097656 C 411.570312 133.425781 411.226562 132.789062 410.824219 132.1875 C 410.421875 131.582031 409.960938 131.023438 409.449219 130.511719 C 408.9375 130 408.378906 129.539062 407.773438 129.136719 C 407.171875 128.734375 406.535156 128.390625 405.863281 128.113281 C 405.195312 127.832031 404.503906 127.621094 403.792969 127.480469 C 403.082031 127.335938 402.363281 127.265625 401.636719 127.261719 Z M 254.136719 182.574219 C 254.132812 183.046875 254.082031 183.511719 253.988281 183.972656 C 253.894531 184.4375 253.757812 184.886719 253.578125 185.320312 C 253.398438 185.757812 253.175781 186.171875 252.917969 186.566406 C 252.65625 186.957031 252.363281 187.324219 252.03125 187.660156 C 251.703125 187.996094 251.34375 188.300781 250.957031 188.566406 C 250.570312 188.835938 250.160156 189.0625 249.726562 189.253906 C 249.296875 189.441406 248.847656 189.585938 248.390625 189.691406 C 247.929688 189.796875 247.464844 189.855469 246.992188 189.867188 C 246.519531 189.882812 246.054688 189.851562 245.585938 189.777344 C 245.121094 189.699219 244.667969 189.582031 244.226562 189.417969 C 243.785156 189.253906 243.359375 189.050781 242.957031 188.808594 C 242.554688 188.5625 242.179688 188.28125 241.828125 187.964844 C 241.480469 187.648438 241.164062 187.304688 240.878906 186.925781 C 240.597656 186.550781 240.351562 186.148438 240.144531 185.726562 C 239.941406 185.300781 239.777344 184.859375 239.65625 184.40625 C 239.53125 183.949219 239.457031 183.488281 239.421875 183.015625 C 239.34375 182.617188 239.40625 179.378906 239.386719 178.886719 L 254.136719 178.886719 Z M 217.261719 142.011719 C 217.261719 141.046875 217.3125 140.082031 217.40625 139.121094 C 217.503906 138.160156 217.644531 137.207031 217.832031 136.257812 C 218.023438 135.3125 218.257812 134.375 218.539062 133.453125 C 218.820312 132.527344 219.144531 131.621094 219.515625 130.726562 C 219.886719 129.835938 220.300781 128.964844 220.753906 128.113281 C 221.210938 127.261719 221.707031 126.433594 222.242188 125.628906 C 222.78125 124.828125 223.355469 124.054688 223.96875 123.304688 C 224.582031 122.558594 225.230469 121.84375 225.910156 121.164062 C 226.59375 120.480469 227.308594 119.832031 228.054688 119.21875 C 228.800781 118.605469 229.578125 118.03125 230.378906 117.492188 C 231.183594 116.957031 232.011719 116.460938 232.863281 116.003906 C 233.714844 115.550781 234.585938 115.136719 235.476562 114.765625 C 236.371094 114.394531 237.277344 114.070312 238.203125 113.789062 C 239.125 113.507812 240.0625 113.273438 241.007812 113.085938 C 241.957031 112.894531 242.910156 112.753906 243.871094 112.65625 C 244.832031 112.5625 245.796875 112.511719 246.761719 112.511719 C 285.898438 114.132812 285.886719 169.898438 246.761719 171.511719 C 245.796875 171.511719 244.832031 171.460938 243.871094 171.367188 C 242.910156 171.269531 241.957031 171.128906 241.007812 170.941406 C 240.0625 170.75 239.125 170.515625 238.203125 170.234375 C 237.277344 169.953125 236.371094 169.628906 235.476562 169.257812 C 234.585938 168.886719 233.714844 168.472656 232.863281 168.019531 C 232.011719 167.5625 231.183594 167.066406 230.378906 166.53125 C 229.578125 165.992188 228.800781 165.417969 228.054688 164.804688 C 227.308594 164.191406 226.59375 163.542969 225.910156 162.863281 C 225.230469 162.179688 224.582031 161.464844 223.96875 160.71875 C 223.355469 159.972656 222.78125 159.195312 222.242188 158.394531 C 221.707031 157.589844 221.210938 156.761719 220.753906 155.910156 C 220.300781 155.058594 219.886719 154.1875 219.515625 153.296875 C 219.144531 152.402344 218.820312 151.496094 218.539062 150.570312 C 218.257812 149.648438 218.023438 148.710938 217.832031 147.765625 C 217.644531 146.816406 217.503906 145.863281 217.40625 144.902344 C 217.3125 143.941406 217.261719 142.976562 217.261719 142.011719 Z M 276.261719 241.574219 C 276.261719 241.085938 276.359375 240.617188 276.546875 240.164062 C 276.734375 239.714844 277 239.316406 277.34375 238.96875 C 277.691406 238.625 278.089844 238.359375 278.539062 238.171875 C 278.992188 237.984375 279.460938 237.886719 279.949219 237.886719 L 316.824219 237.886719 C 317.3125 237.886719 317.78125 237.984375 318.234375 238.171875 C 318.683594 238.359375 319.082031 238.625 319.429688 238.96875 C 319.773438 239.316406 320.039062 239.714844 320.226562 240.164062 C 320.414062 240.617188 320.511719 241.085938 320.511719 241.574219 Z M 372.136719 241.574219 L 335.261719 241.574219 C 335.261719 240.515625 335.410156 239.480469 335.707031 238.464844 C 336.003906 237.449219 336.4375 236.5 337.011719 235.609375 C 337.582031 234.71875 338.269531 233.929688 339.070312 233.238281 C 339.871094 232.546875 340.75 231.980469 341.714844 231.542969 C 342.195312 232.738281 342.84375 233.835938 343.652344 234.835938 C 344.464844 235.835938 345.402344 236.699219 346.472656 237.417969 C 347.539062 238.136719 348.6875 238.6875 349.921875 239.0625 C 351.152344 239.4375 352.410156 239.628906 353.699219 239.628906 C 354.988281 239.628906 356.246094 239.4375 357.476562 239.0625 C 358.710938 238.6875 359.859375 238.136719 360.925781 237.417969 C 361.996094 236.699219 362.933594 235.835938 363.742188 234.835938 C 364.554688 233.835938 365.199219 232.738281 365.683594 231.542969 C 366.644531 231.980469 367.527344 232.546875 368.328125 233.238281 C 369.128906 233.929688 369.8125 234.71875 370.386719 235.609375 C 370.957031 236.5 371.394531 237.449219 371.691406 238.464844 C 371.988281 239.480469 372.136719 240.515625 372.136719 241.574219 Z M 357.386719 193.675781 C 329.90625 193.003906 327.417969 153.855469 354.511719 149.609375 C 354.800781 149.574219 355.089844 149.578125 355.375 149.609375 C 355.664062 149.644531 355.945312 149.710938 356.21875 149.8125 C 356.492188 149.910156 356.75 150.042969 356.992188 150.199219 C 357.234375 150.359375 357.457031 150.546875 357.65625 150.757812 C 357.859375 150.96875 358.03125 151.199219 358.179688 151.449219 C 358.324219 151.699219 358.441406 151.964844 358.527344 152.242188 C 358.609375 152.519531 358.664062 152.804688 358.683594 153.09375 C 358.703125 153.382812 358.6875 153.671875 358.640625 153.960938 C 358.457031 154.875 358.410156 155.796875 358.5 156.726562 C 358.589844 157.65625 358.8125 158.550781 359.167969 159.414062 C 359.523438 160.277344 360 161.070312 360.589844 161.792969 C 361.183594 162.515625 361.867188 163.136719 362.640625 163.65625 C 363.417969 164.175781 364.253906 164.570312 365.144531 164.84375 C 366.039062 165.113281 366.953125 165.25 367.886719 165.25 C 368.820312 165.25 369.734375 165.113281 370.628906 164.84375 C 371.519531 164.570312 372.355469 164.175781 373.132812 163.65625 C 373.375 163.5 373.636719 163.371094 373.910156 163.269531 C 374.183594 163.171875 374.464844 163.109375 374.753906 163.074219 C 375.046875 163.042969 375.335938 163.046875 375.625 163.082031 C 375.914062 163.117188 376.195312 163.1875 376.464844 163.289062 C 376.738281 163.394531 376.996094 163.523438 377.238281 163.6875 C 377.480469 163.851562 377.699219 164.039062 377.894531 164.253906 C 378.09375 164.46875 378.261719 164.703125 378.40625 164.957031 C 378.546875 165.210938 378.65625 165.480469 378.738281 165.757812 C 378.953125 166.578125 379.125 167.402344 379.246094 168.238281 C 379.371094 169.078125 379.445312 169.917969 379.472656 170.761719 C 379.5 171.609375 379.476562 172.453125 379.40625 173.292969 C 379.335938 174.136719 379.21875 174.972656 379.054688 175.800781 C 378.890625 176.632812 378.679688 177.449219 378.417969 178.253906 C 378.160156 179.058594 377.859375 179.847656 377.507812 180.617188 C 377.160156 181.386719 376.769531 182.136719 376.335938 182.863281 C 375.902344 183.585938 375.429688 184.285156 374.914062 184.957031 C 374.402344 185.628906 373.851562 186.269531 373.261719 186.878906 C 372.675781 187.488281 372.058594 188.0625 371.40625 188.597656 C 370.753906 189.136719 370.070312 189.636719 369.363281 190.097656 C 368.652344 190.554688 367.917969 190.976562 367.164062 191.351562 C 366.40625 191.726562 365.628906 192.058594 364.835938 192.347656 C 364.039062 192.636719 363.230469 192.878906 362.40625 193.074219 C 361.585938 193.269531 360.753906 193.417969 359.914062 193.515625 C 359.074219 193.617188 358.230469 193.667969 357.386719 193.675781 Z M 357.386719 193.675781 " fill-opacity="1" fill-rule="nonzero"/></g><path fill="rgb(91.369629%, 9.799194%, 52.938843%)" d="M 291.011719 106.316406 L 291.011719 112.511719 C 291.011719 112.996094 291.058594 113.476562 291.15625 113.949219 C 291.25 114.425781 291.390625 114.886719 291.574219 115.332031 C 291.761719 115.78125 291.988281 116.203125 292.257812 116.605469 C 292.527344 117.007812 292.832031 117.382812 293.175781 117.722656 C 293.515625 118.066406 293.890625 118.371094 294.292969 118.640625 C 294.695312 118.910156 295.117188 119.136719 295.566406 119.324219 C 296.011719 119.507812 296.472656 119.648438 296.949219 119.742188 C 297.421875 119.839844 297.902344 119.886719 298.386719 119.886719 L 305.761719 119.886719 C 306.246094 119.886719 306.726562 119.839844 307.199219 119.742188 C 307.675781 119.648438 308.136719 119.507812 308.582031 119.324219 C 309.03125 119.136719 309.453125 118.910156 309.855469 118.640625 C 310.257812 118.371094 310.632812 118.066406 310.972656 117.722656 C 311.316406 117.382812 311.621094 117.007812 311.890625 116.605469 C 312.160156 116.203125 312.386719 115.78125 312.574219 115.332031 C 312.757812 114.886719 312.898438 114.425781 312.992188 113.949219 C 313.089844 113.476562 313.136719 112.996094 313.136719 112.511719 L 313.136719 106.316406 C 314.011719 105.902344 314.859375 105.4375 315.683594 104.929688 C 316.503906 104.417969 317.296875 103.863281 318.054688 103.261719 C 318.816406 102.664062 319.539062 102.023438 320.230469 101.34375 C 320.917969 100.660156 321.5625 99.941406 322.171875 99.1875 C 322.777344 98.433594 323.339844 97.648438 323.859375 96.832031 C 324.378906 96.015625 324.851562 95.171875 325.273438 94.300781 C 325.699219 93.429688 326.070312 92.539062 326.394531 91.625 C 326.71875 90.714844 326.992188 89.785156 327.210938 88.84375 C 327.429688 87.898438 327.59375 86.945312 327.707031 85.984375 C 327.816406 85.023438 327.875 84.058594 327.878906 83.089844 C 327.882812 82.121094 327.832031 81.15625 327.726562 80.195312 C 327.621094 79.230469 327.460938 78.277344 327.246094 77.335938 C 327.035156 76.390625 326.769531 75.460938 326.453125 74.546875 C 326.136719 73.628906 325.769531 72.738281 325.351562 71.863281 C 324.933594 70.988281 324.464844 70.144531 323.953125 69.324219 C 323.4375 68.5 322.882812 67.710938 322.28125 66.953125 C 321.675781 66.195312 321.035156 65.472656 320.351562 64.789062 C 319.667969 64.101562 318.949219 63.457031 318.191406 62.851562 C 317.4375 62.246094 316.648438 61.6875 315.828125 61.171875 C 315.007812 60.65625 314.164062 60.1875 313.292969 59.765625 C 312.421875 59.34375 311.527344 58.972656 310.613281 58.652344 C 309.699219 58.332031 308.773438 58.066406 307.828125 57.847656 C 306.882812 57.632812 305.929688 57.472656 304.96875 57.363281 C 304.007812 57.253906 303.042969 57.199219 302.074219 57.199219 C 301.105469 57.199219 300.140625 57.253906 299.179688 57.363281 C 298.214844 57.472656 297.261719 57.632812 296.320312 57.847656 C 295.375 58.066406 294.449219 58.332031 293.535156 58.652344 C 292.621094 58.972656 291.726562 59.34375 290.855469 59.765625 C 289.984375 60.1875 289.136719 60.65625 288.320312 61.171875 C 287.5 61.6875 286.710938 62.246094 285.957031 62.851562 C 285.199219 63.457031 284.480469 64.101562 283.796875 64.789062 C 283.113281 65.472656 282.46875 66.195312 281.867188 66.953125 C 281.265625 67.710938 280.707031 68.5 280.195312 69.324219 C 279.683594 70.144531 279.214844 70.988281 278.796875 71.863281 C 278.378906 72.738281 278.011719 73.628906 277.695312 74.546875 C 277.378906 75.460938 277.113281 76.390625 276.898438 77.335938 C 276.6875 78.277344 276.527344 79.230469 276.421875 80.195312 C 276.316406 81.15625 276.265625 82.121094 276.269531 83.089844 C 276.273438 84.058594 276.332031 85.023438 276.441406 85.984375 C 276.554688 86.945312 276.71875 87.898438 276.9375 88.84375 C 277.15625 89.785156 277.429688 90.714844 277.753906 91.625 C 278.074219 92.539062 278.449219 93.429688 278.875 94.300781 C 279.296875 95.171875 279.769531 96.015625 280.289062 96.832031 C 280.804688 97.648438 281.367188 98.433594 281.976562 99.1875 C 282.582031 99.941406 283.230469 100.660156 283.917969 101.34375 C 284.605469 102.023438 285.332031 102.664062 286.089844 103.261719 C 286.851562 103.863281 287.644531 104.417969 288.464844 104.929688 C 289.289062 105.4375 290.136719 105.902344 291.011719 106.316406 Z M 298.386719 83.011719 L 309.449219 83.011719 C 309.882812 83.019531 310.304688 83.097656 310.707031 83.253906 C 311.113281 83.40625 311.480469 83.625 311.808594 83.910156 C 312.140625 84.195312 312.410156 84.523438 312.621094 84.902344 C 312.832031 85.28125 312.976562 85.6875 313.046875 86.113281 C 313.117188 86.542969 313.109375 86.96875 313.03125 87.394531 C 312.949219 87.824219 312.800781 88.222656 312.578125 88.597656 C 312.359375 88.96875 312.082031 89.296875 311.746094 89.570312 C 311.410156 89.847656 311.039062 90.058594 310.628906 90.203125 C 305.429688 91.9375 304.949219 97.578125 305.207031 101.15625 C 302.722656 101.617188 300.25 101.542969 297.796875 100.933594 C 297.570312 97.242188 298.246094 93.726562 299.824219 90.386719 L 298.386719 90.386719 C 297.902344 90.378906 297.4375 90.28125 296.992188 90.089844 C 296.546875 89.902344 296.152344 89.632812 295.8125 89.289062 C 295.472656 88.941406 295.210938 88.546875 295.027344 88.097656 C 294.84375 87.648438 294.753906 87.183594 294.753906 86.699219 C 294.753906 86.214844 294.84375 85.75 295.027344 85.300781 C 295.210938 84.851562 295.472656 84.457031 295.8125 84.109375 C 296.152344 83.765625 296.546875 83.5 296.992188 83.308594 C 297.4375 83.117188 297.902344 83.019531 298.386719 83.011719 Z M 298.386719 83.011719 " fill-opacity="1" fill-rule="nonzero"/><g clip-path="url(#id50)"><path fill="rgb(91.369629%, 9.799194%, 52.938843%)" d="M 302.074219 53.511719 C 302.5625 53.511719 303.035156 53.417969 303.484375 53.230469 C 303.9375 53.042969 304.335938 52.777344 304.683594 52.433594 C 305.027344 52.085938 305.292969 51.6875 305.480469 51.234375 C 305.667969 50.785156 305.761719 50.3125 305.761719 49.824219 L 305.761719 46.136719 C 305.761719 45.648438 305.667969 45.175781 305.480469 44.726562 C 305.292969 44.273438 305.027344 43.875 304.679688 43.53125 C 304.335938 43.183594 303.9375 42.917969 303.484375 42.730469 C 303.035156 42.542969 302.5625 42.449219 302.074219 42.449219 C 301.585938 42.449219 301.113281 42.542969 300.664062 42.730469 C 300.210938 42.917969 299.8125 43.183594 299.464844 43.53125 C 299.121094 43.875 298.855469 44.273438 298.667969 44.726562 C 298.480469 45.175781 298.386719 45.648438 298.386719 46.136719 L 298.386719 49.824219 C 298.386719 50.3125 298.480469 50.785156 298.667969 51.234375 C 298.855469 51.6875 299.121094 52.085938 299.464844 52.433594 C 299.8125 52.777344 300.210938 53.042969 300.664062 53.230469 C 301.113281 53.417969 301.585938 53.511719 302.074219 53.511719 Z M 302.074219 53.511719 " fill-opacity="1" fill-rule="nonzero"/></g><path fill="rgb(91.369629%, 9.799194%, 52.938843%)" d="M 316.824219 57.464844 C 317.246094 57.710938 317.703125 57.863281 318.1875 57.925781 C 318.671875 57.988281 319.148438 57.957031 319.621094 57.832031 C 320.09375 57.707031 320.523438 57.492188 320.914062 57.195312 C 321.300781 56.898438 321.617188 56.539062 321.863281 56.117188 L 323.707031 52.921875 C 323.949219 52.496094 324.101562 52.042969 324.167969 51.558594 C 324.230469 51.074219 324.199219 50.597656 324.070312 50.125 C 323.945312 49.652344 323.730469 49.222656 323.433594 48.835938 C 323.136719 48.449219 322.777344 48.132812 322.351562 47.886719 C 321.929688 47.644531 321.476562 47.488281 320.992188 47.425781 C 320.507812 47.363281 320.027344 47.394531 319.554688 47.519531 C 319.085938 47.644531 318.65625 47.855469 318.265625 48.152344 C 317.878906 48.449219 317.5625 48.8125 317.316406 49.234375 L 315.472656 52.429688 C 315.230469 52.851562 315.074219 53.304688 315.011719 53.789062 C 314.949219 54.277344 314.980469 54.753906 315.105469 55.226562 C 315.234375 55.699219 315.445312 56.128906 315.742188 56.515625 C 316.039062 56.90625 316.402344 57.222656 316.824219 57.464844 Z M 316.824219 57.464844 " fill-opacity="1" fill-rule="nonzero"/><path fill="rgb(91.369629%, 9.799194%, 52.938843%)" d="M 282.285156 56.117188 C 282.535156 56.527344 282.855469 56.878906 283.242188 57.167969 C 283.628906 57.457031 284.054688 57.660156 284.523438 57.78125 C 284.992188 57.902344 285.464844 57.929688 285.941406 57.863281 C 286.421875 57.796875 286.871094 57.644531 287.289062 57.402344 C 287.707031 57.164062 288.0625 56.851562 288.359375 56.46875 C 288.65625 56.085938 288.867188 55.664062 288.996094 55.199219 C 289.125 54.734375 289.164062 54.261719 289.109375 53.78125 C 289.050781 53.300781 288.90625 52.851562 288.675781 52.429688 L 286.832031 49.234375 C 286.585938 48.8125 286.269531 48.449219 285.882812 48.152344 C 285.492188 47.855469 285.0625 47.644531 284.589844 47.515625 C 284.117188 47.390625 283.640625 47.359375 283.15625 47.421875 C 282.671875 47.488281 282.21875 47.640625 281.792969 47.886719 C 281.371094 48.128906 281.007812 48.445312 280.710938 48.832031 C 280.414062 49.222656 280.203125 49.652344 280.074219 50.125 C 279.949219 50.597656 279.917969 51.074219 279.980469 51.558594 C 280.042969 52.042969 280.199219 52.496094 280.441406 52.921875 Z M 282.285156 56.117188 " fill-opacity="1" fill-rule="nonzero"/><g fill="rgb(83.918762%, 79.219055%, 12.159729%)" fill-opacity="1"><g transform="translate(230.53121, 320.221252)"><g><path d="M 17.589844 -20.972656 L 8.324219 -20.972656 C 7.203125 -20.972656 6.234375 -20.820312 5.445312 -20.542969 C 4.632812 -20.234375 3.972656 -19.753906 3.488281 -19.117188 C 2.976562 -18.480469 2.597656 -17.640625 2.367188 -16.621094 C 2.136719 -15.628906 2.035156 -14.40625 2.035156 -13.007812 L 2.035156 -7.96875 C 2.035156 -6.542969 2.136719 -5.320312 2.367188 -4.300781 C 2.597656 -3.308594 2.976562 -2.46875 3.488281 -1.808594 C 3.996094 -1.171875 4.65625 -0.6875 5.445312 -0.40625 C 6.234375 -0.128906 7.203125 0.0273438 8.324219 0.0273438 L 17.589844 0.0273438 C 17.792969 0.0273438 18.300781 -0.078125 18.300781 -0.867188 L 18.300781 -2.875 C 18.300781 -3.664062 17.792969 -3.765625 17.589844 -3.765625 L 8.449219 -3.765625 C 7.917969 -3.765625 7.457031 -3.816406 7.128906 -3.945312 C 6.796875 -4.046875 6.566406 -4.226562 6.363281 -4.503906 C 6.160156 -4.761719 6.03125 -5.140625 5.929688 -5.625 C 5.855469 -6.132812 5.804688 -6.769531 5.804688 -7.535156 L 5.804688 -13.464844 C 5.804688 -14.230469 5.855469 -14.863281 5.929688 -15.347656 C 6.03125 -15.832031 6.160156 -16.1875 6.363281 -16.46875 C 6.566406 -16.75 6.796875 -16.925781 7.128906 -17.027344 C 7.457031 -17.15625 7.917969 -17.207031 8.449219 -17.207031 L 17.589844 -17.207031 C 17.792969 -17.207031 18.300781 -17.308594 18.300781 -18.125 L 18.300781 -20.082031 C 18.300781 -20.871094 17.792969 -20.972656 17.589844 -20.972656 Z M 17.589844 -20.972656 "/></g></g></g><g fill="rgb(83.918762%, 79.219055%, 12.159729%)" fill-opacity="1"><g transform="translate(252.140229, 320.221252)"><g><path d="M 19.625 -20.972656 L 17.285156 -20.972656 C 17.054688 -20.972656 16.570312 -20.898438 16.570312 -20.109375 L 16.570312 -7.558594 C 16.570312 -6.796875 16.519531 -6.132812 16.441406 -5.652344 C 16.367188 -5.167969 16.214844 -4.785156 16.035156 -4.503906 C 15.832031 -4.25 15.601562 -4.074219 15.273438 -3.945312 C 14.941406 -3.84375 14.484375 -3.765625 13.949219 -3.765625 L 8.449219 -3.765625 C 7.917969 -3.765625 7.457031 -3.84375 7.128906 -3.945312 C 6.796875 -4.074219 6.566406 -4.25 6.363281 -4.503906 C 6.183594 -4.785156 6.03125 -5.167969 5.929688 -5.652344 C 5.855469 -6.132812 5.804688 -6.796875 5.804688 -7.558594 L 5.804688 -20.109375 C 5.804688 -20.898438 5.320312 -20.972656 5.089844 -20.972656 L 2.773438 -20.972656 C 2.546875 -20.972656 2.035156 -20.898438 2.035156 -20.109375 L 2.035156 -7.96875 C 2.035156 -6.542969 2.136719 -5.320312 2.367188 -4.328125 C 2.597656 -3.308594 2.976562 -2.46875 3.488281 -1.832031 C 3.972656 -1.171875 4.65625 -0.710938 5.445312 -0.40625 C 6.234375 -0.128906 7.203125 0 8.324219 0 L 14.050781 0 C 15.171875 0 16.136719 -0.128906 16.925781 -0.40625 C 17.742188 -0.710938 18.402344 -1.171875 18.914062 -1.832031 C 19.421875 -2.46875 19.777344 -3.308594 20.007812 -4.328125 C 20.234375 -5.320312 20.335938 -6.542969 20.335938 -7.96875 L 20.335938 -20.109375 C 20.335938 -20.898438 19.855469 -20.972656 19.625 -20.972656 Z M 19.625 -20.972656 "/></g></g></g><g fill="rgb(83.918762%, 79.219055%, 12.159729%)" fill-opacity="1"><g transform="translate(275.785435, 320.221252)"><g><path d="M 14.332031 -12.523438 L 6.695312 -12.523438 C 6.3125 -12.523438 5.828125 -12.675781 5.828125 -13.921875 L 5.828125 -15.808594 C 5.828125 -16.265625 5.90625 -16.621094 6.03125 -16.875 C 6.132812 -17.027344 6.289062 -17.207031 6.71875 -17.207031 L 17.078125 -17.207031 C 17.285156 -17.207031 17.792969 -17.285156 17.792969 -18.074219 L 17.792969 -20.109375 C 17.792969 -20.898438 17.285156 -20.972656 17.078125 -20.972656 L 6.109375 -20.972656 C 4.707031 -20.972656 3.691406 -20.515625 3.027344 -19.574219 C 2.367188 -18.65625 2.035156 -17.4375 2.035156 -15.960938 L 2.035156 -14.023438 C 2.035156 -12.269531 2.394531 -10.84375 3.027344 -9.953125 C 3.816406 -8.910156 4.988281 -8.757812 6.058594 -8.757812 L 13.695312 -8.757812 C 14.074219 -8.757812 14.585938 -8.601562 14.585938 -7.355469 L 14.585938 -5.167969 C 14.585938 -4.707031 14.507812 -4.351562 14.355469 -4.097656 C 14.253906 -3.945312 14.101562 -3.765625 13.667969 -3.765625 L 2.800781 -3.765625 C 2.570312 -3.765625 2.0625 -3.691406 2.0625 -2.902344 L 2.0625 -0.867188 C 2.0625 -0.078125 2.570312 0 2.800781 0 L 14.28125 0 C 15.679688 0 16.722656 -0.484375 17.386719 -1.425781 C 18.019531 -2.339844 18.351562 -3.539062 18.351562 -5.015625 L 18.351562 -7.253906 C 18.351562 -8.910156 18.019531 -10.207031 17.359375 -11.125 C 16.671875 -12.039062 15.652344 -12.523438 14.332031 -12.523438 Z M 14.332031 -12.523438 "/></g></g></g><g fill="rgb(83.918762%, 79.219055%, 12.159729%)" fill-opacity="1"><g transform="translate(297.445356, 320.221252)"><g><path d="M 19.625 -20.972656 L 2.773438 -20.972656 C 2.546875 -20.972656 2.035156 -20.898438 2.035156 -20.109375 L 2.035156 -18.125 C 2.035156 -17.285156 2.546875 -17.207031 2.773438 -17.207031 L 9.316406 -17.207031 L 9.316406 -0.867188 C 9.316406 -0.078125 9.824219 0 10.027344 0 L 12.371094 0 C 12.601562 0 13.082031 -0.078125 13.082031 -0.867188 L 13.082031 -17.207031 L 19.625 -17.207031 C 19.855469 -17.207031 20.363281 -17.285156 20.363281 -18.125 L 20.363281 -20.109375 C 20.363281 -20.898438 19.855469 -20.972656 19.625 -20.972656 Z M 19.625 -20.972656 "/></g></g></g><g fill="rgb(83.918762%, 79.219055%, 12.159729%)" fill-opacity="1"><g transform="translate(321.116014, 320.221252)"><g><path d="M 19.371094 -19.117188 C 18.863281 -19.753906 18.199219 -20.234375 17.386719 -20.542969 C 16.597656 -20.820312 15.628906 -20.972656 14.507812 -20.972656 L 8.296875 -20.972656 C 7.179688 -20.972656 6.234375 -20.820312 5.445312 -20.542969 C 4.632812 -20.234375 3.972656 -19.753906 3.460938 -19.117188 C 2.976562 -18.480469 2.597656 -17.640625 2.367188 -16.621094 C 2.136719 -15.628906 2.035156 -14.433594 2.035156 -13.007812 L 2.035156 -7.96875 C 2.035156 -6.542969 2.136719 -5.320312 2.367188 -4.328125 C 2.597656 -3.308594 2.976562 -2.46875 3.460938 -1.832031 C 3.972656 -1.171875 4.632812 -0.6875 5.445312 -0.40625 C 6.210938 -0.128906 7.179688 0.0273438 8.296875 0.0273438 L 14.507812 0.0273438 C 15.628906 0.0273438 16.597656 -0.128906 17.386719 -0.40625 C 18.199219 -0.6875 18.863281 -1.171875 19.371094 -1.808594 C 19.878906 -2.46875 20.234375 -3.308594 20.464844 -4.328125 C 20.667969 -5.320312 20.796875 -6.542969 20.796875 -7.96875 L 20.796875 -13.007812 C 20.796875 -14.40625 20.667969 -15.628906 20.464844 -16.621094 C 20.234375 -17.640625 19.878906 -18.480469 19.371094 -19.117188 Z M 17.003906 -13.441406 L 17.003906 -7.507812 C 17.003906 -6.769531 16.976562 -6.132812 16.875 -5.625 C 16.800781 -5.167969 16.648438 -4.761719 16.441406 -4.503906 C 16.265625 -4.226562 16.011719 -4.046875 15.679688 -3.945312 C 15.347656 -3.816406 14.917969 -3.765625 14.382812 -3.765625 L 8.425781 -3.765625 C 7.890625 -3.765625 7.457031 -3.816406 7.128906 -3.945312 C 6.796875 -4.046875 6.542969 -4.226562 6.363281 -4.503906 C 6.160156 -4.761719 6.03125 -5.167969 5.929688 -5.625 C 5.855469 -6.132812 5.804688 -6.769531 5.804688 -7.507812 L 5.804688 -13.441406 C 5.804688 -14.179688 5.855469 -14.8125 5.929688 -15.324219 C 6.03125 -15.808594 6.160156 -16.1875 6.363281 -16.46875 C 6.542969 -16.722656 6.796875 -16.902344 7.128906 -17.027344 C 7.457031 -17.128906 7.890625 -17.207031 8.425781 -17.207031 L 14.382812 -17.207031 C 14.917969 -17.207031 15.347656 -17.128906 15.679688 -17.027344 C 16.011719 -16.902344 16.265625 -16.722656 16.441406 -16.46875 C 16.648438 -16.1875 16.800781 -15.808594 16.875 -15.324219 C 16.976562 -14.8125 17.003906 -14.179688 17.003906 -13.441406 Z M 17.003906 -13.441406 "/></g></g></g><g fill="rgb(83.918762%, 79.219055%, 12.159729%)" fill-opacity="1"><g transform="translate(345.219351, 320.221252)"><g><path d="M 23.289062 -20.972656 L 21 -20.972656 C 20.644531 -20.972656 20.363281 -20.949219 20.109375 -20.871094 C 19.855469 -20.796875 19.625 -20.667969 19.421875 -20.492188 C 19.242188 -20.285156 19.066406 -20.058594 18.914062 -19.753906 C 18.757812 -19.445312 18.632812 -19.066406 18.480469 -18.582031 L 13.972656 -7.332031 C 13.949219 -7.230469 13.921875 -7.230469 13.898438 -7.230469 L 13.644531 -7.230469 C 13.644531 -7.230469 13.59375 -7.230469 13.566406 -7.332031 L 9.085938 -18.582031 C 8.933594 -19.066406 8.78125 -19.445312 8.65625 -19.753906 C 8.5 -20.058594 8.324219 -20.285156 8.144531 -20.492188 C 7.941406 -20.667969 7.6875 -20.796875 7.433594 -20.871094 C 7.179688 -20.949219 6.871094 -20.972656 6.542969 -20.972656 L 4.199219 -20.972656 C 3.335938 -20.972656 2.75 -20.695312 2.445312 -20.160156 C 2.164062 -19.675781 2.035156 -18.863281 2.035156 -17.691406 L 2.035156 -0.867188 C 2.035156 -0.078125 2.546875 0.0273438 2.773438 0.0273438 L 4.964844 0.0273438 C 5.191406 0.0273438 5.675781 -0.078125 5.675781 -0.867188 L 5.675781 -16.164062 C 5.675781 -16.1875 5.675781 -16.214844 5.675781 -16.214844 L 5.804688 -16.214844 C 5.828125 -16.214844 5.855469 -16.214844 5.878906 -16.136719 L 10.234375 -5.371094 C 10.410156 -4.835938 10.589844 -4.378906 10.765625 -3.996094 C 10.96875 -3.613281 11.175781 -3.308594 11.378906 -3.054688 C 11.632812 -2.800781 11.886719 -2.597656 12.191406 -2.496094 C 12.496094 -2.394531 12.828125 -2.339844 13.210938 -2.339844 L 14.253906 -2.339844 C 14.636719 -2.339844 14.992188 -2.394531 15.273438 -2.496094 C 15.578125 -2.597656 15.859375 -2.800781 16.085938 -3.054688 C 16.289062 -3.308594 16.519531 -3.613281 16.699219 -3.996094 C 16.875 -4.378906 17.054688 -4.835938 17.230469 -5.371094 L 21.609375 -16.164062 C 21.609375 -16.214844 21.636719 -16.214844 21.660156 -16.214844 L 21.789062 -16.214844 C 21.789062 -16.214844 21.789062 -16.1875 21.789062 -16.164062 L 21.789062 -0.867188 C 21.789062 -0.078125 22.296875 0.0273438 22.5 0.0273438 L 24.691406 0.0273438 C 24.917969 0.0273438 25.429688 -0.078125 25.429688 -0.867188 L 25.429688 -17.691406 C 25.429688 -18.863281 25.300781 -19.675781 25.019531 -20.160156 C 24.714844 -20.695312 24.128906 -20.972656 23.289062 -20.972656 Z M 23.289062 -20.972656 "/></g></g></g><g fill="rgb(83.918762%, 79.219055%, 12.159729%)" fill-opacity="1"><g transform="translate(198.325945, 355.802985)"><g><path d="M 19.421875 -16.238281 C 19.167969 -17.308594 18.734375 -18.199219 18.199219 -18.914062 C 17.640625 -19.597656 16.902344 -20.132812 16.035156 -20.464844 C 15.171875 -20.796875 14.152344 -20.972656 12.957031 -20.972656 L 4.074219 -20.972656 L 4.074219 -20.949219 C 3.335938 -20.898438 2.699219 -20.492188 2.316406 -19.878906 C 2.214844 -19.675781 2.113281 -19.445312 2.0625 -19.242188 L 2.035156 -1.859375 C 2.085938 -1.578125 2.1875 -1.296875 2.316406 -1.070312 C 2.722656 -0.382812 3.460938 0.0273438 4.25 0.0273438 L 12.957031 0.0273438 C 14.152344 0.0273438 15.195312 -0.152344 16.035156 -0.484375 C 16.902344 -0.816406 17.640625 -1.347656 18.199219 -2.0625 C 18.734375 -2.75 19.167969 -3.640625 19.421875 -4.707031 C 19.675781 -5.777344 19.804688 -7.050781 19.804688 -8.476562 L 19.804688 -12.472656 C 19.804688 -13.898438 19.675781 -15.171875 19.421875 -16.238281 Z M 5.777344 -3.894531 L 5.777344 -17.054688 C 5.777344 -17.15625 5.804688 -17.207031 5.828125 -17.207031 L 12.878906 -17.207031 C 13.464844 -17.207031 13.972656 -17.128906 14.382812 -16.976562 C 14.789062 -16.824219 15.09375 -16.621094 15.324219 -16.289062 C 15.578125 -15.960938 15.757812 -15.527344 15.859375 -14.992188 C 15.960938 -14.40625 16.035156 -13.695312 16.035156 -12.855469 L 16.035156 -8.09375 C 16.035156 -7.253906 15.960938 -6.542969 15.859375 -5.980469 C 15.757812 -5.421875 15.578125 -4.988281 15.324219 -4.65625 C 15.09375 -4.351562 14.789062 -4.125 14.382812 -3.972656 C 13.972656 -3.816406 13.464844 -3.765625 12.878906 -3.765625 L 5.804688 -3.765625 C 5.804688 -3.765625 5.777344 -3.792969 5.777344 -3.894531 Z M 5.777344 -3.894531 "/></g></g></g><g fill="rgb(83.918762%, 79.219055%, 12.159729%)" fill-opacity="1"><g transform="translate(221.436653, 355.802985)"><g><path d="M 17.335938 -4.554688 L 8.375 -4.554688 C 7.839844 -4.554688 7.40625 -4.632812 7.050781 -4.734375 C 6.71875 -4.863281 6.492188 -5.039062 6.289062 -5.292969 C 6.082031 -5.574219 5.929688 -5.957031 5.855469 -6.441406 C 5.828125 -6.566406 5.828125 -6.746094 5.804688 -6.871094 C 5.804688 -6.871094 5.828125 -8.707031 5.855469 -8.707031 L 17.230469 -8.707031 C 17.4375 -8.707031 17.945312 -8.808594 17.945312 -9.597656 L 17.945312 -11.605469 C 17.945312 -12.394531 17.4375 -12.472656 17.230469 -12.472656 L 4.097656 -12.445312 C 3.359375 -12.394531 2.722656 -12.015625 2.367188 -11.378906 C 2.238281 -11.175781 2.136719 -10.96875 2.085938 -10.742188 L 2.035156 -7.535156 L 2.035156 -7.40625 C 2.0625 -6.210938 2.1875 -5.191406 2.367188 -4.351562 C 2.597656 -3.335938 2.976562 -2.496094 3.460938 -1.859375 C 3.972656 -1.195312 4.632812 -0.738281 5.445312 -0.457031 C 6.234375 -0.152344 7.179688 -0.0273438 8.296875 -0.0273438 L 17.335938 -0.0273438 C 17.5625 -0.0273438 18.074219 -0.101562 18.074219 -0.890625 L 18.074219 -3.691406 C 18.074219 -4.480469 17.5625 -4.554688 17.335938 -4.554688 Z M 17.359375 -21.023438 L 2.722656 -21.023438 C 2.519531 -21.023438 2.035156 -20.921875 2.035156 -20.109375 L 2.035156 -18.125 C 2.035156 -17.335938 2.519531 -17.257812 2.722656 -17.257812 L 17.359375 -17.230469 C 17.5625 -17.230469 18.074219 -17.335938 18.074219 -18.125 L 18.074219 -20.132812 C 18.074219 -20.921875 17.5625 -21.023438 17.359375 -21.023438 Z M 17.359375 -21.023438 "/></g></g></g><g fill="rgb(83.918762%, 79.219055%, 12.159729%)" fill-opacity="1"><g transform="translate(242.816593, 355.802985)"><g><path d="M 14.332031 -12.523438 L 6.695312 -12.523438 C 6.3125 -12.523438 5.828125 -12.675781 5.828125 -13.921875 L 5.828125 -15.808594 C 5.828125 -16.265625 5.90625 -16.621094 6.03125 -16.875 C 6.132812 -17.027344 6.289062 -17.207031 6.71875 -17.207031 L 17.078125 -17.207031 C 17.285156 -17.207031 17.792969 -17.285156 17.792969 -18.074219 L 17.792969 -20.109375 C 17.792969 -20.898438 17.285156 -20.972656 17.078125 -20.972656 L 6.109375 -20.972656 C 4.707031 -20.972656 3.691406 -20.515625 3.027344 -19.574219 C 2.367188 -18.65625 2.035156 -17.4375 2.035156 -15.960938 L 2.035156 -14.023438 C 2.035156 -12.269531 2.394531 -10.84375 3.027344 -9.953125 C 3.816406 -8.910156 4.988281 -8.757812 6.058594 -8.757812 L 13.695312 -8.757812 C 14.074219 -8.757812 14.585938 -8.601562 14.585938 -7.355469 L 14.585938 -5.167969 C 14.585938 -4.707031 14.507812 -4.351562 14.355469 -4.097656 C 14.253906 -3.945312 14.101562 -3.765625 13.667969 -3.765625 L 2.800781 -3.765625 C 2.570312 -3.765625 2.0625 -3.691406 2.0625 -2.902344 L 2.0625 -0.867188 C 2.0625 -0.078125 2.570312 0 2.800781 0 L 14.28125 0 C 15.679688 0 16.722656 -0.484375 17.386719 -1.425781 C 18.019531 -2.339844 18.351562 -3.539062 18.351562 -5.015625 L 18.351562 -7.253906 C 18.351562 -8.910156 18.019531 -10.207031 17.359375 -11.125 C 16.671875 -12.039062 15.652344 -12.523438 14.332031 -12.523438 Z M 14.332031 -12.523438 "/></g></g></g><g fill="rgb(83.918762%, 79.219055%, 12.159729%)" fill-opacity="1"><g transform="translate(264.476514, 355.802985)"><g><path d="M 5.089844 -20.972656 L 2.75 -20.972656 C 2.546875 -20.972656 2.035156 -20.871094 2.035156 -20.082031 L 2.035156 -0.867188 C 2.035156 -0.078125 2.546875 0.0273438 2.75 0.0273438 L 5.089844 0.0273438 C 5.292969 0.0273438 5.804688 -0.078125 5.804688 -0.867188 L 5.804688 -20.082031 C 5.804688 -20.871094 5.292969 -20.972656 5.089844 -20.972656 Z M 5.089844 -20.972656 "/></g></g></g><g fill="rgb(83.918762%, 79.219055%, 12.159729%)" fill-opacity="1"><g transform="translate(273.588445, 355.802985)"><g><path d="M 19.269531 -20.972656 L 8.324219 -20.972656 C 7.203125 -20.972656 6.234375 -20.820312 5.445312 -20.542969 C 4.65625 -20.234375 3.972656 -19.753906 3.488281 -19.117188 C 2.976562 -18.453125 2.597656 -17.640625 2.367188 -16.621094 C 2.136719 -15.628906 2.035156 -14.40625 2.035156 -13.007812 L 2.035156 -7.96875 C 2.035156 -6.542969 2.136719 -5.320312 2.367188 -4.300781 C 2.597656 -3.308594 2.976562 -2.46875 3.488281 -1.808594 C 3.996094 -1.171875 4.65625 -0.6875 5.445312 -0.40625 C 6.234375 -0.128906 7.203125 0.0273438 8.324219 0.0273438 L 17.027344 0.0273438 C 17.96875 0.0273438 18.707031 -0.355469 19.21875 -1.09375 C 19.703125 -1.808594 19.957031 -3.003906 19.957031 -4.707031 L 19.957031 -11.53125 C 19.957031 -12.496094 19.394531 -12.652344 19.066406 -12.652344 L 10.054688 -12.652344 C 9.851562 -12.652344 9.339844 -12.546875 9.339844 -11.734375 L 9.339844 -9.800781 C 9.339844 -8.960938 9.851562 -8.882812 10.054688 -8.882812 L 16.390625 -8.882812 C 16.390625 -8.882812 16.417969 -5.320312 16.417969 -5.320312 C 16.417969 -4.53125 16.289062 -4.199219 16.1875 -4.046875 C 16.0625 -3.84375 15.859375 -3.765625 15.578125 -3.765625 L 8.449219 -3.765625 C 7.917969 -3.765625 7.457031 -3.816406 7.128906 -3.945312 C 6.796875 -4.046875 6.566406 -4.226562 6.363281 -4.503906 C 6.183594 -4.761719 6.03125 -5.140625 5.957031 -5.625 C 5.855469 -6.132812 5.804688 -6.769531 5.804688 -7.535156 L 5.804688 -13.441406 C 5.804688 -14.203125 5.855469 -14.839844 5.957031 -15.347656 C 6.03125 -15.808594 6.183594 -16.1875 6.363281 -16.46875 C 6.566406 -16.722656 6.796875 -16.902344 7.128906 -17.027344 C 7.457031 -17.128906 7.917969 -17.207031 8.449219 -17.207031 L 19.269531 -17.207031 C 19.472656 -17.207031 19.980469 -17.285156 19.980469 -18.097656 L 19.980469 -20.082031 C 19.980469 -20.871094 19.472656 -20.972656 19.269531 -20.972656 Z M 19.269531 -20.972656 "/></g></g></g><g fill="rgb(83.918762%, 79.219055%, 12.159729%)" fill-opacity="1"><g transform="translate(296.877315, 355.802985)"><g><path d="M 20.058594 -20.972656 L 17.792969 -20.972656 C 17.5625 -20.972656 17.078125 -20.898438 17.078125 -20.082031 L 17.078125 -4.785156 C 17.078125 -4.761719 17.078125 -4.761719 17.078125 -4.734375 L 16.953125 -4.734375 C 16.925781 -4.734375 16.902344 -4.734375 16.875 -4.8125 L 8.832031 -19.117188 C 8.628906 -19.496094 8.449219 -19.804688 8.273438 -20.03125 C 8.09375 -20.285156 7.917969 -20.492188 7.738281 -20.617188 C 7.535156 -20.769531 7.304688 -20.871094 7.023438 -20.921875 C 6.769531 -20.949219 6.464844 -20.972656 6.132812 -20.972656 L 4.226562 -20.972656 C 3.488281 -20.972656 2.925781 -20.71875 2.570312 -20.261719 C 2.214844 -19.777344 2.035156 -18.9375 2.035156 -17.691406 L 2.035156 -0.867188 C 2.035156 -0.078125 2.546875 0.0273438 2.773438 0.0273438 L 5.039062 0.0273438 C 5.269531 0.0273438 5.753906 -0.078125 5.753906 -0.867188 L 5.753906 -16.164062 C 5.753906 -16.1875 5.753906 -16.214844 5.753906 -16.214844 L 5.878906 -16.214844 C 5.878906 -16.214844 5.90625 -16.214844 5.957031 -16.136719 L 14.023438 -1.832031 C 14.230469 -1.425781 14.433594 -1.121094 14.609375 -0.890625 C 14.789062 -0.636719 14.96875 -0.457031 15.171875 -0.332031 C 15.375 -0.179688 15.601562 -0.101562 15.859375 -0.0507812 C 16.085938 0 16.367188 0.0273438 16.722656 0.0273438 L 18.582031 0.0273438 C 19.320312 0.0273438 19.878906 -0.230469 20.234375 -0.710938 C 20.59375 -1.171875 20.769531 -2.011719 20.769531 -3.257812 L 20.769531 -20.082031 C 20.769531 -20.898438 20.261719 -20.972656 20.058594 -20.972656 Z M 20.058594 -20.972656 "/></g></g></g><g fill="rgb(83.918762%, 79.219055%, 12.159729%)" fill-opacity="1"><g transform="translate(320.955201, 355.802985)"><g/></g></g><g fill="rgb(83.918762%, 79.219055%, 12.159729%)" fill-opacity="1"><g transform="translate(335.3103, 355.802985)"><g><path d="M 19.652344 -14.484375 L 19.652344 -15.910156 C 19.652344 -17.5625 19.320312 -18.835938 18.65625 -19.675781 C 17.996094 -20.542969 16.875 -20.972656 15.324219 -20.972656 L 4.074219 -20.972656 L 4.074219 -20.949219 C 3.335938 -20.898438 2.699219 -20.492188 2.316406 -19.878906 C 2.214844 -19.675781 2.113281 -19.445312 2.0625 -19.242188 L 2.035156 -1.859375 C 2.085938 -1.578125 2.1875 -1.296875 2.316406 -1.070312 C 2.722656 -0.382812 3.460938 0.0273438 4.25 0.0273438 L 15.707031 0.0273438 C 16.46875 0.0273438 17.105469 -0.101562 17.613281 -0.355469 C 18.148438 -0.609375 18.582031 -0.96875 18.886719 -1.449219 C 19.21875 -1.910156 19.421875 -2.46875 19.574219 -3.128906 C 19.703125 -3.765625 19.777344 -4.503906 19.777344 -5.292969 L 19.777344 -7 C 19.777344 -8.679688 19.292969 -9.953125 18.378906 -10.792969 C 19.242188 -11.65625 19.652344 -12.90625 19.652344 -14.484375 Z M 5.777344 -3.894531 L 5.777344 -17.054688 C 5.777344 -17.15625 5.804688 -17.207031 5.828125 -17.207031 L 14.660156 -17.207031 C 15.144531 -17.207031 15.5 -17.078125 15.707031 -16.851562 C 15.910156 -16.621094 16.011719 -16.214844 16.011719 -15.679688 L 16.011719 -13.921875 C 16.011719 -13.441406 15.910156 -13.058594 15.679688 -12.804688 C 15.476562 -12.574219 15.042969 -12.445312 14.382812 -12.445312 L 9.445312 -12.445312 C 8.984375 -12.445312 8.601562 -12.066406 8.601562 -11.605469 L 8.601562 -9.519531 C 8.601562 -9.035156 8.984375 -8.679688 9.445312 -8.679688 L 14.382812 -8.679688 C 15.042969 -8.679688 15.476562 -8.527344 15.707031 -8.273438 C 15.910156 -8.019531 16.035156 -7.609375 16.035156 -7.050781 L 16.035156 -5.320312 C 16.035156 -4.734375 15.933594 -4.328125 15.730469 -4.097656 C 15.527344 -3.867188 15.171875 -3.765625 14.660156 -3.765625 L 5.804688 -3.765625 C 5.804688 -3.765625 5.777344 -3.792969 5.777344 -3.894531 Z M 5.777344 -3.894531 "/></g></g></g><g fill="rgb(83.918762%, 79.219055%, 12.159729%)" fill-opacity="1"><g transform="translate(358.395556, 355.802985)"><g><path d="M 19.371094 -19.117188 C 18.863281 -19.753906 18.199219 -20.234375 17.386719 -20.542969 C 16.597656 -20.820312 15.628906 -20.972656 14.507812 -20.972656 L 8.296875 -20.972656 C 7.179688 -20.972656 6.234375 -20.820312 5.445312 -20.542969 C 4.632812 -20.234375 3.972656 -19.753906 3.460938 -19.117188 C 2.976562 -18.480469 2.597656 -17.640625 2.367188 -16.621094 C 2.136719 -15.628906 2.035156 -14.433594 2.035156 -13.007812 L 2.035156 -7.96875 C 2.035156 -6.542969 2.136719 -5.320312 2.367188 -4.328125 C 2.597656 -3.308594 2.976562 -2.46875 3.460938 -1.832031 C 3.972656 -1.171875 4.632812 -0.6875 5.445312 -0.40625 C 6.210938 -0.128906 7.179688 0.0273438 8.296875 0.0273438 L 14.507812 0.0273438 C 15.628906 0.0273438 16.597656 -0.128906 17.386719 -0.40625 C 18.199219 -0.6875 18.863281 -1.171875 19.371094 -1.808594 C 19.878906 -2.46875 20.234375 -3.308594 20.464844 -4.328125 C 20.667969 -5.320312 20.796875 -6.542969 20.796875 -7.96875 L 20.796875 -13.007812 C 20.796875 -14.40625 20.667969 -15.628906 20.464844 -16.621094 C 20.234375 -17.640625 19.878906 -18.480469 19.371094 -19.117188 Z M 17.003906 -13.441406 L 17.003906 -7.507812 C 17.003906 -6.769531 16.976562 -6.132812 16.875 -5.625 C 16.800781 -5.167969 16.648438 -4.761719 16.441406 -4.503906 C 16.265625 -4.226562 16.011719 -4.046875 15.679688 -3.945312 C 15.347656 -3.816406 14.917969 -3.765625 14.382812 -3.765625 L 8.425781 -3.765625 C 7.890625 -3.765625 7.457031 -3.816406 7.128906 -3.945312 C 6.796875 -4.046875 6.542969 -4.226562 6.363281 -4.503906 C 6.160156 -4.761719 6.03125 -5.167969 5.929688 -5.625 C 5.855469 -6.132812 5.804688 -6.769531 5.804688 -7.507812 L 5.804688 -13.441406 C 5.804688 -14.179688 5.855469 -14.8125 5.929688 -15.324219 C 6.03125 -15.808594 6.160156 -16.1875 6.363281 -16.46875 C 6.542969 -16.722656 6.796875 -16.902344 7.128906 -17.027344 C 7.457031 -17.128906 7.890625 -17.207031 8.425781 -17.207031 L 14.382812 -17.207031 C 14.917969 -17.207031 15.347656 -17.128906 15.679688 -17.027344 C 16.011719 -16.902344 16.265625 -16.722656 16.441406 -16.46875 C 16.648438 -16.1875 16.800781 -15.808594 16.875 -15.324219 C 16.976562 -14.8125 17.003906 -14.179688 17.003906 -13.441406 Z M 17.003906 -13.441406 "/></g></g></g><g fill="rgb(83.918762%, 79.219055%, 12.159729%)" fill-opacity="1"><g transform="translate(382.498893, 355.802985)"><g><path d="M 19.625 -20.972656 L 2.773438 -20.972656 C 2.546875 -20.972656 2.035156 -20.898438 2.035156 -20.109375 L 2.035156 -18.125 C 2.035156 -17.285156 2.546875 -17.207031 2.773438 -17.207031 L 9.316406 -17.207031 L 9.316406 -0.867188 C 9.316406 -0.078125 9.824219 0 10.027344 0 L 12.371094 0 C 12.601562 0 13.082031 -0.078125 13.082031 -0.867188 L 13.082031 -17.207031 L 19.625 -17.207031 C 19.855469 -17.207031 20.363281 -17.285156 20.363281 -18.125 L 20.363281 -20.109375 C 20.363281 -20.898438 19.855469 -20.972656 19.625 -20.972656 Z M 19.625 -20.972656 "/></g></g></g></svg>