<svg xmlns="http://www.w3.org/2000/svg" xmlns:xlink="http://www.w3.org/1999/xlink" width="806" zoomAndPan="magnify" viewBox="0 0 604.5 384.749984" height="513" preserveAspectRatio="xMidYMid meet" version="1.0"><defs><g/><clipPath id="id1"><path d="M 0 0.0351562 L 604 0.0351562 L 604 384.464844 L 0 384.464844 Z M 0 0.0351562 " clip-rule="nonzero"/></clipPath><clipPath id="id2"><path d="M 24.425781 12.800781 L 92.675781 12.800781 L 92.675781 83.300781 L 24.425781 83.300781 Z M 24.425781 12.800781 " clip-rule="nonzero"/></clipPath><clipPath id="id3"><path d="M 0 114.511719 L 40.84375 114.511719 L 40.84375 200.761719 L 0 200.761719 Z M 0 114.511719 " clip-rule="nonzero"/></clipPath><clipPath id="id4"><path d="M 76 71 L 125 71 L 125 136 L 76 136 Z M 76 71 " clip-rule="nonzero"/></clipPath><clipPath id="id5"><path d="M 76.917969 132.800781 L 105.519531 71.660156 L 136.089844 85.960938 L 107.488281 147.101562 Z M 76.917969 132.800781 " clip-rule="nonzero"/></clipPath><clipPath id="id6"><path d="M 76.917969 132.800781 L 105.519531 71.660156 L 136.089844 85.960938 L 107.488281 147.101562 Z M 76.917969 132.800781 " clip-rule="nonzero"/></clipPath><clipPath id="id7"><path d="M 76.917969 132.800781 L 105.519531 71.660156 L 136.089844 85.960938 L 107.488281 147.101562 Z M 76.917969 132.800781 " clip-rule="nonzero"/></clipPath><clipPath id="id8"><path d="M 26 354 L 88 354 L 88 384.464844 L 26 384.464844 Z M 26 354 " clip-rule="nonzero"/></clipPath><clipPath id="id9"><path d="M 24.425781 412.613281 L 57.449219 341.949219 L 89.386719 356.875 L 56.359375 427.539062 Z M 24.425781 412.613281 " clip-rule="nonzero"/></clipPath><clipPath id="id10"><path d="M 24.425781 412.613281 L 57.449219 341.949219 L 89.386719 356.875 L 56.359375 427.539062 Z M 24.425781 412.613281 " clip-rule="nonzero"/></clipPath><clipPath id="id11"><path d="M 24.425781 412.613281 L 57.449219 341.949219 L 89.386719 356.875 L 56.359375 427.539062 Z M 24.425781 412.613281 " clip-rule="nonzero"/></clipPath><clipPath id="id12"><path d="M 0 256 L 67 256 L 67 277 L 0 277 Z M 0 256 " clip-rule="nonzero"/></clipPath><clipPath id="id13"><path d="M 67.511719 275.535156 L -1.472656 277.019531 L -1.890625 257.523438 L 67.09375 256.039062 Z M 67.511719 275.535156 " clip-rule="nonzero"/></clipPath><clipPath id="id14"><path d="M 67.511719 275.535156 L -1.472656 277.019531 L -1.890625 257.523438 L 67.09375 256.039062 Z M 67.511719 275.535156 " clip-rule="nonzero"/></clipPath><clipPath id="id15"><path d="M 113.394531 19.371094 L 147.894531 19.371094 L 147.894531 47.871094 L 113.394531 47.871094 Z M 113.394531 19.371094 " clip-rule="nonzero"/></clipPath><clipPath id="id16"><path d="M 36 315 L 70 315 L 70 342 L 36 342 Z M 36 315 " clip-rule="nonzero"/></clipPath><clipPath id="id17"><path d="M 71.515625 338.933594 L 37.546875 344.976562 L 32.554688 316.917969 L 66.519531 310.871094 Z M 71.515625 338.933594 " clip-rule="nonzero"/></clipPath><clipPath id="id18"><path d="M 71.515625 338.933594 L 37.546875 344.976562 L 32.554688 316.917969 L 66.519531 310.871094 Z M 71.515625 338.933594 " clip-rule="nonzero"/></clipPath><clipPath id="id19"><path d="M 34 181 L 120 181 L 120 235 L 34 235 Z M 34 181 " clip-rule="nonzero"/></clipPath><clipPath id="id20"><path d="M 34.4375 212.90625 L 88.0625 181.296875 L 119.675781 234.921875 L 66.046875 266.53125 Z M 34.4375 212.90625 " clip-rule="nonzero"/></clipPath><clipPath id="id21"><path d="M 34.4375 212.90625 L 88.0625 181.296875 L 119.675781 234.921875 L 66.046875 266.53125 Z M 34.4375 212.90625 " clip-rule="nonzero"/></clipPath><clipPath id="id22"><path d="M 87.625 277.023438 L 130.375 277.023438 L 130.375 319.773438 L 87.625 319.773438 Z M 87.625 277.023438 " clip-rule="nonzero"/></clipPath><clipPath id="id23"><path d="M 125.171875 342.160156 L 182.171875 342.160156 L 182.171875 384.464844 L 125.171875 384.464844 Z M 125.171875 342.160156 " clip-rule="nonzero"/></clipPath><clipPath id="id24"><path d="M 474.890625 268.953125 L 538.640625 268.953125 L 538.640625 334.203125 L 474.890625 334.203125 Z M 474.890625 268.953125 " clip-rule="nonzero"/></clipPath><clipPath id="id25"><path d="M 479 173 L 556 173 L 556 235 L 479 235 Z M 479 173 " clip-rule="nonzero"/></clipPath><clipPath id="id26"><path d="M 555.046875 192.621094 L 484.984375 234.742188 L 464.117188 200.035156 L 534.175781 157.910156 Z M 555.046875 192.621094 " clip-rule="nonzero"/></clipPath><clipPath id="id27"><path d="M 555.046875 192.621094 L 484.984375 234.742188 L 464.117188 200.035156 L 534.175781 157.910156 Z M 555.046875 192.621094 " clip-rule="nonzero"/></clipPath><clipPath id="id28"><path d="M 555.046875 192.621094 L 484.984375 234.742188 L 464.117188 200.035156 L 534.175781 157.910156 Z M 555.046875 192.621094 " clip-rule="nonzero"/></clipPath><clipPath id="id29"><path d="M 515 325 L 579 325 L 579 377 L 515 377 Z M 515 325 " clip-rule="nonzero"/></clipPath><clipPath id="id30"><path d="M 515.039062 358.777344 L 574.015625 325.953125 L 590.429688 355.441406 L 531.449219 388.269531 Z M 515.039062 358.777344 " clip-rule="nonzero"/></clipPath><clipPath id="id31"><path d="M 515.039062 358.777344 L 574.015625 325.953125 L 590.429688 355.441406 L 531.449219 388.269531 Z M 515.039062 358.777344 " clip-rule="nonzero"/></clipPath><clipPath id="id32"><path d="M 515.039062 358.777344 L 574.015625 325.953125 L 590.429688 355.441406 L 531.449219 388.269531 Z M 515.039062 358.777344 " clip-rule="nonzero"/></clipPath><clipPath id="id33"><path d="M 535 0.0351562 L 596 0.0351562 L 596 44 L 535 44 Z M 535 0.0351562 " clip-rule="nonzero"/></clipPath><clipPath id="id34"><path d="M 598.050781 -15.035156 L 565.023438 55.628906 L 533.089844 40.703125 L 566.117188 -29.960938 Z M 598.050781 -15.035156 " clip-rule="nonzero"/></clipPath><clipPath id="id35"><path d="M 598.050781 -15.035156 L 565.023438 55.628906 L 533.089844 40.703125 L 566.117188 -29.960938 Z M 598.050781 -15.035156 " clip-rule="nonzero"/></clipPath><clipPath id="id36"><path d="M 598.050781 -15.035156 L 565.023438 55.628906 L 533.089844 40.703125 L 566.117188 -29.960938 Z M 598.050781 -15.035156 " clip-rule="nonzero"/></clipPath><clipPath id="id37"><path d="M 532 132 L 600 132 L 600 152 L 532 152 Z M 532 132 " clip-rule="nonzero"/></clipPath><clipPath id="id38"><path d="M 531.054688 133.347656 L 600.039062 131.867188 L 600.460938 151.363281 L 531.476562 152.84375 Z M 531.054688 133.347656 " clip-rule="nonzero"/></clipPath><clipPath id="id39"><path d="M 531.054688 133.347656 L 600.039062 131.867188 L 600.460938 151.363281 L 531.476562 152.84375 Z M 531.054688 133.347656 " clip-rule="nonzero"/></clipPath><clipPath id="id40"><path d="M 433.558594 346.308594 L 468.058594 346.308594 L 468.058594 374.808594 L 433.558594 374.808594 Z M 433.558594 346.308594 " clip-rule="nonzero"/></clipPath><clipPath id="id41"><path d="M 548 57 L 582 57 L 582 85 L 548 85 Z M 548 57 " clip-rule="nonzero"/></clipPath><clipPath id="id42"><path d="M 546.417969 60.320312 L 580.382812 54.273438 L 585.378906 82.332031 L 551.410156 88.378906 Z M 546.417969 60.320312 " clip-rule="nonzero"/></clipPath><clipPath id="id43"><path d="M 546.417969 60.320312 L 580.382812 54.273438 L 585.378906 82.332031 L 551.410156 88.378906 Z M 546.417969 60.320312 " clip-rule="nonzero"/></clipPath><clipPath id="id44"><path d="M 552 199 L 604 199 L 604 278 L 552 278 Z M 552 199 " clip-rule="nonzero"/></clipPath><clipPath id="id45"><path d="M 570.640625 277.011719 L 552.863281 217.355469 L 612.523438 199.578125 L 630.300781 259.234375 Z M 570.640625 277.011719 " clip-rule="nonzero"/></clipPath><clipPath id="id46"><path d="M 570.640625 277.011719 L 552.863281 217.355469 L 612.523438 199.578125 L 630.300781 259.234375 Z M 570.640625 277.011719 " clip-rule="nonzero"/></clipPath><clipPath id="id47"><path d="M 482.304688 71.363281 L 531.054688 71.363281 L 531.054688 120 L 482.304688 120 Z M 482.304688 71.363281 " clip-rule="nonzero"/></clipPath><clipPath id="id48"><path d="M 453.773438 0.0351562 L 510.773438 0.0351562 L 510.773438 47.878906 L 453.773438 47.878906 Z M 453.773438 0.0351562 " clip-rule="nonzero"/></clipPath><clipPath id="id49"><path d="M 197.957031 62 L 375 62 L 375 233 L 197.957031 233 Z M 197.957031 62 " clip-rule="nonzero"/></clipPath><clipPath id="id50"><path d="M 232 116.292969 L 406.429688 116.292969 L 406.429688 284.996094 L 232 284.996094 Z M 232 116.292969 " clip-rule="nonzero"/></clipPath></defs><g clip-path="url(#id1)"><path fill="rgb(100%, 100%, 100%)" d="M 0 0.0351562 L 604.5 0.0351562 L 604.5 392.285156 L 0 392.285156 Z M 0 0.0351562 " fill-opacity="1" fill-rule="nonzero"/><path fill="rgb(7.058716%, 6.669617%, 8.628845%)" d="M 0 0.0351562 L 604.5 0.0351562 L 604.5 384.785156 L 0 384.785156 Z M 0 0.0351562 " fill-opacity="1" fill-rule="nonzero"/><path fill="rgb(100%, 100%, 100%)" d="M 0 0.0351562 L 604.5 0.0351562 L 604.5 384.785156 L 0 384.785156 Z M 0 0.0351562 " fill-opacity="1" fill-rule="nonzero"/><path fill="rgb(7.058716%, 6.669617%, 8.628845%)" d="M 0 0.0351562 L 604.5 0.0351562 L 604.5 384.785156 L 0 384.785156 Z M 0 0.0351562 " fill-opacity="1" fill-rule="nonzero"/></g><g clip-path="url(#id2)"><path fill="rgb(93.328857%, 36.859131%, 25.099182%)" d="M 58.550781 12.8125 L 64.761719 20.652344 L 73.738281 16.300781 L 75.953125 26.078125 L 85.914062 26.078125 L 83.699219 35.855469 L 92.675781 40.207031 L 86.464844 48.050781 L 92.675781 55.890625 L 83.699219 60.242188 L 85.914062 70.019531 L 75.953125 70.019531 L 73.738281 79.796875 L 64.761719 75.445312 L 58.550781 83.289062 L 52.339844 75.445312 L 43.363281 79.796875 L 41.144531 70.019531 L 31.183594 70.019531 L 33.402344 60.242188 L 24.425781 55.890625 L 30.636719 48.050781 L 24.425781 40.207031 L 33.402344 35.855469 L 31.183594 26.078125 L 41.144531 26.078125 L 43.363281 16.300781 L 52.339844 20.652344 Z M 58.550781 12.8125 " fill-opacity="1" fill-rule="nonzero"/></g><g clip-path="url(#id3)"><path fill="rgb(100%, 78.819275%, 39.99939%)" d="M -1.90625 114.554688 C 21.707031 114.554688 40.84375 133.855469 40.84375 157.671875 C 40.84375 181.488281 21.707031 200.71875 -1.90625 200.71875 Z M -1.90625 114.554688 " fill-opacity="1" fill-rule="nonzero"/></g><g clip-path="url(#id4)"><g clip-path="url(#id5)"><g clip-path="url(#id6)"><g clip-path="url(#id7)"><path fill="rgb(90.979004%, 52.549744%, 51.759338%)" d="M 101.253906 80.777344 C 113.082031 86.308594 118.191406 100.40625 112.660156 112.230469 C 107.128906 124.054688 93.03125 129.164062 81.207031 123.628906 L 76.933594 132.769531 C 93.816406 140.667969 113.902344 133.390625 121.800781 116.507812 C 129.699219 99.625 122.390625 79.589844 105.507812 71.691406 Z M 101.253906 80.777344 " fill-opacity="1" fill-rule="nonzero"/></g></g></g></g><g clip-path="url(#id8)"><g clip-path="url(#id9)"><g clip-path="url(#id10)"><g clip-path="url(#id11)"><path fill="rgb(100%, 58.428955%, 27.059937%)" d="M 36.273438 413.28125 C 47.796875 398.933594 61.390625 386.53125 74.714844 373.925781 C 78.53125 370.320312 82.324219 366.683594 86.039062 362.957031 C 86.976562 362.027344 87.40625 360.285156 87.273438 359.007812 C 87.136719 357.730469 86.441406 356.226562 85.402344 355.429688 C 84.289062 354.5625 82.875 353.96875 81.433594 354.179688 C 79.996094 354.375 78.871094 354.996094 77.847656 356.023438 C 64.875 369 50.90625 381.003906 38.386719 394.46875 C 34.816406 398.296875 31.378906 402.253906 28.105469 406.308594 C 26.351562 408.488281 26.390625 412.027344 28.734375 413.847656 C 30.96875 415.601562 34.421875 415.605469 36.273438 413.28125 Z M 36.273438 413.28125 " fill-opacity="1" fill-rule="nonzero"/></g></g></g></g><g clip-path="url(#id12)"><g clip-path="url(#id13)"><g clip-path="url(#id14)"><path fill="rgb(7.839966%, 31.369019%, 61.959839%)" d="M 55.734375 259.496094 C 55.152344 259.949219 52.480469 261.808594 51.445312 262.382812 C 50.636719 262.835938 48.976562 263.410156 47.5625 263.246094 C 46.03125 263.0625 44.859375 262.046875 44.402344 261.667969 C 43.351562 260.769531 42.253906 259.933594 41.105469 259.15625 C 39.828125 258.3125 38.4375 257.710938 36.9375 257.347656 C 35.441406 256.984375 33.925781 256.886719 32.390625 257.050781 C 29.15625 257.4375 26.363281 258.894531 23.730469 260.730469 C 22.722656 261.433594 21.738281 262.167969 20.707031 262.839844 C 19.878906 263.339844 19.003906 263.738281 18.085938 264.039062 C 16.90625 264.300781 15.722656 264.308594 14.539062 264.0625 C 12.328125 263.414062 9.898438 261.527344 9.511719 261.183594 C 7.191406 259.078125 3.136719 258.921875 0.957031 261.367188 C -1.171875 263.746094 -1.347656 267.519531 1.136719 269.777344 C 4.5 272.824219 8.25 275.296875 13.011719 276.109375 C 16.066406 276.652344 19.070312 276.441406 22.015625 275.472656 C 24.394531 274.664062 26.507812 273.371094 28.535156 271.941406 C 29.390625 271.335938 30.238281 270.71875 31.101562 270.144531 C 31.523438 269.867188 32.894531 269.105469 33.816406 269.152344 C 34.742188 269.203125 36.015625 270.273438 36.351562 270.5625 C 37.367188 271.421875 38.433594 272.21875 39.546875 272.953125 C 41.9375 274.4375 44.546875 275.203125 47.375 275.25 C 53.804688 275.480469 60.210938 272.046875 64.648438 267.503906 C 66.835938 265.261719 66.871094 261.175781 64.46875 259.089844 C 61.945312 256.921875 57.449219 258.164062 55.734375 259.496094 Z M 55.734375 259.496094 " fill-opacity="1" fill-rule="nonzero"/></g></g></g><g clip-path="url(#id15)"><path fill="rgb(100%, 100%, 100%)" d="M 124.636719 19.609375 C 124.597656 19.460938 124.457031 19.371094 124.304688 19.410156 C 124.207031 19.429688 124.125 19.511719 124.101562 19.609375 C 123.625 21.394531 122.4375 24.695312 119.828125 26.710938 C 118.015625 28.109375 115.890625 29.078125 113.640625 29.53125 C 113.492188 29.5625 113.394531 29.703125 113.425781 29.851562 C 113.445312 29.957031 113.523438 30.03125 113.621094 30.058594 C 115.449219 30.566406 118.628906 31.675781 120.242188 33.558594 C 121.515625 35.046875 122.648438 38.777344 123.144531 40.597656 C 123.1875 40.742188 123.339844 40.832031 123.480469 40.785156 C 123.570312 40.761719 123.644531 40.6875 123.667969 40.597656 C 124.179688 38.746094 125.5 34.914062 127.964844 33.28125 C 130.171875 31.824219 132.621094 31.09375 134.011719 30.765625 C 134.160156 30.730469 134.242188 30.582031 134.203125 30.433594 C 134.183594 30.34375 134.113281 30.269531 134.023438 30.246094 C 132.351562 29.753906 129.242188 28.644531 127.964844 26.984375 C 125.984375 24.410156 125.039062 21.308594 124.636719 19.609375 Z M 138.503906 34.90625 C 138.480469 34.816406 138.390625 34.765625 138.300781 34.785156 C 138.238281 34.800781 138.195312 34.847656 138.179688 34.90625 C 137.886719 36 137.160156 38.015625 135.5625 39.246094 C 134.453125 40.101562 133.15625 40.6875 131.773438 40.964844 C 131.683594 40.980469 131.625 41.070312 131.648438 41.15625 C 131.664062 41.21875 131.707031 41.269531 131.769531 41.285156 C 132.886719 41.597656 134.835938 42.265625 135.816406 43.421875 C 136.597656 44.328125 137.289062 46.613281 137.59375 47.730469 C 137.617188 47.820312 137.714844 47.871094 137.796875 47.847656 C 137.855469 47.835938 137.894531 47.789062 137.917969 47.730469 C 138.230469 46.597656 139.035156 44.253906 140.542969 43.257812 C 141.890625 42.363281 143.390625 41.917969 144.238281 41.714844 C 144.328125 41.695312 144.382812 41.605469 144.359375 41.515625 C 144.34375 41.457031 144.300781 41.410156 144.246094 41.394531 C 143.21875 41.089844 141.320312 40.421875 140.542969 39.402344 C 139.328125 37.84375 138.75 35.949219 138.503906 34.90625 Z M 143.984375 22.460938 C 143.96875 22.402344 143.910156 22.363281 143.847656 22.378906 C 143.8125 22.386719 143.78125 22.414062 143.765625 22.460938 C 143.570312 23.191406 143.089844 24.523438 142.027344 25.339844 C 141.292969 25.90625 140.429688 26.300781 139.515625 26.488281 C 139.453125 26.503906 139.417969 26.554688 139.425781 26.613281 C 139.433594 26.660156 139.460938 26.6875 139.507812 26.695312 C 140.25 26.902344 141.539062 27.351562 142.199219 28.117188 C 142.714844 28.71875 143.175781 30.238281 143.375 30.976562 C 143.390625 31.035156 143.453125 31.066406 143.511719 31.050781 C 143.550781 31.042969 143.578125 31.011719 143.585938 30.976562 C 143.796875 30.222656 144.328125 28.667969 145.332031 28.003906 C 146.226562 27.410156 147.222656 27.121094 147.792969 26.984375 C 147.855469 26.972656 147.890625 26.910156 147.875 26.851562 C 147.867188 26.816406 147.839844 26.785156 147.800781 26.769531 C 147.117188 26.570312 145.859375 26.121094 145.339844 25.445312 C 144.539062 24.410156 144.148438 23.152344 143.984375 22.460938 Z M 143.984375 22.460938 " fill-opacity="1" fill-rule="nonzero"/></g><g clip-path="url(#id16)"><g clip-path="url(#id17)"><g clip-path="url(#id18)"><path fill="rgb(100%, 100%, 100%)" d="M 60.402344 340.667969 C 60.464844 340.808594 60.621094 340.871094 60.761719 340.808594 C 60.855469 340.769531 60.921875 340.671875 60.925781 340.574219 C 61.085938 338.730469 61.675781 335.277344 63.890625 332.835938 C 65.433594 331.136719 67.351562 329.8125 69.488281 328.972656 C 69.628906 328.917969 69.703125 328.761719 69.644531 328.621094 C 69.605469 328.519531 69.519531 328.460938 69.417969 328.449219 C 67.527344 328.269531 64.203125 327.734375 62.285156 326.164062 C 60.769531 324.921875 59 321.449219 58.195312 319.742188 C 58.125 319.609375 57.960938 319.546875 57.828125 319.617188 C 57.746094 319.65625 57.683594 319.742188 57.679688 319.832031 C 57.5 321.746094 56.871094 325.75 54.730469 327.789062 C 52.8125 329.613281 50.527344 330.757812 49.21875 331.324219 C 49.078125 331.386719 49.023438 331.550781 49.085938 331.6875 C 49.125 331.773438 49.203125 331.835938 49.296875 331.839844 C 51.027344 332.03125 54.285156 332.578125 55.832031 333.988281 C 58.234375 336.175781 59.707031 339.066406 60.402344 340.667969 Z M 44.070312 328.039062 C 44.109375 328.121094 44.207031 328.15625 44.292969 328.121094 C 44.347656 328.09375 44.382812 328.042969 44.390625 327.980469 C 44.484375 326.851562 44.847656 324.738281 46.207031 323.25 C 47.148438 322.214844 48.324219 321.40625 49.632812 320.894531 C 49.71875 320.863281 49.761719 320.765625 49.722656 320.679688 C 49.699219 320.625 49.644531 320.582031 49.582031 320.578125 C 48.429688 320.464844 46.390625 320.148438 45.222656 319.183594 C 44.296875 318.425781 43.214844 316.296875 42.71875 315.253906 C 42.679688 315.167969 42.574219 315.132812 42.496094 315.171875 C 42.441406 315.195312 42.410156 315.246094 42.398438 315.308594 C 42.289062 316.476562 41.910156 318.925781 40.601562 320.171875 C 39.425781 321.289062 38.027344 321.992188 37.230469 322.335938 C 37.144531 322.375 37.109375 322.472656 37.148438 322.554688 C 37.171875 322.613281 37.222656 322.648438 37.277344 322.652344 C 38.34375 322.773438 40.328125 323.101562 41.277344 323.96875 C 42.742188 325.289062 43.644531 327.054688 44.070312 328.039062 Z M 40.855469 341.25 C 40.878906 341.304688 40.945312 341.332031 41.003906 341.308594 C 41.039062 341.292969 41.0625 341.257812 41.070312 341.210938 C 41.132812 340.460938 41.371094 339.0625 42.277344 338.070312 C 42.902344 337.386719 43.679688 336.847656 44.550781 336.503906 C 44.605469 336.476562 44.632812 336.421875 44.617188 336.363281 C 44.601562 336.320312 44.566406 336.296875 44.519531 336.296875 C 43.753906 336.222656 42.40625 336.007812 41.621094 335.367188 C 41.003906 334.867188 40.289062 333.449219 39.960938 332.761719 C 39.9375 332.703125 39.871094 332.6875 39.816406 332.710938 C 39.78125 332.726562 39.753906 332.757812 39.753906 332.796875 C 39.679688 333.574219 39.425781 335.199219 38.554688 336.027344 C 37.78125 336.769531 36.847656 337.230469 36.3125 337.460938 C 36.253906 337.488281 36.226562 337.554688 36.253906 337.609375 C 36.265625 337.644531 36.300781 337.667969 36.339844 337.675781 C 37.046875 337.753906 38.367188 337.972656 38.996094 338.550781 C 39.964844 339.429688 40.570312 340.597656 40.855469 341.25 Z M 40.855469 341.25 " fill-opacity="1" fill-rule="nonzero"/></g></g></g><g clip-path="url(#id19)"><g clip-path="url(#id20)"><g clip-path="url(#id21)"><path fill="rgb(38.819885%, 81.959534%, 61.959839%)" d="M 61.25 197.101562 L 34.4375 212.90625 L 77.054688 223.914062 L 119.675781 234.921875 L 103.867188 208.109375 L 88.0625 181.296875 Z M 61.25 197.101562 " fill-opacity="1" fill-rule="nonzero"/></g></g></g><g clip-path="url(#id22)"><path fill="rgb(93.328857%, 47.44873%, 73.728943%)" d="M 130.1875 296.878906 C 130.164062 296.882812 130.140625 296.886719 130.117188 296.894531 C 129.601562 297.054688 129.035156 297.125 128.507812 297.234375 C 127.375 297.476562 126.246094 297.714844 125.113281 297.957031 C 122.503906 298.511719 119.890625 299.066406 117.28125 299.621094 C 119.921875 301.261719 122.566406 302.902344 125.207031 304.542969 C 126.398438 305.28125 127.589844 306.019531 128.78125 306.761719 C 128.875 306.820312 128.925781 306.953125 128.859375 307.050781 C 127.726562 308.71875 126.59375 310.382812 125.460938 312.050781 C 125.398438 312.140625 125.273438 312.191406 125.171875 312.125 C 125.152344 312.113281 125.132812 312.097656 125.113281 312.085938 C 124.632812 311.832031 124.183594 311.484375 123.730469 311.1875 C 122.761719 310.558594 121.792969 309.929688 120.824219 309.300781 C 118.652344 307.890625 116.480469 306.476562 114.308594 305.066406 C 115.171875 308 116.035156 310.929688 116.898438 313.863281 C 117.292969 315.207031 117.691406 316.554688 118.085938 317.898438 C 118.121094 318.007812 118.050781 318.132812 117.941406 318.160156 C 115.984375 318.648438 114.03125 319.136719 112.078125 319.625 C 111.964844 319.65625 111.847656 319.589844 111.816406 319.480469 C 111.8125 319.457031 111.804688 319.433594 111.796875 319.410156 C 111.617188 318.898438 111.507812 318.34375 111.367188 317.820312 C 111.0625 316.707031 110.757812 315.589844 110.453125 314.476562 C 109.726562 311.808594 109 309.140625 108.273438 306.472656 C 106.769531 309.226562 105.269531 311.984375 103.765625 314.742188 C 103.097656 315.972656 102.425781 317.203125 101.753906 318.4375 C 101.699219 318.535156 101.558594 318.570312 101.464844 318.511719 C 99.734375 317.476562 98.007812 316.441406 96.28125 315.402344 C 96.183594 315.34375 96.148438 315.214844 96.207031 315.113281 C 96.21875 315.09375 96.230469 315.074219 96.242188 315.050781 C 96.476562 314.5625 96.789062 314.09375 97.058594 313.621094 C 97.632812 312.621094 98.207031 311.617188 98.78125 310.613281 C 100.3125 307.933594 101.84375 305.253906 103.375 302.574219 C 103.207031 302.609375 103.035156 302.648438 102.867188 302.683594 C 99.582031 303.378906 96.296875 304.078125 93.015625 304.777344 C 91.640625 305.066406 90.265625 305.359375 88.894531 305.652344 C 88.871094 305.65625 88.851562 305.652344 88.832031 305.652344 C 88.742188 305.660156 88.65625 305.617188 88.632812 305.503906 C 88.296875 303.8125 87.964844 302.117188 87.628906 300.425781 C 87.609375 300.316406 87.660156 300.191406 87.777344 300.164062 C 87.800781 300.160156 87.824219 300.15625 87.847656 300.148438 C 88.363281 299.980469 88.921875 299.898438 89.449219 299.773438 C 90.582031 299.507812 91.714844 299.246094 92.851562 298.980469 C 95.8125 298.285156 98.773438 297.59375 101.734375 296.898438 C 98.925781 295.074219 96.113281 293.25 93.304688 291.421875 C 92.125 290.65625 90.949219 289.894531 89.769531 289.128906 C 89.75 289.113281 89.734375 289.097656 89.71875 289.078125 C 89.660156 289.019531 89.632812 288.933594 89.695312 288.839844 C 90.652344 287.40625 91.613281 285.972656 92.574219 284.539062 C 92.636719 284.445312 92.761719 284.398438 92.863281 284.464844 C 92.882812 284.476562 92.902344 284.488281 92.925781 284.5 C 93.40625 284.746094 93.863281 285.082031 94.324219 285.367188 C 95.3125 285.980469 96.300781 286.597656 97.289062 287.210938 C 99.589844 288.640625 101.894531 290.066406 104.195312 291.496094 C 103.40625 288.601562 102.617188 285.707031 101.828125 282.8125 C 101.460938 281.457031 101.089844 280.101562 100.722656 278.746094 C 100.707031 278.695312 100.714844 278.652344 100.730469 278.613281 C 100.75 278.554688 100.792969 278.507812 100.867188 278.488281 C 102.539062 278.058594 104.210938 277.628906 105.882812 277.199219 C 105.992188 277.167969 106.109375 277.234375 106.140625 277.347656 C 106.148438 277.367188 106.152344 277.390625 106.160156 277.414062 C 106.351562 277.925781 106.472656 278.472656 106.625 278.992188 C 106.957031 280.109375 107.285156 281.226562 107.613281 282.34375 C 108.445312 285.164062 109.273438 287.984375 110.105469 290.804688 C 111.761719 287.910156 113.414062 285.019531 115.070312 282.125 C 115.765625 280.90625 116.464844 279.6875 117.160156 278.464844 C 117.191406 278.414062 117.234375 278.386719 117.277344 278.375 C 117.28125 278.371094 117.285156 278.371094 117.289062 278.371094 C 117.296875 278.367188 117.300781 278.367188 117.308594 278.367188 C 117.351562 278.359375 117.402344 278.359375 117.449219 278.390625 C 118.9375 279.269531 120.421875 280.144531 121.90625 281.023438 C 122.007812 281.082031 122.039062 281.210938 121.984375 281.3125 C 121.972656 281.335938 121.957031 281.355469 121.949219 281.375 C 121.722656 281.871094 121.421875 282.34375 121.160156 282.820312 C 120.605469 283.84375 120.046875 284.863281 119.488281 285.886719 C 118.0625 288.507812 116.632812 291.128906 115.207031 293.75 C 118.417969 292.996094 121.632812 292.246094 124.84375 291.492188 C 126.210938 291.175781 127.578125 290.855469 128.941406 290.535156 C 129.046875 290.511719 129.179688 290.566406 129.203125 290.683594 C 129.582031 292.660156 129.957031 294.640625 130.335938 296.617188 C 130.355469 296.726562 130.304688 296.855469 130.1875 296.878906 Z M 130.1875 296.878906 " fill-opacity="1" fill-rule="nonzero"/></g><g clip-path="url(#id23)"><path fill="rgb(100%, 100%, 100%)" d="M 182.035156 360.421875 C 176.738281 359.324219 171.304688 358.648438 165.886719 358.929688 C 164.433594 359.003906 162.984375 359.152344 161.546875 359.378906 C 158.753906 354.425781 154.714844 350.238281 149.855469 347.277344 C 145.242188 344.46875 139.96875 342.789062 134.585938 342.390625 C 131.488281 342.160156 128.367188 342.363281 125.324219 342.96875 C 125.230469 342.988281 125.179688 343.09375 125.203125 343.179688 C 125.566406 344.496094 125.929688 345.8125 126.292969 347.128906 C 126.316406 347.222656 126.410156 347.265625 126.5 347.246094 C 130.941406 346.363281 135.566406 346.550781 139.9375 347.730469 C 144.277344 348.90625 148.363281 351.0625 151.71875 354.066406 C 153.785156 355.914062 155.550781 358.074219 157.015625 360.429688 C 153.824219 361.417969 150.8125 362.929688 148.199219 365.023438 C 145.566406 367.132812 143.363281 369.78125 141.679688 372.703125 C 140.039062 375.546875 138.882812 378.675781 138.304688 381.910156 C 137.722656 385.179688 137.671875 388.636719 138.601562 391.851562 C 139.011719 393.261719 139.601562 394.652344 140.527344 395.804688 C 141.316406 396.785156 142.335938 397.566406 143.480469 398.089844 C 145.765625 399.132812 148.40625 399.167969 150.820312 398.601562 C 156.785156 397.195312 161.328125 392.195312 163.640625 386.714844 C 166.417969 380.128906 166.464844 372.632812 164.34375 365.855469 C 164.101562 365.082031 163.824219 364.316406 163.527344 363.558594 C 168.023438 363.058594 172.578125 363.320312 177.039062 364.007812 C 178.316406 364.203125 179.589844 364.4375 180.855469 364.699219 C 180.945312 364.714844 181.039062 364.671875 181.066406 364.578125 C 181.429688 363.261719 181.792969 361.945312 182.15625 360.628906 C 182.175781 360.546875 182.125 360.4375 182.035156 360.421875 Z M 160.980469 380.445312 C 160.140625 384.460938 158.347656 388.347656 155.328125 391.191406 C 154.039062 392.40625 152.496094 393.390625 150.847656 394.027344 C 149.242188 394.648438 147.375 394.992188 145.726562 394.332031 C 143.90625 393.605469 143.070312 391.847656 142.710938 390.027344 C 142.296875 387.929688 142.285156 385.703125 142.550781 383.585938 C 143.09375 379.246094 144.976562 375.046875 147.761719 371.675781 C 150.386719 368.5 153.839844 366.101562 157.746094 364.78125 C 158.1875 364.632812 158.632812 364.5 159.082031 364.378906 C 160.765625 368.277344 161.652344 372.539062 161.445312 376.789062 C 161.382812 378.019531 161.230469 379.238281 160.980469 380.445312 Z M 160.980469 380.445312 " fill-opacity="1" fill-rule="nonzero"/></g><g clip-path="url(#id24)"><path fill="rgb(93.328857%, 36.859131%, 25.099182%)" d="M 506.765625 334.195312 L 500.964844 326.9375 L 492.582031 330.964844 L 490.507812 321.914062 L 481.203125 321.914062 L 483.273438 312.863281 L 474.890625 308.835938 L 480.691406 301.578125 L 474.890625 294.320312 L 483.273438 290.292969 L 481.203125 281.242188 L 490.507812 281.242188 L 492.582031 272.195312 L 500.964844 276.222656 L 506.765625 268.964844 L 512.566406 276.222656 L 520.953125 272.195312 L 523.023438 281.242188 L 532.328125 281.242188 L 530.257812 290.292969 L 538.640625 294.320312 L 532.839844 301.578125 L 538.640625 308.835938 L 530.257812 312.863281 L 532.328125 321.914062 L 523.023438 321.914062 L 520.953125 330.964844 L 512.566406 326.9375 Z M 506.765625 334.195312 " fill-opacity="1" fill-rule="nonzero"/></g><g clip-path="url(#id25)"><g clip-path="url(#id26)"><g clip-path="url(#id27)"><g clip-path="url(#id28)"><path fill="rgb(100%, 78.819275%, 39.99939%)" d="M 485.019531 234.722656 C 473.492188 215.550781 479.828125 190.585938 499.175781 178.953125 C 518.523438 167.320312 543.484375 173.46875 555.011719 192.640625 Z M 485.019531 234.722656 " fill-opacity="1" fill-rule="nonzero"/></g></g></g></g><g clip-path="url(#id29)"><g clip-path="url(#id30)"><g clip-path="url(#id31)"><g clip-path="url(#id32)"><path fill="rgb(90.979004%, 52.549744%, 51.759338%)" d="M 565.222656 330.847656 C 571.570312 342.253906 567.464844 356.675781 556.058594 363.023438 C 544.652344 369.371094 530.230469 365.261719 523.882812 353.855469 L 515.066406 358.761719 C 524.132812 375.050781 544.679688 380.90625 560.964844 371.84375 C 577.253906 362.777344 583.054688 342.257812 573.988281 325.96875 Z M 565.222656 330.847656 " fill-opacity="1" fill-rule="nonzero"/></g></g></g></g><g clip-path="url(#id33)"><g clip-path="url(#id34)"><g clip-path="url(#id35)"><g clip-path="url(#id36)"><path fill="rgb(100%, 58.428955%, 27.059937%)" d="M 586.199219 -15.703125 C 574.679688 -1.355469 561.082031 11.046875 547.761719 23.652344 C 543.945312 27.257812 540.152344 30.894531 536.4375 34.621094 C 535.496094 35.550781 535.066406 37.292969 535.203125 38.570312 C 535.339844 39.847656 536.03125 41.351562 537.074219 42.148438 C 538.1875 43.015625 539.601562 43.609375 541.042969 43.398438 C 542.480469 43.203125 543.605469 42.582031 544.628906 41.554688 C 557.601562 28.578125 571.570312 16.574219 584.089844 3.109375 C 587.660156 -0.71875 591.097656 -4.675781 594.371094 -8.730469 C 596.121094 -10.910156 596.082031 -14.449219 593.742188 -16.269531 C 591.507812 -18.023438 588.054688 -18.027344 586.199219 -15.703125 Z M 586.199219 -15.703125 " fill-opacity="1" fill-rule="nonzero"/></g></g></g></g><g clip-path="url(#id37)"><g clip-path="url(#id38)"><g clip-path="url(#id39)"><path fill="rgb(7.839966%, 31.369019%, 61.959839%)" d="M 542.835938 149.386719 C 543.417969 148.9375 546.089844 147.078125 547.121094 146.503906 C 547.933594 146.050781 549.59375 145.472656 551.007812 145.640625 C 552.539062 145.824219 553.710938 146.839844 554.167969 147.214844 C 555.21875 148.113281 556.316406 148.953125 557.460938 149.730469 C 558.742188 150.574219 560.132812 151.175781 561.628906 151.539062 C 563.128906 151.898438 564.644531 152 566.175781 151.835938 C 569.414062 151.449219 572.207031 149.992188 574.839844 148.15625 C 575.847656 147.453125 576.832031 146.71875 577.863281 146.042969 C 578.691406 145.546875 579.566406 145.144531 580.484375 144.847656 C 581.664062 144.585938 582.847656 144.578125 584.027344 144.820312 C 586.242188 145.46875 588.671875 147.355469 589.054688 147.703125 C 591.378906 149.808594 595.433594 149.964844 597.613281 147.519531 C 599.742188 145.140625 599.917969 141.367188 597.433594 139.105469 C 594.070312 136.0625 590.320312 133.585938 585.558594 132.773438 C 582.5 132.234375 579.5 132.445312 576.554688 133.410156 C 574.175781 134.21875 572.0625 135.511719 570.035156 136.945312 C 569.179688 137.546875 568.332031 138.164062 567.46875 138.742188 C 567.042969 139.015625 565.675781 139.78125 564.753906 139.730469 C 563.828125 139.683594 562.554688 138.613281 562.214844 138.324219 C 561.203125 137.460938 560.136719 136.664062 559.023438 135.933594 C 556.632812 134.449219 554.023438 133.683594 551.195312 133.632812 C 544.765625 133.40625 538.359375 136.835938 533.921875 141.382812 C 531.734375 143.625 531.699219 147.710938 534.101562 149.796875 C 536.625 151.960938 541.121094 150.71875 542.835938 149.386719 Z M 542.835938 149.386719 " fill-opacity="1" fill-rule="nonzero"/></g></g></g><g clip-path="url(#id40)"><path fill="rgb(100%, 100%, 100%)" d="M 456.816406 374.570312 C 456.855469 374.71875 456.996094 374.808594 457.148438 374.773438 C 457.246094 374.75 457.328125 374.667969 457.351562 374.570312 C 457.828125 372.785156 459.015625 369.488281 461.625 367.46875 C 463.4375 366.070312 465.5625 365.101562 467.8125 364.648438 C 467.960938 364.621094 468.058594 364.476562 468.027344 364.328125 C 468.007812 364.226562 467.929688 364.152344 467.832031 364.121094 C 466.003906 363.613281 462.824219 362.503906 461.210938 360.621094 C 459.9375 359.132812 458.804688 355.40625 458.308594 353.582031 C 458.265625 353.441406 458.113281 353.351562 457.972656 353.394531 C 457.882812 353.417969 457.808594 353.492188 457.785156 353.582031 C 457.273438 355.433594 455.953125 359.269531 453.488281 360.898438 C 451.28125 362.355469 448.832031 363.085938 447.441406 363.414062 C 447.292969 363.449219 447.210938 363.601562 447.25 363.75 C 447.269531 363.835938 447.339844 363.914062 447.429688 363.933594 C 449.101562 364.425781 452.210938 365.535156 453.488281 367.195312 C 455.46875 369.769531 456.414062 372.875 456.816406 374.570312 Z M 442.953125 359.273438 C 442.972656 359.363281 443.0625 359.417969 443.152344 359.394531 C 443.214844 359.378906 443.257812 359.335938 443.273438 359.273438 C 443.566406 358.179688 444.292969 356.164062 445.890625 354.9375 C 447 354.078125 448.296875 353.492188 449.679688 353.214844 C 449.769531 353.203125 449.828125 353.113281 449.804688 353.023438 C 449.789062 352.964844 449.746094 352.910156 449.6875 352.894531 C 448.566406 352.582031 446.617188 351.914062 445.636719 350.761719 C 444.855469 349.851562 444.167969 347.566406 443.859375 346.449219 C 443.835938 346.359375 443.738281 346.308594 443.65625 346.332031 C 443.597656 346.347656 443.558594 346.390625 443.535156 346.449219 C 443.222656 347.582031 442.417969 349.925781 440.910156 350.925781 C 439.5625 351.816406 438.0625 352.261719 437.214844 352.464844 C 437.125 352.488281 437.070312 352.578125 437.09375 352.664062 C 437.109375 352.726562 437.15625 352.769531 437.207031 352.785156 C 438.234375 353.089844 440.132812 353.757812 440.910156 354.78125 C 442.125 356.335938 442.703125 358.234375 442.953125 359.273438 Z M 437.46875 371.71875 C 437.484375 371.78125 437.542969 371.816406 437.605469 371.800781 C 437.640625 371.792969 437.671875 371.765625 437.6875 371.71875 C 437.882812 370.992188 438.363281 369.660156 439.425781 368.839844 C 440.160156 368.273438 441.023438 367.878906 441.9375 367.695312 C 442 367.679688 442.035156 367.625 442.027344 367.566406 C 442.019531 367.523438 441.992188 367.492188 441.945312 367.484375 C 441.203125 367.277344 439.914062 366.828125 439.253906 366.0625 C 438.738281 365.460938 438.277344 363.941406 438.078125 363.207031 C 438.0625 363.144531 438 363.117188 437.941406 363.128906 C 437.90625 363.136719 437.875 363.167969 437.867188 363.207031 C 437.65625 363.957031 437.125 365.511719 436.121094 366.175781 C 435.226562 366.769531 434.230469 367.0625 433.660156 367.195312 C 433.601562 367.210938 433.5625 367.269531 433.578125 367.328125 C 433.585938 367.367188 433.613281 367.394531 433.652344 367.410156 C 434.335938 367.613281 435.59375 368.058594 436.113281 368.734375 C 436.914062 369.769531 437.304688 371.027344 437.46875 371.71875 Z M 437.46875 371.71875 " fill-opacity="1" fill-rule="nonzero"/></g><g clip-path="url(#id41)"><g clip-path="url(#id42)"><g clip-path="url(#id43)"><path fill="rgb(100%, 100%, 100%)" d="M 557.527344 58.582031 C 557.464844 58.441406 557.308594 58.378906 557.167969 58.441406 C 557.078125 58.480469 557.007812 58.578125 557.003906 58.675781 C 556.84375 60.519531 556.253906 63.972656 554.039062 66.417969 C 552.5 68.113281 550.578125 69.4375 548.441406 70.277344 C 548.300781 70.332031 548.230469 70.488281 548.285156 70.632812 C 548.324219 70.730469 548.414062 70.789062 548.511719 70.800781 C 550.402344 70.980469 553.726562 71.515625 555.644531 73.085938 C 557.160156 74.328125 558.929688 77.800781 559.738281 79.511719 C 559.804688 79.640625 559.96875 79.703125 560.101562 79.632812 C 560.1875 79.597656 560.246094 79.507812 560.253906 79.417969 C 560.429688 77.503906 561.058594 73.5 563.203125 71.460938 C 565.117188 69.640625 567.402344 68.492188 568.710938 67.925781 C 568.851562 67.863281 568.910156 67.703125 568.84375 67.5625 C 568.808594 67.476562 568.726562 67.417969 568.636719 67.410156 C 566.902344 67.21875 563.644531 66.671875 562.097656 65.261719 C 559.699219 63.074219 558.222656 60.183594 557.527344 58.582031 Z M 573.859375 71.210938 C 573.820312 71.128906 573.722656 71.09375 573.640625 71.132812 C 573.582031 71.15625 573.546875 71.207031 573.542969 71.269531 C 573.445312 72.398438 573.082031 74.511719 571.726562 76 C 570.785156 77.039062 569.609375 77.84375 568.296875 78.355469 C 568.210938 78.386719 568.167969 78.484375 568.207031 78.570312 C 568.230469 78.625 568.285156 78.667969 568.347656 78.671875 C 569.503906 78.785156 571.539062 79.101562 572.707031 80.066406 C 573.636719 80.824219 574.714844 82.953125 575.214844 84 C 575.25 84.082031 575.355469 84.117188 575.433594 84.078125 C 575.492188 84.054688 575.519531 84.003906 575.53125 83.941406 C 575.644531 82.773438 576.023438 80.324219 577.332031 79.078125 C 578.503906 77.960938 579.902344 77.257812 580.703125 76.914062 C 580.785156 76.875 580.820312 76.777344 580.785156 76.695312 C 580.757812 76.636719 580.707031 76.601562 580.652344 76.597656 C 579.585938 76.476562 577.601562 76.148438 576.65625 75.28125 C 575.1875 73.960938 574.285156 72.195312 573.859375 71.210938 Z M 577.078125 58 C 577.050781 57.945312 576.984375 57.917969 576.929688 57.941406 C 576.894531 57.957031 576.871094 57.992188 576.863281 58.039062 C 576.796875 58.789062 576.558594 60.1875 575.652344 61.179688 C 575.03125 61.863281 574.25 62.402344 573.382812 62.746094 C 573.324219 62.773438 573.296875 62.832031 573.316406 62.886719 C 573.332031 62.929688 573.367188 62.953125 573.410156 62.953125 C 574.179688 63.027344 575.527344 63.242188 576.308594 63.882812 C 576.925781 64.386719 577.640625 65.800781 577.96875 66.488281 C 577.996094 66.546875 578.058594 66.5625 578.117188 66.539062 C 578.152344 66.523438 578.175781 66.492188 578.175781 66.453125 C 578.253906 65.675781 578.503906 64.050781 579.378906 63.222656 C 580.152344 62.480469 581.082031 62.019531 581.621094 61.789062 C 581.675781 61.761719 581.703125 61.699219 581.679688 61.640625 C 581.664062 61.605469 581.628906 61.582031 581.589844 61.574219 C 580.882812 61.496094 579.5625 61.277344 578.9375 60.699219 C 577.964844 59.824219 577.359375 58.652344 577.078125 58 Z M 577.078125 58 " fill-opacity="1" fill-rule="nonzero"/></g></g></g><g clip-path="url(#id44)"><g clip-path="url(#id45)"><g clip-path="url(#id46)"><path fill="rgb(38.819885%, 81.959534%, 61.959839%)" d="M 561.753906 247.183594 L 570.640625 277.011719 L 591.582031 238.296875 L 612.523438 199.578125 L 582.695312 208.464844 L 552.863281 217.355469 Z M 561.753906 247.183594 " fill-opacity="1" fill-rule="nonzero"/></g></g></g><g clip-path="url(#id47)"><path fill="rgb(93.328857%, 47.44873%, 73.728943%)" d="M 482.515625 97.46875 C 482.542969 97.464844 482.570312 97.460938 482.597656 97.453125 C 483.1875 97.269531 483.832031 97.191406 484.433594 97.0625 C 485.722656 96.789062 487.011719 96.515625 488.300781 96.242188 C 491.277344 95.609375 494.257812 94.976562 497.234375 94.34375 C 494.222656 92.472656 491.210938 90.601562 488.195312 88.734375 C 486.835938 87.890625 485.476562 87.046875 484.117188 86.199219 C 484.015625 86.136719 483.957031 85.980469 484.03125 85.871094 C 485.324219 83.972656 486.613281 82.070312 487.90625 80.171875 C 487.976562 80.066406 488.121094 80.011719 488.234375 80.085938 C 488.257812 80.101562 488.28125 80.117188 488.304688 80.128906 C 488.851562 80.417969 489.363281 80.816406 489.878906 81.152344 C 490.984375 81.871094 492.089844 82.589844 493.195312 83.304688 C 495.671875 84.914062 498.148438 86.523438 500.625 88.132812 C 499.640625 84.789062 498.65625 81.445312 497.671875 78.101562 C 497.21875 76.570312 496.765625 75.035156 496.316406 73.5 C 496.277344 73.375 496.359375 73.234375 496.484375 73.203125 C 498.710938 72.644531 500.941406 72.085938 503.167969 71.53125 C 503.296875 71.5 503.429688 71.570312 503.464844 71.699219 C 503.472656 71.726562 503.476562 71.753906 503.488281 71.777344 C 503.695312 72.363281 503.816406 72.992188 503.980469 73.589844 C 504.328125 74.859375 504.671875 76.132812 505.019531 77.402344 C 505.847656 80.445312 506.679688 83.488281 507.507812 86.53125 C 509.21875 83.390625 510.933594 80.246094 512.644531 77.101562 C 513.410156 75.699219 514.175781 74.292969 514.941406 72.886719 C 515.003906 72.773438 515.164062 72.734375 515.273438 72.800781 C 517.242188 73.984375 519.210938 75.164062 521.183594 76.347656 C 521.292969 76.414062 521.332031 76.5625 521.269531 76.675781 C 521.253906 76.699219 521.238281 76.722656 521.226562 76.746094 C 520.960938 77.304688 520.601562 77.839844 520.296875 78.375 C 519.640625 79.519531 518.988281 80.664062 518.332031 81.808594 C 516.585938 84.863281 514.839844 87.921875 513.089844 90.976562 C 513.285156 90.933594 513.476562 90.894531 513.671875 90.851562 C 517.417969 90.058594 521.160156 89.261719 524.90625 88.464844 C 526.472656 88.132812 528.039062 87.800781 529.605469 87.46875 C 529.632812 87.460938 529.65625 87.464844 529.675781 87.464844 C 529.777344 87.457031 529.878906 87.503906 529.902344 87.636719 C 530.285156 89.566406 530.667969 91.496094 531.046875 93.425781 C 531.074219 93.550781 531.011719 93.691406 530.878906 93.722656 C 530.851562 93.730469 530.824219 93.734375 530.800781 93.742188 C 530.214844 93.933594 529.574219 94.027344 528.972656 94.167969 C 527.679688 94.472656 526.386719 94.773438 525.09375 95.074219 C 521.71875 95.867188 518.339844 96.65625 514.964844 97.445312 C 518.167969 99.527344 521.375 101.609375 524.578125 103.691406 C 525.921875 104.566406 527.265625 105.4375 528.609375 106.308594 C 528.632812 106.324219 528.648438 106.34375 528.664062 106.363281 C 528.734375 106.433594 528.765625 106.53125 528.695312 106.640625 C 527.597656 108.273438 526.503906 109.910156 525.410156 111.542969 C 525.335938 111.648438 525.195312 111.699219 525.078125 111.628906 C 525.054688 111.613281 525.03125 111.597656 525.007812 111.585938 C 524.457031 111.304688 523.941406 110.921875 523.414062 110.597656 C 522.289062 109.898438 521.160156 109.195312 520.03125 108.496094 C 517.40625 106.867188 514.78125 105.238281 512.160156 103.609375 C 513.058594 106.910156 513.957031 110.210938 514.855469 113.511719 C 515.277344 115.058594 515.699219 116.601562 516.117188 118.148438 C 516.136719 118.207031 516.125 118.257812 516.105469 118.300781 C 516.085938 118.363281 516.039062 118.421875 515.949219 118.445312 C 514.046875 118.933594 512.140625 119.425781 510.234375 119.914062 C 510.105469 119.945312 509.976562 119.871094 509.9375 119.746094 C 509.929688 119.71875 509.921875 119.691406 509.914062 119.667969 C 509.699219 119.085938 509.558594 118.460938 509.382812 117.867188 C 509.007812 116.59375 508.632812 115.320312 508.257812 114.046875 C 507.3125 110.832031 506.363281 107.613281 505.417969 104.398438 C 503.53125 107.695312 501.644531 110.996094 499.757812 114.296875 C 498.960938 115.6875 498.167969 117.078125 497.371094 118.46875 C 497.335938 118.527344 497.289062 118.558594 497.238281 118.574219 C 497.234375 118.574219 497.230469 118.578125 497.226562 118.578125 C 497.21875 118.578125 497.210938 118.578125 497.203125 118.582031 C 497.152344 118.589844 497.097656 118.585938 497.042969 118.554688 C 495.347656 117.554688 493.652344 116.550781 491.960938 115.550781 C 491.84375 115.484375 491.8125 115.335938 491.875 115.222656 C 491.886719 115.195312 491.902344 115.171875 491.914062 115.148438 C 492.171875 114.585938 492.511719 114.046875 492.808594 113.503906 C 493.445312 112.335938 494.082031 111.171875 494.714844 110.003906 C 496.34375 107.015625 497.972656 104.027344 499.601562 101.039062 C 495.9375 101.898438 492.273438 102.753906 488.609375 103.613281 C 487.050781 103.976562 485.496094 104.339844 483.9375 104.707031 C 483.816406 104.734375 483.664062 104.667969 483.640625 104.535156 C 483.210938 102.28125 482.777344 100.023438 482.347656 97.765625 C 482.324219 97.644531 482.382812 97.5 482.515625 97.46875 Z M 482.515625 97.46875 " fill-opacity="1" fill-rule="nonzero"/></g><g clip-path="url(#id48)"><path fill="rgb(100%, 100%, 100%)" d="M 453.910156 29.621094 C 459.207031 30.714844 464.640625 31.390625 470.054688 31.113281 C 471.507812 31.039062 472.957031 30.886719 474.394531 30.660156 C 477.191406 35.617188 481.226562 39.800781 486.089844 42.761719 C 490.699219 45.570312 495.972656 47.25 501.355469 47.648438 C 504.453125 47.878906 507.574219 47.679688 510.621094 47.070312 C 510.710938 47.050781 510.761719 46.945312 510.738281 46.859375 C 510.378906 45.542969 510.015625 44.226562 509.652344 42.914062 C 509.625 42.820312 509.53125 42.773438 509.441406 42.792969 C 505 43.679688 500.375 43.492188 496.007812 42.308594 C 491.664062 41.132812 487.582031 38.976562 484.226562 35.972656 C 482.160156 34.125 480.390625 31.964844 478.929688 29.613281 C 482.117188 28.621094 485.128906 27.109375 487.742188 25.015625 C 490.375 22.90625 492.582031 20.257812 494.265625 17.339844 C 495.90625 14.492188 497.0625 11.367188 497.636719 8.132812 C 498.222656 4.859375 498.273438 1.402344 497.339844 -1.8125 C 496.929688 -3.222656 496.34375 -4.609375 495.417969 -5.761719 C 494.628906 -6.742188 493.609375 -7.527344 492.464844 -8.046875 C 490.175781 -9.089844 487.539062 -9.128906 485.121094 -8.558594 C 479.15625 -7.15625 474.617188 -2.15625 472.304688 3.324219 C 469.523438 9.910156 469.480469 17.40625 471.601562 24.183594 C 471.84375 24.960938 472.117188 25.726562 472.414062 26.480469 C 467.921875 26.980469 463.363281 26.71875 458.902344 26.035156 C 457.625 25.835938 456.355469 25.605469 455.085938 25.34375 C 454.996094 25.324219 454.902344 25.367188 454.878906 25.460938 C 454.515625 26.777344 454.152344 28.09375 453.789062 29.410156 C 453.765625 29.496094 453.816406 29.601562 453.910156 29.621094 Z M 474.960938 9.597656 C 475.804688 5.582031 477.597656 1.691406 480.617188 -1.152344 C 481.90625 -2.363281 483.445312 -3.347656 485.097656 -3.988281 C 486.703125 -4.609375 488.570312 -4.953125 490.21875 -4.292969 C 492.039062 -3.566406 492.871094 -1.808594 493.230469 0.0117188 C 493.644531 2.109375 493.660156 4.335938 493.394531 6.453125 C 492.847656 10.796875 490.96875 14.996094 488.183594 18.363281 C 485.554688 21.539062 482.105469 23.9375 478.195312 25.257812 C 477.757812 25.40625 477.3125 25.539062 476.863281 25.664062 C 475.179688 21.765625 474.289062 17.503906 474.5 13.25 C 474.558594 12.023438 474.714844 10.800781 474.960938 9.597656 Z M 474.960938 9.597656 " fill-opacity="1" fill-rule="nonzero"/></g><g clip-path="url(#id49)"><path fill="rgb(74.899292%, 56.858826%, 82.348633%)" d="M 374.171875 95.371094 L 363.257812 67.601562 C 360.890625 61.582031 356.308594 61.242188 353.082031 66.84375 L 346.316406 78.582031 C 332.566406 72.136719 317.519531 68.757812 302.195312 68.757812 C 274.351562 68.757812 248.175781 79.621094 228.488281 99.339844 C 208.800781 119.058594 197.957031 145.277344 197.957031 173.164062 C 197.957031 192.507812 203.289062 211.40625 213.382812 227.828125 C 213.773438 228.464844 214.230469 229.042969 214.742188 229.554688 C 217.746094 232.5625 222.527344 233.238281 226.308594 230.902344 C 230.730469 228.179688 232.105469 222.382812 229.386719 217.957031 C 221.121094 204.507812 216.75 189.023438 216.75 173.164062 C 216.75 150.304688 225.636719 128.8125 241.773438 112.648438 C 257.914062 96.484375 279.371094 87.582031 302.195312 87.582031 C 314.210938 87.582031 326.015625 90.109375 336.878906 94.949219 L 331.648438 104.027344 C 328.417969 109.632812 331 113.433594 337.386719 112.476562 L 366.855469 108.058594 C 373.246094 107.097656 376.539062 101.394531 374.171875 95.371094 " fill-opacity="1" fill-rule="nonzero"/></g><g clip-path="url(#id50)"><path fill="rgb(74.899292%, 56.858826%, 82.348633%)" d="M 392.679688 121.355469 C 390.101562 116.847656 384.359375 115.285156 379.855469 117.867188 C 375.351562 120.453125 373.796875 126.203125 376.375 130.710938 C 383.746094 143.601562 387.640625 158.28125 387.640625 173.164062 C 387.640625 196.023438 378.753906 217.515625 362.613281 233.679688 C 346.472656 249.84375 325.019531 258.746094 302.195312 258.746094 C 291.242188 258.746094 280.398438 256.617188 270.300781 252.546875 L 275.335938 243.824219 C 278.5625 238.21875 275.980469 234.417969 269.589844 235.378906 L 240.121094 239.796875 C 233.734375 240.75 230.445312 246.460938 232.808594 252.480469 L 243.722656 280.25 C 246.089844 286.273438 250.667969 286.613281 253.898438 281.007812 L 260.832031 268.976562 C 273.84375 274.613281 287.941406 277.570312 302.195312 277.570312 C 330.035156 277.570312 356.214844 266.707031 375.902344 246.988281 C 395.589844 227.269531 406.433594 201.050781 406.433594 173.164062 C 406.433594 155.003906 401.675781 137.085938 392.679688 121.355469 " fill-opacity="1" fill-rule="nonzero"/></g><path fill="rgb(100%, 100%, 100%)" d="M 249.0625 188.019531 L 265.777344 188.019531 C 267.441406 188.019531 268.710938 188.363281 269.585938 189.046875 C 270.464844 189.730469 270.902344 190.660156 270.902344 191.835938 C 270.902344 192.882812 270.554688 193.773438 269.859375 194.496094 C 269.167969 195.226562 268.113281 195.589844 266.707031 195.589844 L 243.140625 195.589844 C 241.539062 195.589844 240.289062 195.144531 239.394531 194.257812 C 238.496094 193.371094 238.046875 192.328125 238.046875 191.128906 C 238.046875 190.363281 238.335938 189.339844 238.910156 188.066406 C 239.488281 186.796875 240.117188 185.796875 240.804688 185.070312 C 243.640625 182.117188 246.203125 179.589844 248.488281 177.484375 C 250.769531 175.378906 252.402344 173.992188 253.386719 173.328125 C 255.136719 172.089844 256.59375 170.84375 257.757812 169.597656 C 258.921875 168.34375 259.804688 167.0625 260.414062 165.746094 C 261.023438 164.429688 261.328125 163.140625 261.328125 161.882812 C 261.328125 160.511719 261 159.289062 260.351562 158.210938 C 259.699219 157.128906 258.8125 156.289062 257.695312 155.691406 C 256.570312 155.09375 255.351562 154.792969 254.027344 154.792969 C 251.230469 154.792969 249.03125 156.023438 247.429688 158.480469 C 247.21875 158.800781 246.859375 159.679688 246.355469 161.113281 C 245.855469 162.546875 245.289062 163.644531 244.664062 164.414062 C 244.03125 165.183594 243.105469 165.570312 241.890625 165.570312 C 240.824219 165.570312 239.9375 165.214844 239.234375 164.511719 C 238.527344 163.804688 238.175781 162.84375 238.175781 161.625 C 238.175781 160.148438 238.507812 158.609375 239.167969 157.007812 C 239.832031 155.402344 240.816406 153.949219 242.132812 152.644531 C 243.441406 151.339844 245.109375 150.289062 247.125 149.488281 C 249.144531 148.683594 251.507812 148.28125 254.21875 148.28125 C 257.484375 148.28125 260.269531 148.796875 262.574219 149.824219 C 264.070312 150.507812 265.382812 151.449219 266.515625 152.644531 C 267.644531 153.84375 268.527344 155.226562 269.15625 156.800781 C 269.785156 158.367188 270.101562 160 270.101562 161.691406 C 270.101562 164.339844 269.445312 166.75 268.132812 168.921875 C 266.820312 171.089844 265.480469 172.789062 264.113281 174.019531 C 262.746094 175.25 260.457031 177.175781 257.242188 179.808594 C 254.03125 182.441406 251.828125 184.480469 250.632812 185.933594 C 250.121094 186.511719 249.597656 187.207031 249.0625 188.019531 " fill-opacity="1" fill-rule="nonzero"/><path fill="rgb(100%, 100%, 100%)" d="M 282.589844 178.367188 L 296.355469 178.367188 L 296.355469 159.730469 Z M 296.355469 191.515625 L 296.355469 185.550781 L 280.28125 185.550781 C 278.253906 185.550781 276.734375 185.089844 275.722656 184.171875 C 274.707031 183.25 274.199219 182.003906 274.199219 180.417969 C 274.199219 180.011719 274.277344 179.601562 274.421875 179.183594 C 274.570312 178.765625 274.796875 178.328125 275.097656 177.867188 C 275.394531 177.410156 275.703125 176.964844 276.023438 176.539062 C 276.34375 176.109375 276.738281 175.589844 277.210938 174.964844 L 294.179688 152.226562 C 295.289062 150.730469 296.203125 149.644531 296.917969 148.972656 C 297.632812 148.296875 298.492188 147.960938 299.496094 147.960938 C 302.738281 147.960938 304.363281 149.824219 304.363281 153.542969 L 304.363281 178.367188 L 305.738281 178.367188 C 307.382812 178.367188 308.703125 178.589844 309.695312 179.039062 C 310.6875 179.488281 311.183594 180.472656 311.183594 181.992188 C 311.183594 183.230469 310.777344 184.132812 309.964844 184.699219 C 309.152344 185.269531 307.9375 185.550781 306.316406 185.550781 L 304.363281 185.550781 L 304.363281 191.515625 C 304.363281 193.164062 304 194.386719 303.273438 195.1875 C 302.546875 195.992188 301.578125 196.390625 300.359375 196.390625 C 299.164062 196.390625 298.199219 195.976562 297.460938 195.15625 C 296.726562 194.335938 296.355469 193.117188 296.355469 191.515625 " fill-opacity="1" fill-rule="nonzero"/><path fill="rgb(98.039246%, 74.508667%, 5.488586%)" d="M 329.273438 154.28125 L 320.308594 191.257812 C 320.011719 192.476562 319.746094 193.4375 319.523438 194.144531 C 319.300781 194.847656 318.957031 195.402344 318.5 195.796875 C 318.039062 196.191406 317.375 196.390625 316.496094 196.390625 C 314.320312 196.390625 313.234375 195.449219 313.234375 193.566406 C 313.234375 193.078125 313.445312 191.847656 313.871094 189.878906 L 322.808594 152.898438 C 323.273438 150.933594 323.722656 149.585938 324.152344 148.859375 C 324.578125 148.132812 325.410156 147.769531 326.648438 147.769531 C 327.714844 147.769531 328.53125 148.023438 329.097656 148.539062 C 329.664062 149.050781 329.945312 149.757812 329.945312 150.65625 C 329.945312 151.320312 329.722656 152.527344 329.273438 154.28125 " fill-opacity="1" fill-rule="nonzero"/><path fill="rgb(100%, 100%, 100%)" d="M 340.996094 149.023438 L 362.320312 149.023438 C 364.371094 149.023438 365.851562 149.339844 366.769531 149.980469 C 367.6875 150.625 368.148438 151.679688 368.148438 153.15625 C 368.148438 154.054688 367.605469 155.242188 366.53125 156.71875 C 365.453125 158.191406 364.226562 159.820312 362.847656 161.609375 C 361.472656 163.394531 360.050781 165.613281 358.589844 168.261719 C 357.125 170.914062 355.789062 174.15625 354.570312 177.980469 C 354.058594 179.667969 353.695312 181.070312 353.480469 182.179688 C 353.265625 183.292969 353.03125 184.738281 352.777344 186.511719 C 352.519531 188.289062 352.296875 189.644531 352.105469 190.582031 C 351.65625 192.765625 351.023438 194.28125 350.199219 195.121094 C 349.378906 195.96875 348.28125 196.390625 346.917969 196.390625 C 345.617188 196.390625 344.566406 195.933594 343.777344 195.027344 C 342.988281 194.117188 342.59375 192.777344 342.59375 191 C 342.59375 189.632812 342.882812 187.773438 343.457031 185.421875 C 344.035156 183.070312 344.976562 180.253906 346.277344 176.96875 C 347.578125 173.691406 349.207031 170.324219 351.160156 166.867188 C 353.113281 163.414062 355.433594 159.976562 358.125 156.554688 L 340.996094 156.554688 C 339.199219 156.554688 337.863281 156.234375 336.976562 155.582031 C 336.089844 154.925781 335.648438 153.90625 335.648438 152.515625 C 335.648438 151.042969 336.113281 150.089844 337.054688 149.660156 C 337.992188 149.234375 339.308594 149.023438 340.996094 149.023438 " fill-opacity="1" fill-rule="nonzero"/><g fill="rgb(83.918762%, 79.219055%, 12.159729%)" fill-opacity="1"><g transform="translate(238.111313, 326.344829)"><g><path d="M 15.679688 -18.605469 C 15.628906 -18.734375 15.578125 -18.886719 15.527344 -18.988281 C 15.121094 -20.3125 13.898438 -21.253906 12.496094 -21.253906 C 11.863281 -21.253906 11.25 -21.074219 10.742188 -20.71875 C 10.589844 -20.644531 10.460938 -20.542969 10.359375 -20.464844 C 9.976562 -20.132812 9.597656 -19.523438 9.238281 -18.605469 L 2.136719 -0.96875 C 2.0625 -0.738281 2.035156 -0.507812 2.085938 -0.355469 C 2.113281 -0.203125 2.238281 0.0273438 2.648438 0.0273438 L 5.445312 0.0273438 C 5.777344 0.0273438 6.03125 -0.179688 6.160156 -0.507812 L 7.609375 -4.148438 L 13.183594 -4.148438 C 13.464844 -4.148438 13.71875 -4.277344 13.847656 -4.503906 C 14 -4.707031 14.023438 -4.988281 13.949219 -5.242188 L 13.03125 -7.507812 C 12.90625 -7.8125 12.625 -8.019531 12.292969 -8.019531 L 9.136719 -8.019531 L 12.394531 -16.265625 C 12.421875 -16.316406 12.445312 -16.339844 12.445312 -16.339844 L 12.546875 -16.339844 C 12.546875 -16.339844 12.546875 -16.339844 12.574219 -16.289062 L 18.886719 -0.535156 C 19.015625 -0.179688 19.269531 0.0273438 19.625 0.0273438 L 22.347656 0.0273438 C 22.753906 0.0273438 22.859375 -0.230469 22.910156 -0.355469 C 22.960938 -0.507812 22.933594 -0.738281 22.832031 -0.96875 Z M 15.679688 -18.605469 "/></g></g></g><g fill="rgb(83.918762%, 79.219055%, 12.159729%)" fill-opacity="1"><g transform="translate(264.378097, 326.344829)"><g><path d="M 17.589844 -20.972656 L 8.324219 -20.972656 C 7.203125 -20.972656 6.234375 -20.820312 5.445312 -20.542969 C 4.632812 -20.234375 3.972656 -19.753906 3.488281 -19.117188 C 2.976562 -18.480469 2.597656 -17.640625 2.367188 -16.621094 C 2.136719 -15.628906 2.035156 -14.40625 2.035156 -13.007812 L 2.035156 -7.96875 C 2.035156 -6.542969 2.136719 -5.320312 2.367188 -4.300781 C 2.597656 -3.308594 2.976562 -2.46875 3.488281 -1.808594 C 3.996094 -1.171875 4.65625 -0.6875 5.445312 -0.40625 C 6.234375 -0.128906 7.203125 0.0273438 8.324219 0.0273438 L 17.589844 0.0273438 C 17.792969 0.0273438 18.300781 -0.078125 18.300781 -0.867188 L 18.300781 -2.875 C 18.300781 -3.664062 17.792969 -3.765625 17.589844 -3.765625 L 8.449219 -3.765625 C 7.917969 -3.765625 7.457031 -3.816406 7.128906 -3.945312 C 6.796875 -4.046875 6.566406 -4.226562 6.363281 -4.503906 C 6.160156 -4.761719 6.03125 -5.140625 5.929688 -5.625 C 5.855469 -6.132812 5.804688 -6.769531 5.804688 -7.535156 L 5.804688 -13.464844 C 5.804688 -14.230469 5.855469 -14.863281 5.929688 -15.347656 C 6.03125 -15.832031 6.160156 -16.1875 6.363281 -16.46875 C 6.566406 -16.75 6.796875 -16.925781 7.128906 -17.027344 C 7.457031 -17.15625 7.917969 -17.207031 8.449219 -17.207031 L 17.589844 -17.207031 C 17.792969 -17.207031 18.300781 -17.308594 18.300781 -18.125 L 18.300781 -20.082031 C 18.300781 -20.871094 17.792969 -20.972656 17.589844 -20.972656 Z M 17.589844 -20.972656 "/></g></g></g><g fill="rgb(83.918762%, 79.219055%, 12.159729%)" fill-opacity="1"><g transform="translate(285.987116, 326.344829)"><g><path d="M 19.625 -20.972656 L 2.773438 -20.972656 C 2.546875 -20.972656 2.035156 -20.898438 2.035156 -20.109375 L 2.035156 -18.125 C 2.035156 -17.285156 2.546875 -17.207031 2.773438 -17.207031 L 9.316406 -17.207031 L 9.316406 -0.867188 C 9.316406 -0.078125 9.824219 0 10.027344 0 L 12.371094 0 C 12.601562 0 13.082031 -0.078125 13.082031 -0.867188 L 13.082031 -17.207031 L 19.625 -17.207031 C 19.855469 -17.207031 20.363281 -17.285156 20.363281 -18.125 L 20.363281 -20.109375 C 20.363281 -20.898438 19.855469 -20.972656 19.625 -20.972656 Z M 19.625 -20.972656 "/></g></g></g><g fill="rgb(83.918762%, 79.219055%, 12.159729%)" fill-opacity="1"><g transform="translate(309.657774, 326.344829)"><g><path d="M 5.089844 -20.972656 L 2.75 -20.972656 C 2.546875 -20.972656 2.035156 -20.871094 2.035156 -20.082031 L 2.035156 -0.867188 C 2.035156 -0.078125 2.546875 0.0273438 2.75 0.0273438 L 5.089844 0.0273438 C 5.292969 0.0273438 5.804688 -0.078125 5.804688 -0.867188 L 5.804688 -20.082031 C 5.804688 -20.871094 5.292969 -20.972656 5.089844 -20.972656 Z M 5.089844 -20.972656 "/></g></g></g><g fill="rgb(83.918762%, 79.219055%, 12.159729%)" fill-opacity="1"><g transform="translate(318.769705, 326.344829)"><g><path d="M 22.324219 -21.253906 L 19.523438 -21.253906 C 19.191406 -21.253906 18.9375 -21.074219 18.785156 -20.71875 L 12.546875 -4.964844 C 12.546875 -4.914062 12.523438 -4.914062 12.523438 -4.914062 L 12.421875 -4.886719 C 12.421875 -4.886719 12.421875 -4.914062 12.394531 -4.964844 L 6.058594 -20.71875 C 5.957031 -21.074219 5.703125 -21.253906 5.34375 -21.253906 L 2.597656 -21.253906 C 2.214844 -21.253906 2.085938 -21 2.0625 -20.898438 C 2.011719 -20.71875 2.035156 -20.515625 2.136719 -20.261719 L 9.265625 -2.648438 C 9.339844 -2.496094 9.390625 -2.367188 9.445312 -2.265625 C 9.824219 -0.917969 11.074219 0.0273438 12.472656 0.0273438 C 13.109375 0.0273438 13.71875 -0.179688 14.230469 -0.535156 C 14.382812 -0.609375 14.507812 -0.6875 14.609375 -0.789062 C 14.992188 -1.121094 15.347656 -1.730469 15.730469 -2.648438 L 22.808594 -20.261719 C 22.910156 -20.515625 22.933594 -20.71875 22.882812 -20.898438 C 22.832031 -21.023438 22.703125 -21.253906 22.324219 -21.253906 Z M 22.324219 -21.253906 "/></g></g></g><g fill="rgb(83.918762%, 79.219055%, 12.159729%)" fill-opacity="1"><g transform="translate(344.985586, 326.344829)"><g><path d="M 17.335938 -4.554688 L 8.375 -4.554688 C 7.839844 -4.554688 7.40625 -4.632812 7.050781 -4.734375 C 6.71875 -4.863281 6.492188 -5.039062 6.289062 -5.292969 C 6.082031 -5.574219 5.929688 -5.957031 5.855469 -6.441406 C 5.828125 -6.566406 5.828125 -6.746094 5.804688 -6.871094 C 5.804688 -6.871094 5.828125 -8.707031 5.855469 -8.707031 L 17.230469 -8.707031 C 17.4375 -8.707031 17.945312 -8.808594 17.945312 -9.597656 L 17.945312 -11.605469 C 17.945312 -12.394531 17.4375 -12.472656 17.230469 -12.472656 L 4.097656 -12.445312 C 3.359375 -12.394531 2.722656 -12.015625 2.367188 -11.378906 C 2.238281 -11.175781 2.136719 -10.96875 2.085938 -10.742188 L 2.035156 -7.535156 L 2.035156 -7.40625 C 2.0625 -6.210938 2.1875 -5.191406 2.367188 -4.351562 C 2.597656 -3.335938 2.976562 -2.496094 3.460938 -1.859375 C 3.972656 -1.195312 4.632812 -0.738281 5.445312 -0.457031 C 6.234375 -0.152344 7.179688 -0.0273438 8.296875 -0.0273438 L 17.335938 -0.0273438 C 17.5625 -0.0273438 18.074219 -0.101562 18.074219 -0.890625 L 18.074219 -3.691406 C 18.074219 -4.480469 17.5625 -4.554688 17.335938 -4.554688 Z M 17.359375 -21.023438 L 2.722656 -21.023438 C 2.519531 -21.023438 2.035156 -20.921875 2.035156 -20.109375 L 2.035156 -18.125 C 2.035156 -17.335938 2.519531 -17.257812 2.722656 -17.257812 L 17.359375 -17.230469 C 17.5625 -17.230469 18.074219 -17.335938 18.074219 -18.125 L 18.074219 -20.132812 C 18.074219 -20.921875 17.5625 -21.023438 17.359375 -21.023438 Z M 17.359375 -21.023438 "/></g></g></g><g fill="rgb(83.918762%, 79.219055%, 12.159729%)" fill-opacity="1"><g transform="translate(221.364575, 361.926563)"><g><path d="M 14.332031 -12.523438 L 6.695312 -12.523438 C 6.3125 -12.523438 5.828125 -12.675781 5.828125 -13.921875 L 5.828125 -15.808594 C 5.828125 -16.265625 5.90625 -16.621094 6.03125 -16.875 C 6.132812 -17.027344 6.289062 -17.207031 6.71875 -17.207031 L 17.078125 -17.207031 C 17.285156 -17.207031 17.792969 -17.285156 17.792969 -18.074219 L 17.792969 -20.109375 C 17.792969 -20.898438 17.285156 -20.972656 17.078125 -20.972656 L 6.109375 -20.972656 C 4.707031 -20.972656 3.691406 -20.515625 3.027344 -19.574219 C 2.367188 -18.65625 2.035156 -17.4375 2.035156 -15.960938 L 2.035156 -14.023438 C 2.035156 -12.269531 2.394531 -10.84375 3.027344 -9.953125 C 3.816406 -8.910156 4.988281 -8.757812 6.058594 -8.757812 L 13.695312 -8.757812 C 14.074219 -8.757812 14.585938 -8.601562 14.585938 -7.355469 L 14.585938 -5.167969 C 14.585938 -4.707031 14.507812 -4.351562 14.355469 -4.097656 C 14.253906 -3.945312 14.101562 -3.765625 13.667969 -3.765625 L 2.800781 -3.765625 C 2.570312 -3.765625 2.0625 -3.691406 2.0625 -2.902344 L 2.0625 -0.867188 C 2.0625 -0.078125 2.570312 0 2.800781 0 L 14.28125 0 C 15.679688 0 16.722656 -0.484375 17.386719 -1.425781 C 18.019531 -2.339844 18.351562 -3.539062 18.351562 -5.015625 L 18.351562 -7.253906 C 18.351562 -8.910156 18.019531 -10.207031 17.359375 -11.125 C 16.671875 -12.039062 15.652344 -12.523438 14.332031 -12.523438 Z M 14.332031 -12.523438 "/></g></g></g><g fill="rgb(83.918762%, 79.219055%, 12.159729%)" fill-opacity="1"><g transform="translate(243.024496, 361.926563)"><g><path d="M 19.625 -20.972656 L 17.285156 -20.972656 C 17.054688 -20.972656 16.570312 -20.898438 16.570312 -20.109375 L 16.570312 -7.558594 C 16.570312 -6.796875 16.519531 -6.132812 16.441406 -5.652344 C 16.367188 -5.167969 16.214844 -4.785156 16.035156 -4.503906 C 15.832031 -4.25 15.601562 -4.074219 15.273438 -3.945312 C 14.941406 -3.84375 14.484375 -3.765625 13.949219 -3.765625 L 8.449219 -3.765625 C 7.917969 -3.765625 7.457031 -3.84375 7.128906 -3.945312 C 6.796875 -4.074219 6.566406 -4.25 6.363281 -4.503906 C 6.183594 -4.785156 6.03125 -5.167969 5.929688 -5.652344 C 5.855469 -6.132812 5.804688 -6.796875 5.804688 -7.558594 L 5.804688 -20.109375 C 5.804688 -20.898438 5.320312 -20.972656 5.089844 -20.972656 L 2.773438 -20.972656 C 2.546875 -20.972656 2.035156 -20.898438 2.035156 -20.109375 L 2.035156 -7.96875 C 2.035156 -6.542969 2.136719 -5.320312 2.367188 -4.328125 C 2.597656 -3.308594 2.976562 -2.46875 3.488281 -1.832031 C 3.972656 -1.171875 4.65625 -0.710938 5.445312 -0.40625 C 6.234375 -0.128906 7.203125 0 8.324219 0 L 14.050781 0 C 15.171875 0 16.136719 -0.128906 16.925781 -0.40625 C 17.742188 -0.710938 18.402344 -1.171875 18.914062 -1.832031 C 19.421875 -2.46875 19.777344 -3.308594 20.007812 -4.328125 C 20.234375 -5.320312 20.335938 -6.542969 20.335938 -7.96875 L 20.335938 -20.109375 C 20.335938 -20.898438 19.855469 -20.972656 19.625 -20.972656 Z M 19.625 -20.972656 "/></g></g></g><g fill="rgb(83.918762%, 79.219055%, 12.159729%)" fill-opacity="1"><g transform="translate(266.669702, 361.926563)"><g><path d="M 14.507812 -20.972656 L 2.75 -20.972656 C 2.546875 -20.972656 2.035156 -20.898438 2.035156 -20.082031 L 2.035156 -18.074219 C 2.035156 -17.285156 2.546875 -17.207031 2.75 -17.207031 L 13.847656 -17.207031 C 14.484375 -17.207031 14.941406 -17.027344 15.195312 -16.648438 C 15.476562 -16.265625 15.601562 -15.652344 15.601562 -14.8125 C 15.601562 -13.972656 15.476562 -13.363281 15.195312 -12.980469 C 14.941406 -12.601562 14.484375 -12.421875 13.847656 -12.421875 L 2.75 -12.421875 C 2.546875 -12.421875 2.035156 -12.34375 2.035156 -11.554688 L 2.035156 -0.867188 C 2.035156 -0.078125 2.546875 0.0273438 2.75 0.0273438 L 5.089844 0.0273438 C 5.292969 0.0273438 5.804688 -0.078125 5.804688 -0.867188 L 5.804688 -8.65625 L 14.507812 -8.679688 C 16.238281 -8.679688 17.488281 -9.214844 18.25 -10.285156 C 19.015625 -11.351562 19.371094 -12.878906 19.371094 -14.890625 L 19.371094 -14.738281 C 19.371094 -16.773438 19.015625 -18.300781 18.25 -19.34375 C 17.488281 -20.441406 16.238281 -20.972656 14.507812 -20.972656 Z M 14.507812 -20.972656 "/></g></g></g><g fill="rgb(83.918762%, 79.219055%, 12.159729%)" fill-opacity="1"><g transform="translate(289.347719, 361.926563)"><g><path d="M 14.507812 -20.972656 L 2.75 -20.972656 C 2.546875 -20.972656 2.035156 -20.898438 2.035156 -20.082031 L 2.035156 -18.074219 C 2.035156 -17.285156 2.546875 -17.207031 2.75 -17.207031 L 13.847656 -17.207031 C 14.484375 -17.207031 14.941406 -17.027344 15.195312 -16.648438 C 15.476562 -16.265625 15.601562 -15.652344 15.601562 -14.8125 C 15.601562 -13.972656 15.476562 -13.363281 15.195312 -12.980469 C 14.941406 -12.601562 14.484375 -12.421875 13.847656 -12.421875 L 2.75 -12.421875 C 2.546875 -12.421875 2.035156 -12.34375 2.035156 -11.554688 L 2.035156 -0.867188 C 2.035156 -0.078125 2.546875 0.0273438 2.75 0.0273438 L 5.089844 0.0273438 C 5.292969 0.0273438 5.804688 -0.078125 5.804688 -0.867188 L 5.804688 -8.65625 L 14.507812 -8.679688 C 16.238281 -8.679688 17.488281 -9.214844 18.25 -10.285156 C 19.015625 -11.351562 19.371094 -12.878906 19.371094 -14.890625 L 19.371094 -14.738281 C 19.371094 -16.773438 19.015625 -18.300781 18.25 -19.34375 C 17.488281 -20.441406 16.238281 -20.972656 14.507812 -20.972656 Z M 14.507812 -20.972656 "/></g></g></g><g fill="rgb(83.918762%, 79.219055%, 12.159729%)" fill-opacity="1"><g transform="translate(312.025735, 361.926563)"><g><path d="M 19.371094 -19.117188 C 18.863281 -19.753906 18.199219 -20.234375 17.386719 -20.542969 C 16.597656 -20.820312 15.628906 -20.972656 14.507812 -20.972656 L 8.296875 -20.972656 C 7.179688 -20.972656 6.234375 -20.820312 5.445312 -20.542969 C 4.632812 -20.234375 3.972656 -19.753906 3.460938 -19.117188 C 2.976562 -18.480469 2.597656 -17.640625 2.367188 -16.621094 C 2.136719 -15.628906 2.035156 -14.433594 2.035156 -13.007812 L 2.035156 -7.96875 C 2.035156 -6.542969 2.136719 -5.320312 2.367188 -4.328125 C 2.597656 -3.308594 2.976562 -2.46875 3.460938 -1.832031 C 3.972656 -1.171875 4.632812 -0.6875 5.445312 -0.40625 C 6.210938 -0.128906 7.179688 0.0273438 8.296875 0.0273438 L 14.507812 0.0273438 C 15.628906 0.0273438 16.597656 -0.128906 17.386719 -0.40625 C 18.199219 -0.6875 18.863281 -1.171875 19.371094 -1.808594 C 19.878906 -2.46875 20.234375 -3.308594 20.464844 -4.328125 C 20.667969 -5.320312 20.796875 -6.542969 20.796875 -7.96875 L 20.796875 -13.007812 C 20.796875 -14.40625 20.667969 -15.628906 20.464844 -16.621094 C 20.234375 -17.640625 19.878906 -18.480469 19.371094 -19.117188 Z M 17.003906 -13.441406 L 17.003906 -7.507812 C 17.003906 -6.769531 16.976562 -6.132812 16.875 -5.625 C 16.800781 -5.167969 16.648438 -4.761719 16.441406 -4.503906 C 16.265625 -4.226562 16.011719 -4.046875 15.679688 -3.945312 C 15.347656 -3.816406 14.917969 -3.765625 14.382812 -3.765625 L 8.425781 -3.765625 C 7.890625 -3.765625 7.457031 -3.816406 7.128906 -3.945312 C 6.796875 -4.046875 6.542969 -4.226562 6.363281 -4.503906 C 6.160156 -4.761719 6.03125 -5.167969 5.929688 -5.625 C 5.855469 -6.132812 5.804688 -6.769531 5.804688 -7.507812 L 5.804688 -13.441406 C 5.804688 -14.179688 5.855469 -14.8125 5.929688 -15.324219 C 6.03125 -15.808594 6.160156 -16.1875 6.363281 -16.46875 C 6.542969 -16.722656 6.796875 -16.902344 7.128906 -17.027344 C 7.457031 -17.128906 7.890625 -17.207031 8.425781 -17.207031 L 14.382812 -17.207031 C 14.917969 -17.207031 15.347656 -17.128906 15.679688 -17.027344 C 16.011719 -16.902344 16.265625 -16.722656 16.441406 -16.46875 C 16.648438 -16.1875 16.800781 -15.808594 16.875 -15.324219 C 16.976562 -14.8125 17.003906 -14.179688 17.003906 -13.441406 Z M 17.003906 -13.441406 "/></g></g></g><g fill="rgb(83.918762%, 79.219055%, 12.159729%)" fill-opacity="1"><g transform="translate(336.129072, 361.926563)"><g><path d="M 19.394531 -14.890625 C 19.394531 -14.863281 19.394531 -14.839844 19.394531 -14.8125 C 19.394531 -14.789062 19.394531 -14.761719 19.394531 -14.738281 Z M 19.878906 -1.09375 L 15.425781 -8.730469 C 16.671875 -8.882812 17.640625 -9.417969 18.277344 -10.285156 C 18.988281 -11.328125 19.371094 -12.828125 19.394531 -14.8125 C 19.371094 -16.800781 18.988281 -18.300781 18.277344 -19.34375 C 17.511719 -20.441406 16.238281 -20.972656 14.507812 -20.972656 L 2.773438 -20.972656 C 2.546875 -20.972656 2.035156 -20.898438 2.035156 -20.082031 L 2.035156 -18.074219 C 2.035156 -17.285156 2.546875 -17.207031 2.773438 -17.207031 L 13.847656 -17.207031 C 14.507812 -17.207031 14.941406 -17.027344 15.195312 -16.648438 C 15.476562 -16.265625 15.601562 -15.652344 15.601562 -14.8125 C 15.601562 -13.972656 15.476562 -13.363281 15.195312 -12.980469 C 14.941406 -12.601562 14.507812 -12.421875 13.847656 -12.421875 L 2.773438 -12.421875 C 2.546875 -12.421875 2.035156 -12.34375 2.035156 -11.554688 L 2.035156 -0.867188 C 2.035156 -0.078125 2.546875 0.0273438 2.773438 0.0273438 L 5.089844 0.0273438 C 5.320312 0.0273438 5.804688 -0.078125 5.804688 -0.867188 L 5.804688 -8.65625 L 11.175781 -8.65625 L 15.78125 -0.484375 C 15.882812 -0.332031 15.960938 -0.203125 16.0625 -0.128906 C 16.1875 -0.0273438 16.367188 0.0273438 16.597656 0.0273438 L 19.394531 0.0273438 C 19.703125 0.0273438 19.929688 -0.179688 19.980469 -0.484375 C 20.007812 -0.738281 19.980469 -0.941406 19.878906 -1.09375 Z M 19.878906 -1.09375 "/></g></g></g><g fill="rgb(83.918762%, 79.219055%, 12.159729%)" fill-opacity="1"><g transform="translate(359.443393, 361.926563)"><g><path d="M 19.625 -20.972656 L 2.773438 -20.972656 C 2.546875 -20.972656 2.035156 -20.898438 2.035156 -20.109375 L 2.035156 -18.125 C 2.035156 -17.285156 2.546875 -17.207031 2.773438 -17.207031 L 9.316406 -17.207031 L 9.316406 -0.867188 C 9.316406 -0.078125 9.824219 0 10.027344 0 L 12.371094 0 C 12.601562 0 13.082031 -0.078125 13.082031 -0.867188 L 13.082031 -17.207031 L 19.625 -17.207031 C 19.855469 -17.207031 20.363281 -17.285156 20.363281 -18.125 L 20.363281 -20.109375 C 20.363281 -20.898438 19.855469 -20.972656 19.625 -20.972656 Z M 19.625 -20.972656 "/></g></g></g></svg>